<svg width="16" height="16" viewBox="0 0 16 16" fill="none" xmlns="http://www.w3.org/2000/svg">
<path fill-rule="evenodd" clip-rule="evenodd" d="M2.80859 9.05838L2.80859 7.01497C2.80859 6.39306 3.25235 5.94884 3.8736 5.94884L6.13675 5.90441C6.18276 5.90796 6.2282 5.91433 6.27288 5.92332C7.0898 6.08772 6.52627 6.97054 5.693 6.97054L4.36173 6.97054C4.00673 6.97054 3.78485 7.19265 3.78485 7.54803L3.78485 8.52532C3.78485 8.88069 4.00673 9.1028 4.36174 9.1028L5.60425 9.1028C6.48234 9.1028 7.05922 10.1245 6.18113 10.1245L3.8736 10.1245C3.25235 10.1245 2.80859 9.68029 2.80859 9.05838ZM10.3259 6.95738C10.302 6.96591 10.2873 6.97114 10.2593 6.97194L9.8988 6.98225C9.2875 6.99973 8.81218 6.388 9.34191 6.08208C9.48848 5.99743 9.65199 5.94884 9.81992 5.94884L12.1274 5.94884C12.7487 5.94884 13.1925 6.39306 13.1925 7.01497L13.1925 9.05838C13.1925 9.68029 12.7487 10.1245 12.1274 10.1245L9.81992 10.1245C9.67135 10.1245 9.52969 10.0899 9.40169 10.0275C8.84215 9.75476 9.33068 9.1028 9.95304 9.1028L11.6393 9.1028C11.9943 9.1028 12.2162 8.88069 12.2162 8.52532L12.2162 7.54803C12.2162 7.19265 11.9943 6.97054 11.6393 6.97054L10.4476 6.97054C10.4344 6.97054 10.4183 6.96607 10.4019 6.96148C10.3779 6.95477 10.353 6.94783 10.3348 6.95423C10.3317 6.95533 10.3287 6.95638 10.3259 6.95738Z" fill="white"/>
</svg>
