<svg width="16" height="16" viewBox="0 0 16 16" fill="none" xmlns="http://www.w3.org/2000/svg">
<path fill-rule="evenodd" clip-rule="evenodd" d="M2.80859 7.85432L2.80859 9.89774C2.80859 10.5196 3.25235 10.9639 3.8736 10.9639L6.18113 10.9639C7.05922 10.9639 6.48234 9.94216 5.60425 9.94216L6.048 9.94216L4.36174 9.94216C4.00673 9.94216 3.78485 9.72005 3.78485 9.36467L3.78485 8.38739C3.78485 8.03201 4.00673 7.8099 4.36173 7.8099L5.693 7.8099C6.52627 7.8099 7.0898 6.92707 6.27288 6.76267C6.2282 6.75368 6.18276 6.74731 6.13675 6.74377L3.8736 6.78819C3.25235 6.78819 2.80859 7.23241 2.80859 7.85432ZM10.2593 7.81129C10.2906 7.8104 10.3052 7.80398 10.3348 7.79359C10.3654 7.7828 10.4151 7.8099 10.4476 7.8099L11.6393 7.8099C11.9943 7.8099 12.2162 8.03201 12.2162 8.38739L12.2162 9.36467C12.2162 9.72005 11.9943 9.94216 11.6393 9.94216L9.95304 9.94216C9.33068 9.94216 8.84215 10.5941 9.40169 10.8669C9.52969 10.9293 9.67135 10.9639 9.81992 10.9639L12.1274 10.9639C12.7487 10.9639 13.1925 10.5196 13.1925 9.89774L13.1925 7.85432C13.1925 7.23241 12.7487 6.78819 12.1274 6.78819L9.81992 6.78819C9.65199 6.78819 9.48848 6.83678 9.34191 6.92143C8.81218 7.22735 9.2875 7.83909 9.8988 7.8216L10.2593 7.81129ZM10.4043 9.00962C10.4081 8.92052 10.4007 8.83074 10.3879 8.74248C10.3568 8.52719 10.2332 8.34297 9.86429 8.34297L6.048 8.34296C5.60425 8.34296 5.5155 8.6095 5.5155 8.87603C5.5155 9.14256 5.60425 9.40909 6.048 9.40909L9.86429 9.40909C10.2414 9.40909 10.3942 9.24867 10.4043 9.00962Z" fill="white"/>
</svg>
