<svg width="16" height="16" viewBox="0 0 16 16" fill="none" xmlns="http://www.w3.org/2000/svg">
<path fill-rule="evenodd" clip-rule="evenodd" d="M9.00017 3.66162H6.95675C6.33485 3.66162 5.89062 4.10538 5.89062 4.72663L5.89063 7.03416C5.89063 7.91225 6.91233 7.33537 6.91233 6.45728L6.91233 6.90103L6.91233 5.21476C6.91233 4.85976 7.13444 4.63788 7.48982 4.63788L8.46711 4.63788C8.82248 4.63788 9.04459 4.85976 9.04459 5.21476V6.54603C9.04459 7.37929 9.92742 7.94283 10.0918 7.1259C10.1008 7.08123 10.1072 7.03579 10.1107 6.98978L10.0663 4.72663C10.0663 4.10538 9.62208 3.66162 9.00017 3.66162ZM9.0432 11.1123C9.04409 11.1436 9.05051 11.1583 9.0609 11.1878C9.0717 11.2185 9.04459 11.2681 9.04459 11.3006V12.4923C9.04459 12.8473 8.82248 13.0692 8.46711 13.0692H7.48982C7.13444 13.0692 6.91233 12.8473 6.91233 12.4923L6.91233 10.8061C6.91233 10.1837 6.26038 9.69517 5.9876 10.2547C5.9252 10.3827 5.89063 10.5244 5.89063 10.6729L5.89062 12.9805C5.89062 13.6017 6.33485 14.0455 6.95675 14.0455H9.00017C9.62208 14.0455 10.0663 13.6017 10.0663 12.9805L10.0663 10.6729C10.0663 10.505 10.0177 10.3415 9.93306 10.1949C9.62714 9.66521 9.0154 10.1405 9.03289 10.7518L9.0432 11.1123ZM7.84487 11.2574C7.93397 11.2611 8.02376 11.2538 8.11201 11.241C8.3273 11.2098 8.51153 11.0862 8.51153 10.7173L8.51153 6.90103C8.51153 6.45727 8.24499 6.36852 7.97846 6.36852C7.71193 6.36852 7.4454 6.45727 7.4454 6.90103L7.4454 10.7173C7.4454 11.0945 7.60582 11.2472 7.84487 11.2574Z" fill="white"/>
</svg>
