<svg width="16" height="17" viewBox="0 0 16 17" fill="none" xmlns="http://www.w3.org/2000/svg">
<path fill-rule="evenodd" clip-rule="evenodd" d="M6.95675 2.82227H9.00017C9.62208 2.82227 10.0663 3.26602 10.0663 3.88728L10.1107 6.15043C10.1072 6.19643 10.1008 6.24187 10.0918 6.28655C9.92742 7.10347 9.04459 6.53994 9.04459 5.70667V4.37541C9.04459 4.0204 8.82248 3.79853 8.46711 3.79853L7.48982 3.79853C7.13444 3.79853 6.91233 4.0204 6.91233 4.37541L6.91233 5.61792C6.91233 6.49601 5.89063 7.07289 5.89063 6.1948L5.89062 3.88728C5.89062 3.26602 6.33485 2.82227 6.95675 2.82227ZM9.05776 10.3396C9.04922 10.3156 9.044 10.301 9.0432 10.273L9.03289 9.91248C9.0154 9.30117 9.62714 8.82585 9.93306 9.35558C10.0177 9.50215 10.0663 9.66566 10.0663 9.83359L10.0663 12.1411C10.0663 12.7624 9.62208 13.2061 9.00017 13.2061H6.95675C6.33485 13.2061 5.89062 12.7624 5.89062 12.1411L5.89063 9.83359C5.89063 9.68502 5.9252 9.54337 5.9876 9.41536C6.26038 8.85582 6.91233 9.34435 6.91233 9.96671L6.91233 11.653C6.91233 12.008 7.13444 12.2299 7.48982 12.2299H8.46711C8.82248 12.2299 9.04459 12.008 9.04459 11.653V10.4613C9.04459 10.448 9.04907 10.432 9.05366 10.4155C9.06036 10.3915 9.06731 10.3666 9.0609 10.3484C9.05981 10.3453 9.05876 10.3424 9.05776 10.3396Z" fill="white"/>
</svg>
