<svg width="16" height="16" viewBox="0 0 16 16" fill="none" xmlns="http://www.w3.org/2000/svg">
<g clip-path="url(#clip0_19071_19226)">
<g opacity="0.5">
<path d="M4.76141 6.65723L2.80512 5.90325L1.26564 6.66692L0.663441 7.57651L2.98153 7.97921L4.76141 6.65723Z" fill="white"/>
<path d="M0.998288 10.2825L4.25939 10.4453L4.48222 11.4221L5.57907 13.2272L3.34258 14.9061L0.998288 10.2825Z" fill="white"/>
<path d="M3.4002 -0.000378374L5.33207 2.6895L3.46786 4.89421L2.25764 4.78735L-0.000795526 3.41825L3.4002 -0.000378374Z" fill="white"/>
<path d="M12.2384 0.531163L11.3828 1.54227L12.6273 4.88672L14.8828 2.8645L14.6495 2.24227L12.2384 0.531163Z" fill="white"/>
<path d="M7.4717 2.65339L8.94948 2.88672L9.88281 1.64227L9.88281 0.553385L7.23837 0.0867182L7.4717 2.65339Z" fill="white"/>
<path d="M6.05668 15.6649L6.3368 14.2021L8.10086 14.0322L8.59421 14.4287L9.01917 15.5539L6.05668 15.6649Z" fill="white"/>
</g>
<path d="M15.7292 11.6539L12.7287 10.972C12.5923 11.1083 12.4559 11.3811 12.3195 11.5175L14.2289 13.4269L13.4106 14.1088L11.3648 12.063C11.2284 12.1994 10.9557 12.3358 10.8193 12.3358L11.6376 15.609L10.6829 16.0183L9.86459 12.745C9.04628 13.0177 8.09158 12.8814 7.68242 12.3358C7.27326 11.7903 7.00049 10.9719 7.27326 10.1536L4 9.33532L4.40916 8.3806L7.68242 9.19896C7.8188 9.06258 7.95519 8.78977 7.95519 8.65339L5.9094 6.6076L6.59133 5.92567L8.50073 7.83511C8.63712 7.69872 8.90989 7.56227 9.04628 7.42588L8.22796 4.28902L9.18266 3.87988L9.86459 6.74395C11.0921 6.19841 12.3195 6.19846 13.0015 6.88039C13.6834 7.56232 13.6834 8.78977 13.1379 10.0172L16.002 10.6992L15.7292 11.6539Z" fill="white"/>
</g>
<defs>
<clipPath id="clip0_19071_19226">
<rect width="16" height="16" fill="white"/>
</clipPath>
</defs>
</svg>
