<svg width="16" height="16" viewBox="0 0 16 16" fill="none" xmlns="http://www.w3.org/2000/svg">
<g clip-path="url(#clip0_19049_19113)">
<path opacity="0.5" d="M2.5 2.5L8.5 8.5" stroke="white" stroke-miterlimit="10"/>
<path opacity="0.5" d="M2 14L8 11" stroke="white" stroke-miterlimit="10"/>
<path opacity="0.5" d="M12 6L14 2" stroke="white" stroke-miterlimit="10"/>
<path d="M2 16C3.10457 16 4 15.1046 4 14C4 12.8954 3.10457 12 2 12C0.895431 12 0 12.8954 0 14C0 15.1046 0.895431 16 2 16Z" fill="white"/>
<path d="M14 4C15.1046 4 16 3.10457 16 2C16 0.895431 15.1046 0 14 0C12.8954 0 12 0.895431 12 2C12 3.10457 12.8954 4 14 4Z" fill="white"/>
<path d="M2.5 5C3.88071 5 5 3.88071 5 2.5C5 1.11929 3.88071 0 2.5 0C1.11929 0 0 1.11929 0 2.5C0 3.88071 1.11929 5 2.5 5Z" fill="white"/>
<path d="M10 16C13.3429 16 16 13.3429 16 10C16 6.65714 13.3429 4 10 4C6.65714 4 4 6.65714 4 10C4 13.3429 6.65714 16 10 16ZM11.1143 13.6C11.1143 14.2 10.6 14.7143 10 14.7143C9.4 14.7143 8.88572 14.2 8.88572 13.6L8.88572 10.4286C8.88572 9.82857 9.4 9.31429 10 9.31429C10.6 9.31429 11.1143 9.82857 11.1143 10.4286L11.1143 13.6ZM10 5.71429C10.6857 5.71429 11.2857 6.31429 11.2857 7C11.2857 7.68571 10.6857 8.28571 10 8.28571C9.31428 8.28571 8.71428 7.68571 8.71428 7C8.71428 6.31429 9.31428 5.71429 10 5.71429Z" fill="white"/>
</g>
<defs>
<clipPath id="clip0_19049_19113">
<rect width="16" height="16" fill="white"/>
</clipPath>
</defs>
</svg>
