<svg width="20" height="20" viewBox="0 0 20 20" fill="none" xmlns="http://www.w3.org/2000/svg">
<path d="M20.0009 9.99991C20.0034 11.3134 19.7452 12.6143 19.2417 13.8274C18.7381 15.0405 17.9992 16.1416 17.0673 17.0672L16.0405 16.0405C16.8356 15.2483 17.4663 14.3069 17.8965 13.2703C18.3267 12.2336 18.5478 11.1223 18.5473 9.99991C18.5478 8.87756 18.3267 7.76618 17.8965 6.72955C17.4663 5.69293 16.8356 4.7515 16.0405 3.95936L17.0673 2.93262C17.9992 3.8582 18.7381 4.95936 19.2417 6.17246C19.7452 7.38555 20.0034 8.68646 20.0009 9.99991V9.99991ZM3.9994 3.95936L2.97262 2.93262C2.04071 3.8582 1.30149 4.95936 0.797939 6.17246C0.294391 7.38555 0.0365846 8.68646 0.0390804 9.99991C0.0365846 11.3134 0.294391 12.6143 0.797939 13.8274C1.30149 15.0405 2.04071 16.1416 2.97262 17.0672L3.9994 16.0405C3.20431 15.2483 2.57365 14.3069 2.14344 13.2703C1.71323 12.2336 1.4921 11.1223 1.49266 9.99991C1.48685 8.88035 1.7016 7.77062 2.12488 6.73415C2.54817 5.69768 3.17149 4.75479 3.95936 3.95936H3.9994ZM5.66622 14.3736L6.69301 13.3469C5.82598 12.4498 5.34695 11.2474 5.35955 9.99991C5.34695 8.75238 5.82598 7.55001 6.69301 6.65293L5.66622 5.62618C5.09101 6.20002 4.63485 6.88177 4.32365 7.63231C4.01245 8.38284 3.85219 9.18741 3.85258 9.99991C3.84118 11.6352 4.4791 13.2081 5.62618 14.3736H5.66622ZM14.4138 5.62618L13.387 6.65293C14.254 7.55001 14.733 8.75238 14.7204 9.99991C14.733 11.2474 14.254 12.4498 13.387 13.3469L14.4138 14.3736C14.989 13.7998 15.4451 13.1181 15.7563 12.3675C16.0675 11.617 16.2275 10.8124 16.2271 9.99991C16.2222 9.18461 16.0559 8.37836 15.7378 7.62767C15.4197 6.87697 14.9562 6.19671 14.3737 5.62618H14.4138Z" fill="white"/>
<path d="M9.99761 12.3331C11.2864 12.3331 12.3312 11.2883 12.3312 9.99956C12.3312 8.71078 11.2864 7.66602 9.99761 7.66602C8.70883 7.66602 7.66406 8.71078 7.66406 9.99956C7.66406 11.2883 8.70883 12.3331 9.99761 12.3331Z" fill="white"/>
</svg>
