<?xml version="1.0" encoding="UTF-8" standalone="no"?>
<!-- Generator: Adobe Illustrator 25.0.0, SVG Export Plug-In . SVG Version: 6.00 Build 0)  -->

<svg
   version="1.1"
   id="AnimSequence_x5F_64"
   x="0px"
   y="0px"
   viewBox="0 0 64 64"
   style="enable-background:new 0 0 64 64;"
   xml:space="preserve"
   sodipodi:docname="ProxyAnimSequence_64.svg"
   inkscape:version="1.3 (0e150ed6c4, 2023-07-21)"
   xmlns:inkscape="http://www.inkscape.org/namespaces/inkscape"
   xmlns:sodipodi="http://sodipodi.sourceforge.net/DTD/sodipodi-0.dtd"
   xmlns="http://www.w3.org/2000/svg"
   xmlns:svg="http://www.w3.org/2000/svg"><defs
   id="defs22"><linearGradient
   id="swatch26"
   inkscape:swatch="solid"><stop
     style="stop-color:#ffffff;stop-opacity:1;"
     offset="0"
     id="stop26" /></linearGradient><linearGradient
   id="SVGID_4_-0"
   gradientUnits="userSpaceOnUse"
   x1="31.862"
   y1="9.3695002"
   x2="32.138"
   y2="54.630501"
   gradientTransform="translate(0.01189839,0.15900341)">&#10;		<stop
   offset="0"
   style="stop-color:#E6E6E6"
   id="stop7-8" />&#10;		<stop
   offset="1"
   style="stop-color:#808080"
   id="stop8-8" />&#10;	</linearGradient>&#10;	&#10;	&#10;	&#10;&#10;		<linearGradient
   id="SVGID_1_"
   gradientUnits="userSpaceOnUse"
   x1="30.5676"
   y1="22.165899"
   x2="44.872501"
   y2="31.702499"
   gradientTransform="matrix(0.61998362,0,0,0.61998362,10.684684,10.805897)">&#10;			<stop
   offset="0"
   style="stop-color:#4D4D4D"
   id="stop1" />&#10;			<stop
   offset="0.1624"
   style="stop-color:#808080"
   id="stop2" />&#10;			<stop
   offset="1"
   style="stop-color:#B3B3B3"
   id="stop3" />&#10;		</linearGradient>&#10;		&#10;		<linearGradient
   id="SVGID_2_"
   gradientUnits="userSpaceOnUse"
   x1="20.945999"
   y1="31.2857"
   x2="3.9798"
   y2="38.826302"
   gradientTransform="matrix(0.61998362,0,0,0.61998362,10.684684,10.805897)">&#10;			<stop
   offset="0"
   style="stop-color:#4D4D4D"
   id="stop4" />&#10;			<stop
   offset="0.1624"
   style="stop-color:#808080"
   id="stop5" />&#10;			<stop
   offset="1"
   style="stop-color:#B3B3B3"
   id="stop6" />&#10;		</linearGradient>&#10;		&#10;		<linearGradient
   id="SVGID_3_"
   gradientUnits="userSpaceOnUse"
   x1="15.0126"
   y1="32.3423"
   x2="32.762199"
   y2="25.0212"
   gradientTransform="matrix(0.61998362,0,0,0.61998362,10.684684,10.805897)">&#10;			<stop
   offset="0"
   style="stop-color:#CCCCCC"
   id="stop7" />&#10;			<stop
   offset="1"
   style="stop-color:#F2F2F2"
   id="stop8" />&#10;		</linearGradient>&#10;		&#10;		<radialGradient
   id="SVGID_4_"
   cx="34.469898"
   cy="13.1625"
   r="4.8055"
   gradientUnits="userSpaceOnUse"
   gradientTransform="matrix(0.61998362,0,0,0.61998362,10.684684,10.805897)">&#10;			<stop
   offset="0"
   style="stop-color:#F2F2F2"
   id="stop9" />&#10;			<stop
   offset="1"
   style="stop-color:#E6E6E6"
   id="stop10" />&#10;		</radialGradient>&#10;		&#10;	&#10;		&#10;		&#10;		<linearGradient
   id="SVGID_5_"
   gradientUnits="userSpaceOnUse"
   x1="46.6721"
   y1="48.275101"
   x2="46.650002"
   y2="54.035702"
   gradientTransform="matrix(0.61998362,0,0,0.61998362,10.684684,10.805897)">&#10;			<stop
   offset="0"
   style="stop-color:#FFFFFF"
   id="stop15" />&#10;			<stop
   offset="1"
   style="stop-color:#C2C2C2"
   id="stop16" />&#10;		</linearGradient>&#10;		&#10;		&#10;	&#10;			&#10;			&#10;			&#10;			&#10;			&#10;		&#10;			&#10;			&#10;			&#10;			&#10;			&#10;		</defs><sodipodi:namedview
   id="namedview22"
   pagecolor="#ffffff"
   bordercolor="#000000"
   borderopacity="0.25"
   inkscape:showpageshadow="2"
   inkscape:pageopacity="0.0"
   inkscape:pagecheckerboard="0"
   inkscape:deskcolor="#d1d1d1"
   showguides="true"
   inkscape:zoom="26.980543"
   inkscape:cx="28.372298"
   inkscape:cy="43.383115"
   inkscape:window-width="2498"
   inkscape:window-height="1417"
   inkscape:window-x="-8"
   inkscape:window-y="-8"
   inkscape:window-maximized="1"
   inkscape:current-layer="AnimSequence_x5F_64"><sodipodi:guide
     position="22.958231,53.726454"
     orientation="0,-1"
     id="guide22"
     inkscape:locked="false" /><sodipodi:guide
     position="19.498771,10.011466"
     orientation="0,-1"
     id="guide23"
     inkscape:locked="false" /><sodipodi:guide
     position="9.95905,36.533989"
     orientation="1,0"
     id="guide24"
     inkscape:locked="false" /><sodipodi:guide
     position="54.093366,34.856675"
     orientation="1,0"
     id="guide25"
     inkscape:locked="false" /></sodipodi:namedview>&#10;<style
   type="text/css"
   id="style1">&#10;	.st0{fill:url(#SVGID_1_);enable-background:new    ;}&#10;	.st1{fill:url(#SVGID_2_);enable-background:new    ;}&#10;	.st2{fill-rule:evenodd;clip-rule:evenodd;fill:url(#SVGID_3_);}&#10;	.st3{fill:url(#SVGID_4_);}&#10;	.st4{fill:#7F7F7F;}&#10;	.st5{fill:#FFFFFF;}&#10;	.st6{fill:url(#SVGID_5_);}&#10;	.st7{fill:none;}&#10;</style>&#10;<rect
   style="fill:#7f7f7f;fill-opacity:1;fill-rule:evenodd;stroke:#7f7f7f;stroke-width:1.26087;stroke-linecap:round;stroke-linejoin:round;stroke-dasharray:none;stroke-opacity:1;paint-order:fill markers stroke"
   id="rect26"
   width="10.609679"
   height="4.529418"
   x="34.321693"
   y="39.982628" /><rect
   style="fill:#7f7f7f;fill-opacity:1;fill-rule:evenodd;stroke:#ffffff;stroke-width:0.267528;stroke-dasharray:none;stroke-opacity:1;paint-order:fill markers stroke"
   id="rect25-2"
   width="11.969568"
   height="1.0380902"
   x="33.429493"
   y="38.827023"
   transform="matrix(0.99999478,-0.00322962,0.00495984,0.9999877,0,0)" /><rect
   style="fill:#7f7f7f;fill-opacity:1;fill-rule:evenodd;stroke:none;stroke-width:0.279092;stroke-dasharray:none;stroke-opacity:1;paint-order:fill markers stroke"
   id="rect25"
   width="11.217035"
   height="1.205569"
   x="22.888384"
   y="44.003948"
   transform="rotate(-15.176838)" /><path
   class="st0"
   d="m 37.467976,27.979443 c 0,0.309992 -0.247993,0.495987 -0.557985,0.495987 h -4.835872 c -0.619984,0 -0.991974,-0.185995 -1.177969,-0.619983 l -1.797952,-2.603932 v -1.239967 c 0.37199,-0.805979 0.805978,-1.735954 0.805978,-1.735954 l 2.603931,3.967895 4.525881,0.495987 c 0.309992,0.062 0.495987,0.309992 0.495987,0.619984 z"
   id="path3"
   style="fill:url(#SVGID_1_);stroke:none;stroke-width:0.619984" /><path
   class="st1"
   d="m 14.962571,34.055283 c 0,0.37199 0.309992,0.619983 0.619984,0.619983 h 4.959869 c 0.37199,0 0.805978,-0.185995 1.177968,-0.619983 l 2.417937,-4.029894 -0.681982,-0.74398 c -0.619984,-0.37199 -0.433989,-1.301966 -0.619984,-1.921949 l -2.851925,4.89787 -4.463882,0.619984 c -0.309992,0.062 -0.557985,0.309992 -0.557985,0.619983 z"
   id="path6"
   style="fill:url(#SVGID_2_);stroke:none;stroke-width:0.619984" /><path
   class="st2"
   d="m 29.222194,37.589189 c 0.619984,0.247994 1.239967,-0.185995 1.239967,-0.867977 V 32.25733 c 0,-0.37199 -0.185995,-0.619983 -0.37199,-0.805978 l -0.37199,-0.309992 -2.293939,-1.611958 c -0.062,-0.062 -0.123997,-0.185995 -0.062,-0.309991 l 2.107945,-3.657904 c 0,0 0,0 0,0 l 0.619983,-1.177969 c 0.37199,-0.805978 0.185995,-1.549959 -0.185995,-1.983947 0,0 -0.062,-0.062 -0.062,-0.062 L 28.106221,21.345618 23.518342,18.98968 c -0.619984,-0.185995 -1.177969,0 -1.611957,0.37199 l -3.099919,4.029893 c -0.247993,0.309992 -0.185995,0.743981 0.123997,0.991974 v 0 c 0.309992,0.247994 0.681982,0.247994 0.991974,0 l 3.285913,-2.975921 c 0.062,-0.062 0.185995,-0.062 0.247994,-0.062 l 2.045946,0.991973 c 0.123996,0.062 0.185995,0.185995 0.062,0.309992 l -3.03792,5.145864 c 0,0 0,0.062 0,0.062 -0.185995,0.805978 0.185995,1.797952 0.929976,2.169942 l 0.247993,0.123997 4.463882,2.541933 c 0.062,0.062 0.123997,0.123997 0.123997,0.185995 l 0.37199,3.967895 c 0.062,0.37199 0.247993,0.619984 0.557985,0.74398 z"
   id="path8"
   style="fill:url(#SVGID_3_);stroke:none;stroke-width:0.619984" /><path
   class="st3"
   d="m 32.074119,21.965602 c 1.673956,0 2.975921,-1.363964 2.975921,-2.975921 0,-1.673956 -1.363964,-2.975922 -2.975921,-2.975922 -1.673956,0 -2.975921,1.363964 -2.975921,2.975922 0,1.611957 1.301965,2.975921 2.975921,2.975921 z"
   id="path10"
   style="fill:url(#SVGID_4_);stroke:none;stroke-width:0.619984" /><polygon
   class="st5"
   points="40.3,44.1 42.8,44.1 41.2,46.7 38.8,46.7 "
   id="polygon12"
   style="stroke:none;stroke-opacity:1;fill:#ffffff;fill-opacity:1;stroke-width:1.00002642;stroke-dasharray:none"
   transform="matrix(0.61998362,0,0,0.61998362,10.684684,10.805897)" /><polygon
   class="st5"
   points="44.7,44.1 47.1,44.1 45.5,46.7 43.1,46.7 "
   id="polygon13"
   style="stroke:none;stroke-opacity:1;fill:#ffffff;fill-opacity:1;stroke-width:1.00002642;stroke-dasharray:none"
   transform="matrix(0.61998362,0,0,0.61998362,10.684684,10.805897)" /><polygon
   class="st5"
   points="49,44.1 51.4,44.1 49.8,46.7 47.4,46.7 "
   id="polygon14"
   style="stroke:none;stroke-opacity:1;fill:#ffffff;fill-opacity:1;stroke-width:1.00002642;stroke-dasharray:none"
   transform="matrix(0.61998362,0,0,0.61998362,10.684684,10.805897)" /><polygon
   class="st5"
   points="53.4,44.1 55.8,44.1 54.3,46.7 51.8,46.7 "
   id="polygon15"
   style="stroke:none;stroke-opacity:1;fill:#ffffff;fill-opacity:1;stroke-width:1.00002642;stroke-dasharray:none"
   transform="matrix(0.61998362,0,0,0.61998362,10.684684,10.805897)" /><path
   class="st6"
   d="m 36.290008,44.285012 h 6.633824 c 0.37199,0 0.681982,-0.309991 0.681982,-0.681982 v -2.107944 c 0,-0.37199 -0.309992,-0.681982 -0.681982,-0.681982 h -6.633824 c -0.371991,0 -0.681982,0.309992 -0.681982,0.681982 v 2.107944 c -0.062,0.371991 0.247993,0.681982 0.681982,0.681982 z"
   id="path16"
   style="fill:url(#SVGID_5_);stroke:none;stroke-width:0.619984;stroke-opacity:1" /><polygon
   class="st5"
   points="40.2,42.9 42.5,42.3 40.3,40.2 38,40.8 "
   id="polygon17"
   style="stroke:none;stroke-opacity:1;fill:#ffffff;fill-opacity:1;stroke-width:1.00002642;stroke-dasharray:none"
   transform="matrix(0.61998362,0,0,0.61998362,10.684684,10.805897)" /><polygon
   class="st5"
   points="44.3,41.8 46.7,41.1 44.5,39 42.1,39.7 "
   id="polygon18"
   style="stroke:none;stroke-opacity:1;fill:#ffffff;fill-opacity:1;stroke-width:1.00002642;stroke-dasharray:none"
   transform="matrix(0.61998362,0,0,0.61998362,10.684684,10.805897)" /><polygon
   class="st5"
   points="48.5,40.6 50.8,40 48.6,37.9 46.3,38.5 "
   id="polygon19"
   style="stroke:none;stroke-opacity:1;fill:#ffffff;fill-opacity:1;stroke-width:1.00002642;stroke-dasharray:none"
   transform="matrix(0.61998362,0,0,0.61998362,10.684684,10.805897)" /><polygon
   class="st5"
   points="52.7,39.4 55.1,38.8 52.9,36.7 50.5,37.3 "
   id="polygon20"
   style="stroke:none;stroke-opacity:1;fill:#ffffff;fill-opacity:1;stroke-width:1.00002642;stroke-dasharray:none"
   transform="matrix(0.61998362,0,0,0.61998362,10.684684,10.805897)" />&#10;<circle
   class="st4"
   cx="32.011898"
   cy="32.159004"
   r="21.1"
   id="circle8"
   style="fill:none;stroke:url(#SVGID_4_-0);stroke-width:3;stroke-miterlimit:10;stroke-dasharray:3, 3;stroke-dashoffset:0" /></svg>
