<?xml version="1.0" encoding="UTF-8"?>
<!DOCTYPE svg PUBLIC "-//W3C//DTD SVG 1.1//EN" "http://www.w3.org/Graphics/SVG/1.1/DTD/svg11.dtd">
<svg xmlns="http://www.w3.org/2000/svg" version="1.1" width="16px" height="16px" style="shape-rendering:geometricPrecision; text-rendering:geometricPrecision; image-rendering:optimizeQuality; fill-rule:evenodd; clip-rule:evenodd" xmlns:xlink="http://www.w3.org/1999/xlink">
<g><path style="opacity:0.278" fill="#464646" d="M 6.5,0.5 C 6.57298,2.02694 5.90632,3.02694 4.5,3.5C 4.42702,1.97306 5.09368,0.973056 6.5,0.5 Z"/></g>
<g><path style="opacity:1" fill="#d5d5d5" d="M 6.5,-0.5 C 7.16667,-0.5 7.83333,-0.5 8.5,-0.5C 8.5,-0.166667 8.5,0.166667 8.5,0.5C 9.81545,5.83598 7.81545,8.50264 2.5,8.5C 1.60895,7.89022 0.608953,7.55688 -0.5,7.5C -0.5,6.5 -0.5,5.5 -0.5,4.5C 1.2161,4.37133 2.88277,4.038 4.5,3.5C 5.90632,3.02694 6.57298,2.02694 6.5,0.5C 6.5,0.166667 6.5,-0.166667 6.5,-0.5 Z"/></g>
<g><path style="opacity:1" fill="#d7d7d7" d="M 8.5,0.5 C 9.33825,0.841711 9.67158,1.50838 9.5,2.5C 9.82124,4.04814 10.8212,4.71481 12.5,4.5C 13.5,4.5 14.5,4.5 15.5,4.5C 15.5,5.16667 15.5,5.83333 15.5,6.5C 14.5416,6.9528 13.7083,7.61947 13,8.5C 12.5034,10.8098 12.3367,13.1432 12.5,15.5C 11.8333,15.5 11.1667,15.5 10.5,15.5C 8.24962,12.9659 5.91629,12.9659 3.5,15.5C 3.16667,15.5 2.83333,15.5 2.5,15.5C 2.5,13.1667 2.5,10.8333 2.5,8.5C 7.81545,8.50264 9.81545,5.83598 8.5,0.5 Z"/></g>
<g><path style="opacity:0.02" fill="#292929" d="M 9.5,2.5 C 10.7095,2.93205 11.7095,3.59872 12.5,4.5C 10.8212,4.71481 9.82124,4.04814 9.5,2.5 Z"/></g>
<g><path style="opacity:0.573" fill="#333333" d="M -0.5,8.5 C -0.5,8.16667 -0.5,7.83333 -0.5,7.5C 0.608953,7.55688 1.60895,7.89022 2.5,8.5C 2.5,10.8333 2.5,13.1667 2.5,15.5C 2.16667,15.5 1.83333,15.5 1.5,15.5C 1.66212,13.4727 1.49546,11.4727 1,9.5C 0.617425,8.94404 0.117425,8.61071 -0.5,8.5 Z"/></g>
<g><path style="opacity:0.044" fill="#101010" d="M 15.5,6.5 C 15.5,7.5 15.5,8.5 15.5,9.5C 13.6921,10.9179 13.0254,12.9179 13.5,15.5C 13.1667,15.5 12.8333,15.5 12.5,15.5C 12.3367,13.1432 12.5034,10.8098 13,8.5C 13.7083,7.61947 14.5416,6.9528 15.5,6.5 Z"/></g>
<g><path style="opacity:0.08" fill="#141414" d="M 10.5,15.5 C 8.16667,15.5 5.83333,15.5 3.5,15.5C 5.91629,12.9659 8.24962,12.9659 10.5,15.5 Z"/></g>
</svg>
