<?xml version="1.0" encoding="UTF-8"?>
<!DOCTYPE svg PUBLIC "-//W3C//DTD SVG 1.1//EN" "http://www.w3.org/Graphics/SVG/1.1/DTD/svg11.dtd">
<svg xmlns="http://www.w3.org/2000/svg" version="1.1" width="16px" height="16px" style="shape-rendering:geometricPrecision; text-rendering:geometricPrecision; image-rendering:optimizeQuality; fill-rule:evenodd; clip-rule:evenodd" xmlns:xlink="http://www.w3.org/1999/xlink">
<g><path style="opacity:0.661" fill="#fefffe" d="M 1.5,-0.5 C 2.16667,-0.5 2.83333,-0.5 3.5,-0.5C 5.99762,4.33228 8.99762,4.66561 12.5,0.5C 13.3081,0.807619 13.9747,1.30762 14.5,2C 12.981,3.35131 11.6477,4.85131 10.5,6.5C 11.8333,8.16667 13.1667,9.83333 14.5,11.5C 11.4553,14.1706 9.12194,13.504 7.5,9.5C 5.51708,10.982 3.68375,12.6487 2,14.5C 1.2917,13.6195 0.458367,12.9528 -0.5,12.5C -0.5,11.8333 -0.5,11.1667 -0.5,10.5C 1.29585,9.20733 2.96252,7.70733 4.5,6C 1.59295,4.37698 0.592954,2.21032 1.5,-0.5 Z"/></g>
</svg>
