<svg width="21" height="21" viewBox="0 0 21 21" fill="none" xmlns="http://www.w3.org/2000/svg">
<path d="M6.66834 14.4456L3.92773 17.088L4.82481 17.9851L7.46573 15.243L9.16021 16.9375L9.45923 12.4521L4.97386 12.7512L6.66834 14.4456Z" fill="#C0C0C0"/>
<path d="M15.2321 14.2899L17.9727 16.9322L17.0756 17.8293L14.4347 15.0873L12.7402 16.7817L12.4412 12.2964L16.9265 12.5954L15.2321 14.2899Z" fill="#C0C0C0"/>
<path d="M6.66834 7.87809L3.92773 5.23574L4.82481 4.33867L7.46573 7.0807L9.16021 5.38622L9.45923 9.87158L4.97386 9.57257L6.66834 7.87809Z" fill="#C0C0C0"/>
<path d="M15.2321 8.03385L17.9727 5.3915L17.0756 4.49443L14.4347 7.23646L12.7402 5.54198L12.4412 10.0273L16.9265 9.72833L15.2321 8.03385Z" fill="#C0C0C0"/>
</svg>
