<svg width="21" height="21" viewBox="0 0 21 21" fill="none" xmlns="http://www.w3.org/2000/svg">
<path d="M15.623 6.34232L16.0718 7.0249L19.1328 5.01224L18.684 4.32966L15.623 6.34232Z" fill="#C0C0C0"/>
<path d="M18.5015 11.8369L11.5015 6.83691V1.83691L18.5015 5.83691V11.8369Z" fill="#919191"/>
<path d="M11.9413 8.84964L12.3901 9.53223L15.4512 7.51956L15.0024 6.83698L11.9413 8.84964Z" fill="#C0C0C0"/>
<path d="M14.0327 15.3604L7.03271 10.3604V5.36035L14.0327 9.36035V15.3604Z" fill="white"/>
<path d="M7.27531 11.9825L7.72412 12.665L10.7851 10.6524L10.3363 9.96979L7.27531 11.9825Z" fill="#C0C0C0"/>
<path d="M9.16748 18.269L2.16748 13.269V8.26904L9.16748 12.269V18.269Z" fill="#919191"/>
<path d="M2.38664 14.6778L2.83545 15.3604L5.89647 13.3477L5.44767 12.6651L2.38664 14.6778Z" fill="#C0C0C0"/>
</svg>
