<svg width="21" height="21" viewBox="0 0 21 21" fill="none" xmlns="http://www.w3.org/2000/svg">
<path fill-rule="evenodd" clip-rule="evenodd" d="M4.07959 4.09612C4.07959 4.01933 4.10944 3.9425 4.15891 3.88853C4.20245 3.84104 4.26796 3.80273 4.37298 3.80273H7.07959V6.80273H4.07959V4.09612ZM8.07959 6.80273V3.80273H11.0796V6.80273H8.07959ZM12.0796 6.80273V3.80273H14.7862C14.863 3.80273 14.9398 3.83258 14.9938 3.88206C15.0413 3.92559 15.0796 3.9911 15.0796 4.09612V6.80273H12.0796ZM12.0796 7.80273H15.0796V8.47463H16.0796V4.09612C16.0796 3.28405 15.4172 2.80273 14.7862 2.80273H4.37298C3.56091 2.80273 3.07959 3.46513 3.07959 4.09612V14.5093C3.07959 15.3214 3.74199 15.8027 4.37298 15.8027H9.48975V14.8027H8.07959V11.8027H9.48975V10.8027H8.07959V7.80273H11.0796V8.51673C11.212 8.48913 11.3492 8.47463 11.4897 8.47463H12.0796V7.80273ZM7.07959 11.8027V14.8027H4.37298C4.29619 14.8027 4.21936 14.7729 4.16539 14.7234C4.11789 14.6799 4.07959 14.6144 4.07959 14.5093V11.8027H7.07959ZM7.07959 10.8027H4.07959V7.80273H7.07959V10.8027Z" fill="white"/>
<path d="M12.4255 13.3027V11.5903C12.4226 11.4016 12.4611 11.2143 12.5387 11.0394C12.6163 10.8646 12.7314 10.7057 12.8772 10.5723C13.023 10.4388 13.1966 10.3335 13.3877 10.2625C13.5788 10.1915 13.7835 10.1563 13.9897 10.1589C14.1957 10.1572 14.4 10.1931 14.5906 10.2644C14.7813 10.3357 14.9545 10.441 15.1001 10.5743C15.2457 10.7075 15.3609 10.8661 15.4389 11.0405C15.5168 11.215 15.5559 11.4019 15.554 11.5903V13.3027H16.4897V11.5903C16.4879 10.9841 16.2239 10.4033 15.7554 9.97468C15.287 9.54605 14.6522 9.30446 13.9897 9.30273C13.3273 9.30446 12.6925 9.54605 12.224 9.97468C11.7556 10.4033 11.4916 10.9841 11.4897 11.5903V13.3027H12.4255Z" fill="white"/>
<path d="M17.0125 13.3027H10.967C10.841 13.3042 10.7205 13.3498 10.6314 13.4299C10.5422 13.51 10.4914 13.6181 10.4897 13.7313V16.8742C10.4914 16.9874 10.5422 17.0955 10.6314 17.1756C10.7205 17.2556 10.841 17.3013 10.967 17.3027H17.0125C17.1385 17.3013 17.259 17.2556 17.3481 17.1756C17.4373 17.0955 17.4881 16.9874 17.4897 16.8742V13.7313C17.4881 13.6181 17.4373 13.51 17.3481 13.4299C17.259 13.3498 17.1385 13.3042 17.0125 13.3027ZM14.1488 16.1599H13.8307C13.7463 16.1599 13.6653 16.1298 13.6057 16.0762C13.546 16.0226 13.5125 15.9499 13.5125 15.8742V14.7313C13.5125 14.6555 13.546 14.5829 13.6057 14.5293C13.6653 14.4757 13.7463 14.4456 13.8307 14.4456H14.1488C14.2332 14.4456 14.3142 14.4757 14.3738 14.5293C14.4335 14.5829 14.467 14.6555 14.467 14.7313V15.8742C14.467 15.9499 14.4335 16.0226 14.3738 16.0762C14.3142 16.1298 14.2332 16.1599 14.1488 16.1599Z" fill="white"/>
</svg>
