<svg width="21" height="21" viewBox="0 0 21 21" fill="none" xmlns="http://www.w3.org/2000/svg">
<path fill-rule="evenodd" clip-rule="evenodd" d="M3.33154 4.16351C3.33154 4.08672 3.36139 4.00988 3.41086 3.95591C3.4544 3.90842 3.51991 3.87012 3.62493 3.87012H6.33154V6.87012H3.33154V4.16351ZM7.33154 6.87012V3.87012H10.3315V6.87012H7.33154ZM11.3315 6.87012V3.87012H14.0382C14.1149 3.87012 14.1918 3.89997 14.2457 3.94944C14.2932 3.99298 14.3315 4.05848 14.3315 4.16351V6.87012H11.3315ZM11.3315 7.87012H14.3315V8.99956C14.6343 9.02508 14.9724 9.06853 15.3315 9.12911V4.16351C15.3315 3.35143 14.6691 2.87012 14.0382 2.87012H3.62493C2.81286 2.87012 2.33154 3.53251 2.33154 4.16351V14.5767C2.33154 15.3888 2.99394 15.8701 3.62493 15.8701H6.2739C6.13969 15.5581 6.05066 15.222 6.01506 14.8701H3.62493C3.54814 14.8701 3.47131 14.8403 3.41734 14.7908C3.36984 14.7473 3.33154 14.6818 3.33154 14.5767V11.8701H6.33154V13.0835C6.40496 12.9396 6.49075 12.8014 6.58918 12.6705C6.98401 12.1454 7.53986 11.4574 8.14213 10.8701H7.33154V7.87012H10.3315V9.54188C10.6909 9.42472 11.0182 9.32628 11.3315 9.24588V7.87012ZM6.33154 10.8701H3.33154V7.87012H6.33154V10.8701Z" fill="white"/>
<path d="M13.3732 10.7729C10.142 10.7729 7.98779 14.0042 7.98779 14.0042C7.98779 14.0042 10.142 17.2354 13.3732 17.2354C16.6044 17.2354 18.7586 14.0042 18.7586 14.0042C18.7586 14.0042 16.6044 10.7729 13.3732 10.7729Z" stroke="white" stroke-width="0.696944" stroke-miterlimit="10"/>
<path d="M13.3884 15.7993C12.3975 15.7993 11.5933 14.995 11.5933 14.0041C11.5933 13.0132 12.3975 12.209 13.3884 12.209C14.3793 12.209 15.1835 13.0132 15.1835 14.0041C15.1835 14.995 14.3793 15.7993 13.3884 15.7993Z" fill="white"/>
</svg>
