<svg width="21" height="21" viewBox="0 0 21 21" fill="none" xmlns="http://www.w3.org/2000/svg">
<path d="M5.06865 10.8312L3.06348 9.26859L4.27175 9.26859C5.20622 4.36493 8.05541 2.56504 10.4779 2.34738C12.1289 2.19906 14.1439 2.74716 14.6968 3.63512L13.5557 3.63512C12.2455 3.06492 10.0546 2.66656 7.95401 4.4858C6.3846 5.84499 5.88897 8.21532 5.74728 9.26859L6.98539 9.26859L5.06865 10.8312Z" fill="white"/>
<path d="M7.37225 16.512C5.932 15.0349 5.99409 13.1442 5.8524 12.091L3.96975 12.091C4.90422 16.9946 8.19599 18.7979 10.0422 18.7979C12.6524 18.7979 13.3669 18.3687 14.6987 17.3817L13.0495 17.3817C11.9369 18.1185 9.38605 18.5772 7.37225 16.512Z" fill="white"/>
<rect x="7.94678" y="7.81348" width="6.0519" height="6.0519" rx="1" fill="white"/>
<path d="M14.6714 10.5031L17.3611 8.48584V13.1929L14.6714 11.1756V10.5031Z" fill="white"/>
</svg>
