<svg width="21" height="21" viewBox="0 0 21 21" fill="none" xmlns="http://www.w3.org/2000/svg">
<g clip-path="url(#clip0_1162_48243)">
<rect x="5.33716" y="4.58154" width="4.45576" height="4.45576" rx="1" fill="white"/>
<path d="M10.2883 6.56191L12.2687 5.07666V8.54225L10.2883 7.057V6.56191Z" fill="white"/>
<path fill-rule="evenodd" clip-rule="evenodd" d="M12.3187 1.48677C13.6192 2.39058 14.5438 3.73924 14.9179 5.27812L14.8408 5.29688H14.1308C13.777 4.00772 12.9817 2.88139 11.8811 2.11647C10.7345 1.3196 9.33577 0.970107 7.94908 1.13398C6.5624 1.29785 5.28369 1.96375 4.3544 3.00595C3.42511 4.04814 2.90954 5.39451 2.90505 6.79084C2.90056 8.18717 3.40744 9.53682 4.33001 10.585C5.25257 11.6331 6.52697 12.3072 7.91257 12.48C9.29817 12.6528 10.6991 12.3123 11.8508 11.5229C12.9495 10.7697 13.7489 9.6577 14.1141 8.38083H13.0019L14.5147 6.92234L15.8223 8.38083H14.9079C14.5239 9.91728 13.5907 11.26 12.2844 12.1554C10.9781 13.0508 9.38921 13.437 7.81768 13.241C6.24615 13.045 4.80075 12.2804 3.75439 11.0916C2.70803 9.90283 2.13312 8.37206 2.13822 6.78837C2.14331 5.20467 2.72806 3.67764 3.78205 2.4956C4.83604 1.31356 6.28633 0.558304 7.85909 0.372443C9.43185 0.186581 11.0182 0.582973 12.3187 1.48677Z" fill="white"/>
<path d="M19.5889 15.8381L19.5889 15.8382C19.6188 16.0074 19.5051 16.1658 19.341 16.1946L19.3411 16.1946L19.3322 16.1453L19.3409 16.1946L19.5889 15.8381ZM19.5889 15.8381L19.3291 14.394C19.2991 14.2272 19.1394 14.1161 18.9726 14.1462L19.5889 15.8381ZM17.8971 16.4543L17.8882 16.4051L17.897 16.4543M17.8971 16.4543L12.919 15.838M17.8971 16.4543C17.897 16.4543 17.897 16.4543 17.897 16.4543M17.8971 16.4543L17.897 16.4543M17.897 16.4543C17.7305 16.4844 17.5706 16.3737 17.5405 16.2065C17.5105 16.0397 17.6214 15.88 17.7883 15.85L18.4066 15.7388L16.2539 14.4959L14.1012 15.7388L14.7196 15.85C14.8864 15.88 14.9974 16.0397 14.9674 16.2065C14.9373 16.3737 14.7773 16.4844 14.6108 16.4543M14.6108 16.4543L14.6197 16.4051L14.6108 16.4543L14.6108 16.4543ZM14.6108 16.4543L13.1668 16.1946L13.1668 16.1946C12.9996 16.1645 12.8891 16.0039 12.919 15.838M12.919 15.838L13.1788 14.394C13.2088 14.2271 13.3685 14.1161 13.5353 14.1462M12.919 15.838L13.5353 14.1462M13.5353 14.1462C13.5353 14.1462 13.5353 14.1462 13.5353 14.1462L13.5264 14.1954L13.5353 14.1462ZM16.4357 10.2476L16.471 10.2123L16.471 10.2123L17.5085 11.2498C17.6284 11.3697 17.6284 11.564 17.5085 11.6839C17.3886 11.8038 17.1942 11.8039 17.0743 11.6839L16.5609 11.1706V13.9642L16.0368 10.2123L16.0722 10.2476M16.4357 10.2476C16.3353 10.1473 16.1726 10.1473 16.0722 10.2476M16.4357 10.2476L17.4731 11.2851C17.5735 11.3855 17.5735 11.5482 17.4731 11.6486L16.4357 10.2476ZM16.0722 10.2476L16.0368 10.2123L14.9994 11.2498M16.0722 10.2476L15.0347 11.2851M15.0347 11.2851L14.9994 11.2498M15.0347 11.2851L14.9994 11.2498M15.0347 11.2851C14.9343 11.3855 14.9343 11.5482 15.0347 11.6486L14.9994 11.2498M14.9994 11.2498C14.9994 11.2498 14.9994 11.2498 14.9994 11.2498M14.9994 11.2498L14.9994 11.6839C14.8795 11.564 14.8795 11.3696 14.9994 11.2498M15.9469 11.1706L15.4335 11.6839L15.4335 11.6839L15.3982 11.6486L15.9469 11.1706ZM15.9469 11.1706V13.9642L13.6404 15.2958L15.9469 11.1706Z" fill="white" stroke="white" stroke-width="0.1"/>
</g>
<defs>
<clipPath id="clip0_1162_48243">
<rect width="20" height="20" fill="white" transform="translate(0.593262 20.0527) rotate(-90)"/>
</clipPath>
</defs>
</svg>
