<svg width="21" height="21" viewBox="0 0 21 21" fill="none" xmlns="http://www.w3.org/2000/svg">
<path opacity="0.5" d="M15.225 11.5311L12.1616 13.3691V3.41309L15.225 6.01697V11.5311Z" fill="white"/>
<path d="M6.03467 5.32771V11.8374L12.1615 13.3691V3.41309L6.03467 5.32771Z" fill="white"/>
<path d="M10.7935 15.228L9.19372 16.6928V15.6389C4.17328 15.1571 2.12343 13.2286 1.9006 11.9795C1.74874 11.1284 2.68345 10.331 3.59255 10.0459V10.6218C2.52586 11.136 2.553 12.5103 4.66744 13.5486C6.17967 14.2912 8.11537 14.5952 9.19372 14.6682V13.7404L10.7935 15.228Z" fill="white"/>
<path d="M16.6094 13.7654C15.0972 14.508 13.1615 14.812 12.0831 14.8851V15.8557C17.1035 15.3739 19.0024 13.3944 19.1713 12.4463C19.4081 11.1172 18.2532 10.5478 17.3441 10.2627V10.8386C18.5277 11.3344 18.7238 12.7271 16.6094 13.7654Z" fill="white"/>
</svg>
