<svg width="21" height="21" viewBox="0 0 21 21" fill="none" xmlns="http://www.w3.org/2000/svg">
<rect x="5.92139" y="5.81348" width="6.0519" height="6.0519" rx="1" fill="white"/>
<path d="M12.646 8.50314L15.3357 6.48584V11.1929L12.646 9.17557V8.50314Z" fill="white"/>
<path d="M10.7935 15.2275L9.19372 16.6923V15.6384C4.17328 15.1566 2.12343 13.2281 1.9006 11.9791C1.74874 11.1279 2.68345 10.3305 3.59255 10.0454V10.6213C2.52586 11.1355 2.553 12.5098 4.66744 13.5481C6.17967 14.2907 8.11537 14.5947 9.19372 14.6677V13.7399L10.7935 15.2275Z" fill="white"/>
<path d="M16.6094 13.7649C15.0972 14.5075 13.1615 14.8115 12.0831 14.8846V15.8552C17.1035 15.3734 19.0024 13.3939 19.1713 12.4458C19.4081 11.1167 18.2532 10.5473 17.3441 10.2622V10.8381C18.5277 11.334 18.7238 12.7267 16.6094 13.7649Z" fill="white"/>
</svg>
