<svg width="21" height="21" viewBox="0 0 21 21" fill="none" xmlns="http://www.w3.org/2000/svg">
<path d="M14.8741 2.74414V6.02323H11.595L14.8741 2.74414Z" fill="white"/>
<path d="M5.94755 7.90527H2.73779V11.115L5.94755 7.90527Z" fill="white"/>
<path d="M3.63037 8.43164C4.23946 10.665 6.37126 12.3907 8.80761 12.3907C11.244 12.3907 13.3758 10.7665 13.9848 8.43164" stroke="white" stroke-miterlimit="10" stroke-linecap="round"/>
<path d="M13.9848 5.38631C13.3758 3.15299 11.244 1.42725 8.80761 1.42725C6.37126 1.42725 4.23946 3.15299 3.63037 5.38631" stroke="white" stroke-miterlimit="10" stroke-linecap="round"/>
<path d="M19.4923 17.6025L19.4923 17.6026C19.5279 17.8041 19.3925 17.9928 19.1971 18.0271L19.1971 18.0271L19.1883 17.9779L19.1969 18.0271L19.4923 17.6025ZM19.4923 17.6025L19.1732 15.8288M19.4923 17.6025L19.1732 15.8288M17.4235 18.3462L17.4146 18.297L17.4235 18.3462M17.4235 18.3462L11.3225 17.6024M17.4235 18.3462C17.4235 18.3462 17.4235 18.3462 17.4235 18.3462M17.4235 18.3462L17.4235 18.3462M17.4235 18.3462C17.2251 18.3819 17.0347 18.2501 16.9989 18.051C16.9631 17.8522 17.0952 17.6621 17.294 17.6264L18.0842 17.4842L15.4074 15.9388L12.7307 17.4842L13.5208 17.6264C13.7196 17.6621 13.8517 17.8522 13.8159 18.051C13.7801 18.2501 13.5896 18.3819 13.3913 18.3462M13.3913 18.3462L13.4002 18.297M13.3913 18.3462L13.3913 18.3462L13.4002 18.297M13.3913 18.3462L11.6177 18.0271L11.6176 18.0271C11.4186 17.9912 11.2869 17.7999 11.3225 17.6024M13.4002 18.297L11.6265 17.9779L13.5119 17.6756C13.6835 17.7064 13.7976 17.8706 13.7667 18.0422C13.7358 18.2141 13.5713 18.3278 13.4002 18.297ZM11.3225 17.6024L11.6416 15.8288C11.6774 15.63 11.8676 15.4978 12.0663 15.5337M11.3225 17.6024L12.0663 15.5337M12.0663 15.5337L12.0574 15.5829L12.0662 15.5337C12.0662 15.5337 12.0662 15.5337 12.0663 15.5337ZM12.0663 15.5337C12.265 15.5694 12.3972 15.7595 12.3614 15.9583L12.1818 16.9566L15.0417 15.3054V11.8401M12.0663 15.5337L18.633 16.9566M19.1732 15.8288C19.1375 15.6301 18.9473 15.4977 18.7485 15.5337M19.1732 15.8288L18.7485 15.5337M18.7485 15.5337C18.5498 15.5694 18.4176 15.7596 18.4534 15.9583M18.7485 15.5337C18.7485 15.5337 18.7485 15.5337 18.7486 15.5337L18.7574 15.5829L18.4534 15.9583M18.4534 15.9583L18.633 16.9566M18.4534 15.9583L18.633 16.9566M18.633 16.9566L15.7731 15.3054V11.8401L16.4231 12.4901C16.5659 12.6329 16.7974 12.6329 16.9402 12.4901C17.0831 12.3473 17.083 12.1158 16.9402 11.973L15.666 10.6987C15.5232 10.5559 15.2916 10.5559 15.1488 10.6987C15.1488 10.6987 15.1488 10.6987 15.1488 10.6987L13.8746 11.973L13.8746 11.973L13.9099 12.0083M13.9099 12.0083C13.7866 12.1316 13.7866 12.3315 13.9099 12.4547L13.8745 12.4901C13.8745 12.4901 13.8745 12.4901 13.8745 12.4901C14.0174 12.6329 14.2489 12.6329 14.3917 12.4901M13.9099 12.0083L15.1842 10.7341L13.9099 12.0083ZM14.3917 12.4901L14.3917 12.4901L14.3563 12.4548L14.3917 12.4901ZM14.3917 12.4901L15.0417 11.8401M15.0417 11.8401L15.0917 11.7901L15.0417 11.7694V11.8401Z" fill="white" stroke="white" stroke-width="0.1"/>
</svg>
