<svg width="21" height="21" viewBox="0 0 21 21" fill="none" xmlns="http://www.w3.org/2000/svg">
<path d="M16.326 10.5991L18.5868 12.1617L17.065 12.1617C16.1984 17.0653 13.5563 18.8652 11.3097 19.0829C9.77879 19.2312 7.5181 18.5205 7.00537 17.6325L8.04121 17.6325C10.0485 18.4797 11.7828 19.0097 13.6503 16.9444C14.9859 15.4674 15.5653 13.2149 15.6967 12.1617L14.275 12.1617L16.326 10.5991Z" fill="white"/>
<path d="M14.1896 4.91818C15.5252 6.39523 15.5784 8.28591 15.7098 9.33918L17.4556 9.33918C16.5891 4.43552 13.6182 2.52244 11.9129 2.35744C9.52245 2.12613 7.90872 3.31258 7.396 4.20054L8.92536 4.20054C9.81717 3.04447 12.3221 2.85292 14.1896 4.91818Z" fill="white"/>
<path opacity="0.5" d="M13.0821 13.8291L10.0444 15.6517V5.7793L13.0821 8.3613V13.8291Z" fill="white"/>
<path d="M3.96826 7.67783V14.1328L10.0436 15.6517V5.7793L3.96826 7.67783Z" fill="white"/>
</svg>
