<svg width="21" height="21" viewBox="0 0 21 21" fill="none" xmlns="http://www.w3.org/2000/svg">
<path fill-rule="evenodd" clip-rule="evenodd" d="M17.8348 8.17219C17.3753 6.28207 16.2397 4.62558 14.6424 3.5155C13.045 2.40541 11.0966 1.91855 9.16485 2.14683C7.23313 2.37511 5.45182 3.30275 4.15727 4.75458C3.27638 5.74249 2.66235 6.92659 2.35791 8.19531H3.30422V8.29303C3.58199 7.22056 4.1119 6.22068 4.86025 5.38141C6.00164 4.10134 7.5722 3.28346 9.27539 3.08218C10.9786 2.88091 12.6965 3.31017 14.1048 4.28892C15.4567 5.22845 16.4335 6.61188 16.868 8.19531H17.7397L17.8348 8.17219ZM4.12329 15.3126C3.26033 14.3321 2.65846 13.1623 2.35802 11.9106H3.30422V11.8125C3.57816 12.8702 4.09746 13.8577 4.83029 14.6903C5.96343 15.9777 7.52869 16.8056 9.23054 17.0179C10.9324 17.2301 12.6531 16.8119 14.0677 15.8422C15.4172 14.9172 16.399 13.5514 16.8476 11.9831H15.7184L17.4331 10.6856L18.7287 11.9831H17.8225C17.3509 13.8702 16.2046 15.5193 14.6002 16.6191C12.9958 17.7189 11.0442 18.1932 9.11399 17.9525C7.18377 17.7118 5.40847 16.7727 4.12329 15.3126Z" fill="white"/>
<rect x="5.66748" y="7.02686" width="6.0519" height="6.0519" rx="1" fill="white"/>
<path d="M12.3921 9.71652L15.0818 7.69922V12.4062L12.3921 10.389V9.71652Z" fill="white"/>
</svg>
