<svg width="21" height="21" viewBox="0 0 21 21" fill="none" xmlns="http://www.w3.org/2000/svg">
<path d="M11.2319 12.3103V11.4909V10.6714L13.5148 10.6723C15.3659 10.673 15.9395 10.7597 16.5471 11.1303C18.6002 12.382 18.6002 15.7508 16.5471 17.0025C15.9395 17.3731 15.3659 17.4597 13.5148 17.4604L11.2319 17.4614V16.6419V15.8224H13.2326C15.0449 15.8224 15.2877 15.7683 15.8082 15.2476C16.5408 14.5152 16.5408 13.6175 15.8082 12.8852C15.2877 12.3644 15.0449 12.3103 13.2326 12.3103H11.2319Z" fill="white"/>
<path fill-rule="evenodd" clip-rule="evenodd" d="M3.89404 3.93694C3.89404 3.86015 3.92389 3.78332 3.97336 3.72935C4.0169 3.68186 4.08241 3.64355 4.18743 3.64355H6.89404V6.64355H3.89404V3.93694ZM7.89404 6.64355V3.64355H10.894V6.64355H7.89404ZM11.894 6.64355V3.64355H14.6007C14.6774 3.64355 14.7543 3.6734 14.8082 3.72288C14.8557 3.76641 14.894 3.83192 14.894 3.93694V6.64355H11.894ZM11.894 7.64355H14.894V8.53418H15.894V3.93694C15.894 3.12487 15.2316 2.64355 14.6007 2.64355H4.18743C3.37536 2.64355 2.89404 3.30595 2.89404 3.93694V14.3502C2.89404 15.1622 3.55644 15.6436 4.18743 15.6436H9.10693V14.6436H7.89404V11.6436H9.10693V10.6436H7.89404V7.64355H10.894V8.53418H11.894V7.64355ZM6.89404 11.6436V14.6436H4.18743C4.11064 14.6436 4.03381 14.6137 3.97984 14.5642C3.93234 14.5207 3.89404 14.4552 3.89404 14.3502V11.6436H6.89404ZM6.89404 10.6436H3.89404V7.64355H6.89404V10.6436Z" fill="white"/>
</svg>
