<svg width="21" height="21" viewBox="0 0 21 21" fill="none" xmlns="http://www.w3.org/2000/svg">
<path d="M9.37314 13.1726L8.37314 12.1726C6.37314 10.1726 5.97314 8.00254 7.37314 6.59254C8.77314 5.18254 10.8231 5.45242 12.8531 7.47242L13.9632 8.58228L15.9032 6.64234L14.9032 5.64234C11.9032 2.64234 8.31313 2.13228 5.61313 4.83228C2.91313 7.53228 3.39318 11.0923 6.42318 14.1223L7.42318 15.1223L9.37314 13.1726Z" fill="white"/>
<path d="M16.9265 7.63356L14.8052 9.75488L16.2194 11.1691L18.3407 9.04778L16.9265 7.63356Z" fill="white"/>
<path d="M10.5574 14.0017L8.43604 16.123L9.85025 17.5373L11.9716 15.4159L10.5574 14.0017Z" fill="white"/>
</svg>
