<svg width="17" height="17" viewBox="0 0 17 17" fill="none" xmlns="http://www.w3.org/2000/svg">
<rect x="1.90381" y="1.89014" width="2.76432" height="1.38216" fill="white"/>
<rect x="3.28467" y="1.89014" width="2.76432" height="1.38216" transform="rotate(90 3.28467 1.89014)" fill="white"/>
<rect x="14.1128" y="1.89062" width="2.76432" height="1.38216" transform="rotate(90 14.1128 1.89062)" fill="white"/>
<rect x="14.1128" y="3.27246" width="2.76432" height="1.38216" transform="rotate(-180 14.1128 3.27246)" fill="white"/>
<rect x="1.90381" y="11.5649" width="2.76432" height="1.38216" transform="rotate(-90 1.90381 11.5649)" fill="white"/>
<rect x="1.90381" y="10.1826" width="2.76432" height="1.38216" fill="white"/>
<path d="M8.33545 9.06426V8.24477V7.42529L10.6183 7.42623C12.4694 7.42693 13.043 7.51356 13.6506 7.8842C15.7038 9.1359 15.7038 12.5047 13.6506 13.7564C13.043 14.127 12.4694 14.2136 10.6183 14.2143L8.33545 14.2153V13.3958V12.5763H10.3362C12.1484 12.5763 12.3912 12.5222 12.9117 12.0015C13.6443 11.2691 13.6443 10.3714 12.9117 9.63906C12.3912 9.11834 12.1484 9.06426 10.3362 9.06426H8.33545Z" fill="white"/>
</svg>
