<svg width="17" height="17" viewBox="0 0 17 17" fill="none" xmlns="http://www.w3.org/2000/svg">
<path fill-rule="evenodd" clip-rule="evenodd" d="M3.89453 9.51157C4.7872 10.4042 5.99795 10.9057 7.26038 10.9057C7.689 10.9071 8.11203 10.8506 8.51895 10.7405V11.504C7.98052 11.6888 7.41045 11.7858 6.83038 11.7858C5.45126 11.7858 4.12863 11.2379 3.15344 10.2627C2.17825 9.28751 1.63037 7.96486 1.63037 6.58574C1.63037 5.20661 2.17825 3.88397 3.15344 2.90878C4.12863 1.93359 5.45126 1.38574 6.83038 1.38574H7.05035C5.82467 1.43987 4.66727 1.96516 3.81952 2.85204C2.97177 3.73891 2.49917 4.91888 2.50037 6.14575C2.50037 7.40818 3.00186 8.61889 3.89453 9.51157Z" fill="white"/>
<path d="M8.86943 5.73594C9.53218 5.73594 10.0694 5.19868 10.0694 4.53594C10.0694 3.8732 9.53218 3.33594 8.86943 3.33594C8.20669 3.33594 7.66943 3.8732 7.66943 4.53594C7.66943 5.19868 8.20669 5.73594 8.86943 5.73594Z" fill="white"/>
<path d="M9.40186 10.3782V9.55874V8.73926L11.6847 8.74019C13.5358 8.7409 14.1094 8.82753 14.717 9.19817C16.7702 10.4499 16.7702 13.8186 14.717 15.0703C14.1094 15.441 13.5358 15.5276 11.6847 15.5283L9.40186 15.5292V14.7098V13.8903H11.4026C13.2148 13.8903 13.4576 13.8362 13.9781 13.3155C14.7107 12.5831 14.7107 11.6854 13.9781 10.953C13.4576 10.4323 13.2148 10.3782 11.4026 10.3782H9.40186Z" fill="white"/>
<path opacity="0.5" fill-rule="evenodd" clip-rule="evenodd" d="M2.58698 2.33304C3.71219 1.20782 5.23829 0.575684 6.82959 0.575684C8.42089 0.575684 9.94702 1.20782 11.0722 2.33304C12.1975 3.45826 12.8296 4.98438 12.8296 6.57568C12.8296 6.91887 12.8002 7.25902 12.7428 7.59277H8.50928V10.5376V11.5538H10.179C9.19611 12.2151 8.03144 12.5757 6.82959 12.5757C5.23829 12.5757 3.71219 11.9435 2.58698 10.8183C1.46176 9.69311 0.82959 8.16698 0.82959 6.57568C0.82959 4.98438 1.46176 3.45826 2.58698 2.33304Z" fill="white"/>
</svg>
