<svg width="16" height="16" viewBox="0 0 16 16" xmlns="http://www.w3.org/2000/svg">
  <path fill="#fff" d="M16 16H0V0h16v16ZM1 15h14V1H1v14Z" opacity=".5"/>
  <path fill="#fff" d="M3 12h6v1H3zm0-9h2.449c.682 0 1.212.194 1.564.59.299.335.46.809.46 1.376v.017c0 .972-.468 1.583-1.15 1.867L7.634 9h-1.38l-1.15-1.927h-.928V9H3V3Zm2.372 2.904c.575 0 .905-.344.905-.852v-.017c0-.568-.353-.86-.928-.86H4.176v1.729h1.196ZM8.474 3h2.093c1.687 0 2.852 1.278 2.852 2.972v.017c0 1.694-1.166 3.01-2.852 3.01H8.474v-6Zm1.181 1.175v3.63h.912c.966 0 1.618-.731 1.618-1.798V5.99c0-1.067-.652-1.815-1.618-1.815h-.912Z"/>
</svg>
