<svg width="16" height="16" viewBox="0 0 16 16" xmlns="http://www.w3.org/2000/svg">
  <path fill="#fff" d="M9.103 14.979C8.76 14.994 8.393 15 8 15c-3.494 0-4.767-.558-5.605-1.396C1.558 12.767 1 11.494 1 8s.558-4.768 1.396-5.604c.188-.188.387-.348.604-.488v1.093h1V0H1v1h1.589a4.647 4.647 0 0 0-.901.688C.473 2.902 0 4.672 0 8s.473 5.098 1.688 6.312C2.903 15.527 4.673 16 8 16c.408 0 .789-.007 1.145-.021l-.042-1Zm5.209-.667C15.527 13.098 16 11.329 16 8s-.473-5.098-1.688-6.312C13.097.473 11.327 0 8 0c-.408 0-.789.007-1.145.021l.042 1C7.24 1.006 7.607 1 8 1c3.494 0 4.767.558 5.605 1.396C14.442 3.233 15 4.506 15 8s-.558 4.768-1.396 5.604a3.628 3.628 0 0 1-.604.488v-1.093h-1v3h3v-1h-1.589c.324-.195.626-.414.901-.688Z"/>
  <path fill="#fff" d="M4 11h5v1H4zm0-7h1.641c.569 0 1.01.162 1.304.491.249.28.383.674.383 1.147v.014c0 .81-.39 1.319-.958 1.555l1.093 1.792h-1.15l-.958-1.606h-.373v1.606h-.98v-5Zm1.577 2.42c.479 0 .754-.287.754-.71v-.014c0-.473-.294-.717-.773-.717H4.98V6.42h.597ZM8 4h1.52c1.33 0 2.149 1.065 2.149 2.477v.014C11.669 7.903 10.85 9 9.52 9H8V4Zm.984.979v3.025h.536c.762 0 1.176-.609 1.176-1.498v-.014c0-.889-.414-1.512-1.176-1.512h-.536Z" opacity=".5"/>
</svg>
