<svg width="16" height="16" viewBox="0 0 16 16" fill="none" xmlns="http://www.w3.org/2000/svg">
<path opacity="0.5" d="M2 14V6H4.5L2.9375 11.0938L2.943 11.0918L2.93988 11.0937C4.23773 12.1323 5.97634 12.5858 8.11933 12.5856C10.263 12.5855 12.3421 11.1541 13.4626 9.76882C13.4626 9.76882 11.3968 10.8156 9.97154 11.1153C8.0183 11.526 6.35284 11.1535 5.08291 10.3331L8.09375 9.26563L11.2812 6H14V14L2 14Z" fill="white"/>
<path d="M2 6.5L2 13.5C2 13.7761 2.22386 14 2.5 14L13.5 14C13.7761 14 14 13.7761 14 13.5L14 6.5C14 6.22386 13.7761 6 13.5 6L11.2812 6L12.3125 5L13.5 5C14.3284 5 15 5.67157 15 6.5L15 13.5C15 14.3284 14.3284 15 13.5 15L2.5 15C1.67157 15 1 14.3284 1 13.5L1 6.5C1 5.67157 1.67157 5 2.5 5L5.53125 5L4.5 6L2.5 6C2.22386 6 2 6.22386 2 6.5Z" fill="white"/>
<path d="M7.50203 8.37502L5.53125 6.40424L11.414 0.519693C11.9739 -0.0404181 12.8845 -0.0322126 13.4342 0.5379V0.5379C13.9719 1.09553 13.9616 1.98179 13.411 2.52672L7.50203 8.37502Z" fill="white"/>
<path d="M3.97266 10.0002L4.92155 7.08057L6.89232 9.05134L3.97266 10.0002Z" fill="white"/>
</svg>
