<?xml version="1.0" encoding="UTF-8" standalone="no"?>
<svg
   width="16"
   height="16"
   viewBox="0 0 16 16"
   fill="none"
   version="1.1"
   id="svg6"
   sodipodi:docname="BroadcastLive.svg"
   inkscape:version="1.2.1 (9c6d41e410, 2022-07-14)"
   xmlns:inkscape="http://www.inkscape.org/namespaces/inkscape"
   xmlns:sodipodi="http://sodipodi.sourceforge.net/DTD/sodipodi-0.dtd"
   xmlns="http://www.w3.org/2000/svg"
   xmlns:svg="http://www.w3.org/2000/svg">
  <defs
     id="defs10" />
  <sodipodi:namedview
     id="namedview8"
     pagecolor="#fcf7f7"
     bordercolor="#000000"
     borderopacity="0.25"
     inkscape:showpageshadow="2"
     inkscape:pageopacity="0"
     inkscape:pagecheckerboard="true"
     inkscape:deskcolor="#d1d1d1"
     showgrid="false"
     inkscape:zoom="64.1875"
     inkscape:cx="5.429406"
     inkscape:cy="8.0311587"
     inkscape:window-width="3840"
     inkscape:window-height="2081"
     inkscape:window-x="2391"
     inkscape:window-y="-9"
     inkscape:window-maximized="1"
     inkscape:current-layer="svg6"
     showguides="true">
    <sodipodi:guide
       position="8.4284323,7.8831548"
       orientation="0,-1"
       id="guide4736"
       inkscape:locked="false" />
    <sodipodi:guide
       position="8.1168452,7.8831548"
       orientation="1,0"
       id="guide4738"
       inkscape:locked="false" />
  </sodipodi:namedview>
  <ellipse
     style="fill:#000000;fill-opacity:0.264535;stroke-width:4.20896;paint-order:stroke fill markers"
     id="path4742"
     cx="8.1012659"
     cy="8.1012659"
     rx="7.3067188"
     ry="7.4469328" />
  <path
     id="path451"
     style="fill:#00ff00;stroke-width:4;paint-order:stroke fill markers"
     d="M 8.0849429,1.4493557 A 6.5900683,6.6835442 0 0 0 1.4950991,8.1329494 6.5900683,6.6835442 0 0 0 8.0849429,14.816543 6.5900683,6.6835442 0 0 0 14.674786,8.1329494 6.5900683,6.6835442 0 0 0 8.0849429,1.4493557 Z m 0.015625,0.7949218 A 5.7643623,5.8889971 0 0 1 13.866192,8.1329494 5.7643623,5.8889971 0 0 1 8.1005679,14.021621 5.7643623,5.8889971 0 0 1 2.336896,8.1329494 5.7643623,5.8889971 0 0 1 8.1005679,2.2442775 Z" />
  <ellipse
     style="fill:#00ff00;stroke-width:4;paint-order:stroke fill markers"
     id="path4734"
     cx="8.1480036"
     cy="8.1012659"
     rx="4.486855"
     ry="4.7205453" />
</svg>
