<?xml version="1.0" encoding="UTF-8" standalone="no"?>
<svg
   width="16"
   height="16"
   viewBox="0 0 16 16"
   fill="none"
   version="1.1"
   id="svg6"
   sodipodi:docname="ChannelFlagBroadcast.svg"
   inkscape:version="1.2.1 (9c6d41e410, 2022-07-14)"
   xmlns:inkscape="http://www.inkscape.org/namespaces/inkscape"
   xmlns:sodipodi="http://sodipodi.sourceforge.net/DTD/sodipodi-0.dtd"
   xmlns="http://www.w3.org/2000/svg"
   xmlns:svg="http://www.w3.org/2000/svg">
  <defs
     id="defs10" />
  <sodipodi:namedview
     id="namedview8"
     pagecolor="#ffffff"
     bordercolor="#000000"
     borderopacity="0.25"
     inkscape:showpageshadow="2"
     inkscape:pageopacity="0"
     inkscape:pagecheckerboard="true"
     inkscape:deskcolor="#d1d1d1"
     showgrid="false"
     inkscape:zoom="64.1875"
     inkscape:cx="4.4245375"
     inkscape:cy="8.0778968"
     inkscape:window-width="3840"
     inkscape:window-height="2081"
     inkscape:window-x="2391"
     inkscape:window-y="-9"
     inkscape:window-maximized="1"
     inkscape:current-layer="svg6" />
  <path
     id="path515"
     style="fill:#ffffff;stroke-width:4.90419;paint-order:stroke fill markers"
     d="M 12.957031 3.0625 L 12.25 3.7695312 A 6 6 0 0 1 14 8 A 6 6 0 0 1 12.242188 12.222656 L 12.947266 12.927734 A 7 7 0 0 0 15 8 A 7 7 0 0 0 12.957031 3.0625 z M 3.0664062 3.0703125 A 7 7 0 0 0 1 8 A 7 7 0 0 0 3.0761719 12.951172 L 3.78125 12.246094 A 6 6 0 0 1 2 8 A 6 6 0 0 1 3.7558594 3.7597656 L 3.0664062 3.0703125 z M 11.542969 4.4765625 L 10.835938 5.1835938 A 4 4 0 0 1 12 8 A 4 4 0 0 1 10.828125 10.808594 L 11.544922 11.525391 A 5 5 0 0 0 13 8 A 5 5 0 0 0 11.542969 4.4765625 z M 4.484375 4.4882812 A 5 5 0 0 0 3 8 A 5 5 0 0 0 4.4804688 11.546875 L 5.1953125 10.832031 A 4 4 0 0 1 4 8 A 4 4 0 0 1 5.1875 5.1914062 L 4.484375 4.4882812 z M 5.8769531 5.8808594 A 3 3 0 0 0 5 8 A 3 3 0 0 0 5.8945312 10.132812 L 6.6015625 9.4257812 A 2 2 0 0 1 6 8 A 2 2 0 0 1 6.6015625 6.6054688 L 5.8769531 5.8808594 z M 10.128906 5.890625 L 9.4238281 6.5957031 A 2 2 0 0 1 10 8 A 2 2 0 0 1 9.421875 9.4023438 L 10.130859 10.111328 A 3 3 0 0 0 11 8 A 3 3 0 0 0 10.128906 5.890625 z " />
  <circle
     style="fill:#ffffff;fill-opacity:1;stroke-width:4.14712;paint-order:stroke fill markers"
     id="path2689"
     cx="8"
     cy="8"
     r="0.75" />
</svg>
