<?xml version="1.0" encoding="UTF-8" standalone="no"?>
<svg
   width="16"
   height="16"
   viewBox="0 0 16 16"
   fill="none"
   version="1.1"
   id="svg6"
   sodipodi:docname="ChannelFlagPreview.svg"
   inkscape:version="1.2.1 (9c6d41e410, 2022-07-14)"
   xml:space="preserve"
   xmlns:inkscape="http://www.inkscape.org/namespaces/inkscape"
   xmlns:sodipodi="http://sodipodi.sourceforge.net/DTD/sodipodi-0.dtd"
   xmlns="http://www.w3.org/2000/svg"
   xmlns:svg="http://www.w3.org/2000/svg"><defs
     id="defs10" /><sodipodi:namedview
     id="namedview8"
     pagecolor="#ffffff"
     bordercolor="#000000"
     borderopacity="0.25"
     inkscape:showpageshadow="2"
     inkscape:pageopacity="0"
     inkscape:pagecheckerboard="true"
     inkscape:deskcolor="#d1d1d1"
     showgrid="false"
     inkscape:zoom="90.774833"
     inkscape:cx="8.7083608"
     inkscape:cy="9.3583207"
     inkscape:window-width="3840"
     inkscape:window-height="2081"
     inkscape:window-x="2391"
     inkscape:window-y="-9"
     inkscape:window-maximized="1"
     inkscape:current-layer="svg6" /><path
     style="fill:#ffffff;stroke-width:0.0573764"
     d="m 1.7396429,13.479724 c -0.50994,-0.109881 -0.92715901,-0.408309 -1.16082501,-0.830315 -0.109338,-0.197468 -0.128605,-0.339275 -0.146662,-1.079455 -0.01975,-0.809535 -0.01452,-0.858131 0.104521,-0.97235 0.125024,-0.119957 0.303196,-0.117166 0.441481,0.0069 0.03222,0.02891 0.07175,0.429002 0.08786,0.889099 0.03179,0.907895 0.0622,0.996686 0.43239,1.262194 0.141297,0.101342 0.271535,0.1194 1.038393,0.143977 0.930917,0.02983 0.986522,0.04783 0.988503,0.319972 0.0017,0.238707 -0.196914,0.298823 -0.963993,0.291725 -0.387486,-0.0036 -0.757238,-0.01788 -0.821672,-0.03176 z m 10.7047241,-0.04525 c -0.137342,-0.09529 -0.169579,-0.277739 -0.07461,-0.422281 0.04375,-0.0666 0.239526,-0.0902 0.932219,-0.112403 0.766858,-0.02458 0.897096,-0.04264 1.038393,-0.143977 0.370186,-0.265508 0.400604,-0.354299 0.43239,-1.262194 0.01611,-0.460097 0.05565,-0.860191 0.08786,-0.889099 0.138285,-0.124082 0.316457,-0.126873 0.441482,-0.0069 0.119045,0.114219 0.124268,0.162815 0.10452,0.97235 -0.02341,0.959567 -0.07623,1.119996 -0.497107,1.509746 -0.365805,0.338754 -0.584304,0.400058 -1.513289,0.424576 -0.688991,0.01818 -0.841126,0.007 -0.951856,-0.0698 z M 7.0700387,11.042963 C 5.8209509,10.856069 4.5611129,10.175598 3.8220069,9.2886195 3.4953989,8.8966655 3.1007319,8.1775214 2.9893589,7.7714032 c -0.09187,-0.3350043 -0.02311,-0.6153671 0.306673,-1.2504834 0.470415,-0.9059417 1.196215,-1.58618 2.192461,-2.0548314 0.903595,-0.4250667 1.3448176,-0.519328 2.4308945,-0.519328 1.0917271,0 1.5401083,0.095589 2.4308956,0.5182341 1.001488,0.4751693 1.722926,1.1516795 2.19246,2.0559253 0.329787,0.6351163 0.398545,0.9154791 0.306673,1.2504834 -0.111373,0.4061182 -0.506039,1.1252623 -0.832648,1.5172163 -0.619074,0.7429335 -1.688989,1.3901375 -2.7208498,1.6458735 -0.541365,0.134172 -1.6824592,0.189779 -2.2258795,0.10847 z M 9.4250285,10.269232 C 10.651558,9.8696374 11.477334,9.2020945 12.007288,8.1817787 12.163468,7.8810866 12.224707,7.690305 12.224707,7.504446 c 0,-0.1858589 -0.06124,-0.3766405 -0.217419,-0.6773326 C 11.478664,5.8093594 10.666293,5.1488521 9.4411351,4.7406751 8.9003079,4.5604917 8.8607868,4.5556874 7.9193874,4.5556874 c -0.9413994,0 -0.9809205,0.0048 -1.5217475,0.1849877 -1.225158,0.408177 -2.037529,1.0686843 -2.566152,2.0864383 -0.15618,0.3006921 -0.21742,0.4914737 -0.21742,0.6773326 0,0.185859 0.06124,0.3766406 0.21742,0.6773327 0.488398,0.9403088 1.274994,1.6167527 2.330626,2.0042533 0.6676452,0.245079 1.0200792,0.296341 1.903713,0.276895 0.7362975,-0.0162 0.8751303,-0.03599 1.3592016,-0.193695 z M 7.4800691,9.2536855 C 6.9585537,9.1208655 6.4998769,8.7596635 6.2377039,8.2753379 6.1020389,8.024718 6.0788149,7.9128123 6.0777239,7.504446 6.0765239,7.0670663 6.0932339,6.9968605 6.2753029,6.6729145 6.4833419,6.3027562 6.7161391,6.0910294 7.1579023,5.8701976 7.374129,5.7621087 7.5109596,5.738452 7.9193874,5.7385442 8.3463603,5.7386397 8.4608068,5.7603462 8.7228462,5.8909265 9.1109575,6.0843314 9.399496,6.3611743 9.601071,6.7335542 9.7372116,6.985052 9.7597736,7.0946494 9.7597736,7.504446 c 0,0.4097967 -0.02256,0.5193941 -0.1587026,0.7708919 C 9.273824,8.8798775 8.7170507,9.2381325 8.0454577,9.2762965 7.8311436,9.2884745 7.5767191,9.2783065 7.4800691,9.2536855 Z M 8.6299192,8.4862722 C 9.0032027,8.234009 9.1634332,7.9027017 9.1375662,7.4366164 9.1119722,6.9754584 8.9076762,6.6569566 8.5051452,6.4506617 8.2850625,6.3378703 8.1767085,6.3188855 7.8486923,6.3356442 7.3680523,6.3602002 7.0360952,6.556216 6.8210852,6.942431 6.7035289,7.153593 6.6837419,7.2575551 6.7012087,7.5722756 c 0.025593,0.4611581 0.22989,0.7796599 0.632421,0.9859549 0.2200826,0.112791 0.3284367,0.131776 0.6564528,0.115017 0.3211107,-0.01641 0.4379694,-0.05055 0.6398367,-0.1869753 z M 0.53667689,4.411288 c -0.119045,-0.1142193 -0.124269,-0.162816 -0.104521,-0.9723508 0.02341,-0.9595668 0.07623,-1.1199955 0.497107,-1.5097461 C 1.2916769,1.5935773 1.5152699,1.529907 2.4280399,1.5023992 c 0.884431,-0.026654 1.0991,0.029072 1.097267,0.2848396 -0.002,0.2742493 -0.05646,0.2919929 -0.988502,0.3218631 -0.766859,0.024576 -0.897097,0.042634 -1.038394,0.1439763 -0.370186,0.2655086 -0.400603,0.3542994 -0.432389,1.2621949 -0.01611,0.4600966 -0.05565,0.8601911 -0.08786,0.8890988 -0.138285,0.1240818 -0.316457,0.126873 -0.441482,0.00692 z M 14.989086,4.486411 C 14.818762,4.444058 14.772754,4.2263193 14.772754,3.4625908 c 0,-0.6527472 -0.01209,-0.7356879 -0.131796,-0.9044481 -0.273383,-0.3854012 -0.370606,-0.4180059 -1.338987,-0.4490405 -0.932044,-0.02987 -0.986537,-0.047614 -0.988503,-0.3218631 -0.0018,-0.2557675 0.212836,-0.3114934 1.097268,-0.2848396 0.912769,0.027508 1.136362,0.091178 1.498776,0.4267919 0.420875,0.3897506 0.473698,0.5501793 0.497107,1.5097461 0.0196,0.8033269 0.01378,0.8588427 -0.101524,0.9694759 -0.12555,0.1204613 -0.135431,0.1229002 -0.316009,0.077998 z"
     id="path2715" /></svg>
