<?xml version="1.0" encoding="UTF-8" standalone="no"?>
<svg
   width="16"
   height="16"
   viewBox="0 0 16 16"
   fill="none"
   version="1.1"
   id="svg6"
   sodipodi:docname="MediaOutputPreparing.svg"
   inkscape:version="1.2.1 (9c6d41e410, 2022-07-14)"
   xmlns:inkscape="http://www.inkscape.org/namespaces/inkscape"
   xmlns:sodipodi="http://sodipodi.sourceforge.net/DTD/sodipodi-0.dtd"
   xmlns="http://www.w3.org/2000/svg"
   xmlns:svg="http://www.w3.org/2000/svg">
  <defs
     id="defs10" />
  <sodipodi:namedview
     id="namedview8"
     pagecolor="#ffffff"
     bordercolor="#000000"
     borderopacity="0.25"
     inkscape:showpageshadow="2"
     inkscape:pageopacity="0"
     inkscape:pagecheckerboard="true"
     inkscape:deskcolor="#d1d1d1"
     showgrid="false"
     inkscape:zoom="64.1875"
     inkscape:cx="5.842259"
     inkscape:cy="8.0467381"
     inkscape:window-width="3840"
     inkscape:window-height="2081"
     inkscape:window-x="2391"
     inkscape:window-y="-9"
     inkscape:window-maximized="1"
     inkscape:current-layer="svg6" />
  <circle
     style="fill:#000000;fill-opacity:0.264535;stroke-width:4;paint-order:stroke fill markers"
     id="path285"
     cx="8.1635828"
     cy="8.2259007"
     r="5.0788703" />
  <path
     id="path232"
     style="fill:#00ff00"
     d="M 8.1328125 4.2226562 A 3.9727361 3.9337878 0 0 0 4.1601562 8.15625 A 3.9727361 3.9337878 0 0 0 8.1328125 12.089844 A 3.9727361 3.9337878 0 0 0 12.105469 8.15625 A 3.9727361 3.9337878 0 0 0 8.1328125 4.2226562 z M 8.1796875 6.3398438 A 1.8227849 1.8305745 0 0 1 10.001953 8.171875 A 1.8227849 1.8305745 0 0 1 8.1796875 10.001953 A 1.8227849 1.8305745 0 0 1 6.3554688 8.171875 A 1.8227849 1.8305745 0 0 1 8.1796875 6.3398438 z " />
</svg>
