<svg width="21" height="20" viewBox="0 0 21 20" fill="none" xmlns="http://www.w3.org/2000/svg">
<path d="M15.7981 1L10.8623 1.96681V7.77543L15.7981 8.73451V1Z" fill="white"/>
<path d="M19.0884 7.28815L15.7979 8.73451V1L19.0884 2.28393V7.28815Z" fill="#8D8D8D"/>
<path d="M6.79812 10L1.8623 10.9668V16.7754L6.79812 17.7345V10Z" fill="white"/>
<path d="M10.0884 16.2882L6.79785 17.7345V10L10.0884 11.2839V16.2882Z" fill="#8D8D8D"/>
<path d="M18.5632 16.7117C18.5632 16.7117 18.5632 16.5842 18.6907 16.5842L19.4561 16.3291V14.6709L18.6907 14.4158C18.5632 14.2883 18.5632 14.1607 18.4356 14.0332L18.5632 13.1403L17.0326 12.375L16.3948 12.8852C16.2673 12.8852 16.1397 12.8852 16.0122 12.8852L15.3744 12.375L13.9714 13.2679L14.2265 14.1607L14.0989 14.2883C14.0989 14.2883 14.0989 14.4158 13.9714 14.4158L13.2061 14.6709V16.3291L13.9714 16.5842C14.0989 16.7117 14.0989 16.8393 14.2265 16.9668L14.0989 17.8597L15.6295 18.625L16.1397 17.9872C16.2673 17.9872 16.3948 17.9872 16.5224 17.9872L17.1601 18.4974L18.5632 17.6046L18.3081 16.7117C18.4356 16.7117 18.5632 16.7117 18.5632 16.7117ZM15.6295 16.7117C14.9918 16.3291 14.6091 15.4362 14.9918 14.7985C15.3744 14.1607 16.2673 13.7781 16.905 14.1607C17.5428 14.5434 17.9254 15.4362 17.5428 16.074C17.1601 16.8393 16.2673 17.0944 15.6295 16.7117Z" fill="white"/>
<path opacity="0.5" d="M11.1673 2.42285C7.90538 5.68477 7.28659 6.19079 2.39355 11.0838" stroke="white" stroke-dasharray="1 1"/>
</svg>
