<svg width="21" height="20" viewBox="0 0 21 20" fill="none" xmlns="http://www.w3.org/2000/svg">
<path d="M6.1582 2.5H3.95821C3.55821 2.5 3.1582 2.8 3.1582 3.3V5.5" stroke="white" stroke-miterlimit="10" stroke-linecap="round"/>
<path fill-rule="evenodd" clip-rule="evenodd" d="M14.7109 10.5C14.7109 10.2239 14.4871 10 14.2109 10C13.9348 10 13.7109 10.2239 13.7109 10.5V12.7C13.7109 12.8071 13.6718 12.8742 13.6231 12.9189C13.5679 12.9695 13.4894 13 13.4109 13H11.2109C10.9348 13 10.7109 13.2239 10.7109 13.5C10.7109 13.7761 10.9348 14 11.2109 14H12.9781C13.4139 13.3979 14.0132 12.922 14.7109 12.6375V10.5Z" fill="white"/>
<path d="M6.21094 12L7.71094 8.5L4.21094 10L2.71094 8.5V13.5H7.71094L6.21094 12Z" fill="white"/>
<path d="M10.7109 4L9.21094 7.5L12.7109 6L14.2109 7.5V2.5H9.21094L10.7109 4Z" fill="white"/>
<path d="M18.6931 17.8367C18.6931 17.8367 18.6931 17.7092 18.8206 17.7092L19.5859 17.4541V15.7959L18.8206 15.5408C18.6931 15.4133 18.6931 15.2857 18.5655 15.1582L18.6931 14.2653L17.1625 13.5L16.5247 14.0102C16.3972 14.0102 16.2696 14.0102 16.1421 14.0102L15.5043 13.5L14.1012 14.3929L14.3563 15.2857L14.2288 15.4133C14.2288 15.4133 14.2288 15.5408 14.1012 15.5408L13.3359 15.7959V17.4541L14.1012 17.7092C14.2288 17.8367 14.2288 17.9643 14.3563 18.0918L14.2288 18.9847L15.7594 19.75L16.2696 19.1122C16.3972 19.1122 16.5247 19.1122 16.6523 19.1122L17.29 19.6224L18.6931 18.7296L18.438 17.8367C18.5655 17.8367 18.6931 17.8367 18.6931 17.8367ZM15.7594 17.8367C15.1217 17.4541 14.739 16.5612 15.1217 15.9235C15.5043 15.2857 16.3972 14.9031 17.0349 15.2857C17.6727 15.6684 18.0553 16.5612 17.6727 17.199C17.29 17.9643 16.3972 18.2194 15.7594 17.8367Z" fill="white"/>
</svg>
