<svg width="21" height="20" viewBox="0 0 21 20" fill="none" xmlns="http://www.w3.org/2000/svg">
<path opacity="0.5" d="M7.20574 19.1347C6.98472 19.1347 6.77276 19.0469 6.61648 18.8906C6.4602 18.7344 6.3724 18.5224 6.3724 18.3014V13.6931C5.31559 12.9841 4.45656 12.0178 3.87617 10.8853C3.29579 9.75273 3.01313 8.49112 3.0548 7.2192C3.09648 5.94728 3.46112 4.70688 4.1144 3.61475C4.76768 2.52262 5.68811 1.61468 6.78907 0.976392C6.91575 0.903251 7.05945 0.864746 7.20574 0.864746C7.35202 0.864746 7.49572 0.903251 7.6224 0.976392C7.74957 1.04981 7.85508 1.15553 7.92825 1.28285C8.00142 1.41016 8.03965 1.55455 8.03907 1.70139V6.21806L10.5391 8.09306V19.1347H7.20574Z" fill="#D9D9D9"/>
<path d="M13.8724 19.1347C14.0934 19.1347 14.3054 19.0469 14.4616 18.8906C14.6179 18.7344 14.7057 18.5224 14.7057 18.3014V13.6931C15.7625 12.9841 16.6216 12.0178 17.202 10.8853C17.7823 9.75273 18.065 8.49112 18.0233 7.2192C17.9816 5.94728 17.617 4.70688 16.9637 3.61475C16.3104 2.52262 15.39 1.61468 14.2891 0.976392C14.1624 0.903251 14.0187 0.864746 13.8724 0.864746C13.7261 0.864746 13.5824 0.903251 13.4557 0.976392C13.3286 1.04981 13.223 1.15553 13.1499 1.28285C13.0767 1.41016 13.0385 1.55455 13.0391 1.70139V6.21806L10.5391 8.09306V19.1347H13.8724Z" fill="white"/>
</svg>
