<svg width="21" height="20" viewBox="0 0 21 20" fill="none" xmlns="http://www.w3.org/2000/svg">
<path d="M12.9337 3.24301L10.2424 1.62185C10.1862 1.58871 10.1114 1.59362 10.0528 1.63524C9.99376 1.67683 9.96266 1.74647 9.97358 1.81159L10.1453 2.85431C7.19683 3.08198 4.58413 5.34123 3.93396 8.22612L2.9274 7.90598C2.86429 7.886 2.79084 7.90678 2.74121 7.95919C2.69159 8.01116 2.67625 8.08426 2.70098 8.14456L3.91728 11.0415C3.93994 11.0965 3.99322 11.1312 4.05512 11.1318C4.11734 11.1336 4.17848 11.1012 4.21558 11.0477L6.15061 8.21322C6.19127 8.15384 6.19345 8.08025 6.15712 8.02656C6.12137 7.97243 6.05302 7.94893 5.98511 7.96681L5.12783 8.18796C5.70411 5.9933 7.68009 4.28424 9.93492 4.03021L9.59286 4.8464C9.56572 4.91073 9.57904 4.98181 9.62719 5.02522C9.67509 5.06891 9.74821 5.07734 9.81277 5.04575L12.8965 3.53933C12.9549 3.51031 12.996 3.45424 13.0029 3.39265C13.0115 3.33108 12.9846 3.27362 12.9337 3.24301Z" fill="white"/>
<path opacity="0.5" d="M17.9669 8.94189C16.0922 9.45387 13.8182 10.4119 12.43 11.705C10.6148 13.3958 9.94763 15.1539 9.43579 19.3599H13.6497C13.6497 16.7783 15.417 13.5502 19.4142 12.7013L17.9669 8.94189Z" fill="white"/>
<path d="M16.481 5.08252C13.7311 5.72875 11.0553 7.1634 9.14181 9.28948C6.52054 12.202 5.38173 14.7351 5.23047 19.3596H9.44435C9.95619 15.1536 10.6234 13.3955 12.4386 11.7047C13.8248 10.4134 16.0944 9.45627 17.9675 8.94376L16.481 5.08252Z" fill="white"/>
</svg>
