<svg width="21" height="20" viewBox="0 0 21 20" fill="none" xmlns="http://www.w3.org/2000/svg">
<path opacity="0.5" d="M10.0047 18.9804L18.7556 16.2215L19.5504 7.36622M10.0047 18.9804V10.2071M10.0047 18.9804C9.23916 19.1716 7.74969 19.1731 5.91256 17.8613M19.5504 7.36622L10.0047 10.2071M19.5504 7.36622C19.7073 5.61821 18.7914 4.56077 18.3137 4.25054M10.0047 10.2071C7.70799 11.1053 6.35429 9.96267 5.91256 9.58006M10.0047 10.2071C10.0045 9.87908 10.2171 8.54865 8.38007 7.10559M5.91256 17.8613L1.53225 13.2697V5.56239M5.91256 17.8613V9.58006M1.53225 5.56239C1.44398 4.93379 1.66244 4.07248 2.76897 3.18463M1.53225 5.56239L5.91256 9.58006M2.76897 3.18463L12.1311 0.970703L18.3137 4.25054M2.76897 3.18463L8.38007 7.10559M18.3137 4.25054L8.38007 7.10559M5.91256 9.58006C6.54862 7.67783 7.87968 7.05094 8.38007 7.10559" stroke="white" stroke-width="1.11"/>
<path d="M19.5506 7.36607L9.97952 10.3393V18.9839C8.98094 19.1972 6.9712 19.5279 5.93813 17.8611V9.7086L1.56007 5.88292C1.43427 4.7492 1.75987 3.46389 3.35034 3.08008L8.38021 7.10543L18.3139 4.25039C18.7915 4.56061 19.7075 5.61806 19.5506 7.36607Z" fill="#7F7F7F"/>
<path d="M9.97952 10.3393L19.5506 7.36607C19.7075 5.61806 18.7915 4.56061 18.3139 4.25039L8.38021 7.10543M9.97952 10.3393V18.9839C8.98094 19.1972 6.9712 19.5279 5.93813 17.8611V9.7086M9.97952 10.3393C7.68284 11.2375 6.37986 10.0912 5.93813 9.7086M9.97952 10.3393C9.97938 10.0113 10.2172 8.5485 8.38021 7.10543M5.93813 9.7086C6.5742 7.80637 7.87982 7.05078 8.38021 7.10543M5.93813 9.7086L1.56007 5.88292C1.43427 4.7492 1.75987 3.46389 3.35034 3.08008L8.38021 7.10543" stroke="white" stroke-width="1.11"/>
</svg>
