<svg width="21" height="20" viewBox="0 0 21 20" fill="none" xmlns="http://www.w3.org/2000/svg">
<path opacity="0.5" fill-rule="evenodd" clip-rule="evenodd" d="M2.03906 18.5V6.5H7.13904V7C7.13904 7.2 7.13904 7.3 7.13904 7.5C7.13904 10.8 9.83904 13.5 13.139 13.5C13.339 13.5 13.439 13.5 13.639 13.5H14.139V18.6H2.03906V18.5Z" fill="white"/>
<path d="M6.53906 7C6.53906 7.2 6.53906 7.3 6.53906 7.5C6.53906 11.1 9.43906 14 13.0391 14C13.2391 14 13.3391 14 13.5391 14V18H2.53906V7H6.53906ZM7.63904 6H6.53906H2.53906H1.53906V7V18V19H2.53906H13.5391H14.5391V18V14V12.9L13.4391 13C13.3391 13 13.1391 13 13.0391 13C10.0391 13 7.53906 10.5 7.53906 7.5C7.53906 7.4 7.53906 7.2 7.53906 7.1L7.63904 6Z" fill="white"/>
<path opacity="0.5" d="M13.0391 14C9.43906 14 6.53906 11.1 6.53906 7.5C6.53906 3.9 9.43906 1 13.0391 1C16.6391 1 19.5391 3.9 19.5391 7.5C19.5391 11.1 16.6391 14 13.0391 14ZM13.0391 2C10.0391 2 7.53906 4.5 7.53906 7.5C7.53906 10.5 10.0391 13 13.0391 13C16.0391 13 18.5391 10.5 18.5391 7.5C18.5391 4.5 16.0391 2 13.0391 2Z" fill="white"/>
</svg>
