<svg width="21" height="20" viewBox="0 0 21 20" fill="none" xmlns="http://www.w3.org/2000/svg">
<path d="M13.3311 4.93262L7.39453 6.69946V13.7668L13.3311 15.5337L17.9249 10.2332L13.3311 4.93262ZM11.4936 10.2332L8.10127 12.7774V7.6889L11.4936 10.2332ZM8.52531 7.12351L12.7657 5.85138L11.9177 9.66776L8.52531 7.12351ZM11.847 10.8692L12.6951 14.6856L8.45464 13.4135L11.847 10.8692ZM12.5537 10.5865H16.7942L13.4018 14.4029L12.5537 10.5865ZM12.5537 9.87979L13.4018 6.0634L16.7942 9.87979H12.5537Z" fill="white"/>
<path opacity="0.5" d="M11.1398 16.2404L10.3623 16.0283L8.66617 17.9365L8.10078 15.2509L6.97 14.8269L4.56709 16.6644V12.9187L6.33394 14.2615V13.3427L4.99113 12.3533L6.33394 11.9293V11.1519L3.86035 11.9293V17.6538L8.66617 19.0673L11.1398 16.2404ZM4.99113 17.2298L7.46472 15.3923L8.10078 18.1486L4.99113 17.2298Z" fill="white"/>
<path fill-rule="evenodd" clip-rule="evenodd" d="M6.98322 0.000156836L9.73438 2.75177L6.98322 5.51923L6.98322 3.75884C4.32148 3.75884 2.89088 4.02845 1.72852 6.82764C2.25811 3.23548 4.34211 1.67332 6.98322 1.67332L6.98322 0.000156836Z" fill="white"/>
<circle cx="4.23584" cy="12.0952" r="0.87627" fill="#1A1A1A" stroke="#8C8C8C" stroke-width="0.6"/>
<circle cx="4.23584" cy="17.0957" r="0.87627" fill="#1A1A1A" stroke="#8C8C8C" stroke-width="0.6"/>
<circle cx="8.33838" cy="18.8237" r="0.87627" fill="#1A1A1A" stroke="#8C8C8C" stroke-width="0.6"/>
</svg>
