<svg width="21" height="20" viewBox="0 0 21 20" fill="none" xmlns="http://www.w3.org/2000/svg">
<path opacity="0.5" d="M18.0713 2.27878C15.7931 0.000585094 12.3263 -0.296568 11.6329 0.396795L0.935305 11.0944C-0.0552142 12.0849 0.935305 14.7593 3.2135 17.1366C5.49169 19.4148 8.16609 20.5043 9.25566 19.4148L19.8542 8.81621C20.6466 8.02379 20.3495 4.55697 18.0713 2.27878Z" fill="white"/>
<path d="M13.2176 0V0.49526C14.3072 0.49526 16.0901 1.08957 17.675 2.6744C19.7551 4.75449 20.2503 7.52794 19.557 8.22131C19.3589 8.41941 18.9626 8.51846 18.5664 8.51846C17.4769 8.51846 15.5949 7.8251 14.1091 6.24027C11.93 4.06113 11.4347 1.48578 12.1281 0.792415C12.3262 0.594311 12.7224 0.49526 13.2176 0.49526V0ZM13.2176 0C12.6233 0 12.1281 0.198104 11.8309 0.49526C10.8404 1.48578 11.5337 4.45734 13.8119 6.63648C15.3968 8.22131 17.2788 9.01372 18.6655 9.01372C19.2598 9.01372 19.7551 8.91467 20.0522 8.61752C21.0427 7.627 20.4484 4.55639 18.1702 2.37725C16.4863 0.792417 14.6044 0 13.2176 0Z" fill="white"/>
<path d="M0.935055 11.2919C1.92557 10.3014 4.99618 10.8957 7.17533 13.1739C9.35447 15.4521 10.0478 18.4236 9.05731 19.4141C8.06679 20.4047 5.09524 19.7113 2.91609 17.4331C0.736952 15.1549 -0.0554637 12.2824 0.935055 11.2919Z" fill="white"/>
<path opacity="0.5" d="M14.5134 18.8L15.7134 20L18.5134 17.2L19.9134 18.5L20.5134 14L16.0134 14.7L17.3134 16L14.5134 18.8Z" fill="white"/>
</svg>
