<svg width="21" height="20" viewBox="0 0 21 20" fill="none" xmlns="http://www.w3.org/2000/svg">
<path d="M2.48626 12.6758H7.17749L7.17749 7.98455L2.48626 7.98455L2.48626 12.6758Z" fill="white"/>
<path d="M8.11516 12.6758H12.8064V7.98455L8.11516 7.98455V12.6758Z" fill="white"/>
<path d="M13.745 12.6758H18.4363V7.98455L13.745 7.98455V12.6758Z" fill="white"/>
<path d="M9.87078 2.42008C11.0708 2.42008 12.1108 2.87008 13.0008 3.78008L11.4708 5.31008L15.3008 5.31008L15.3008 1.47008L13.7708 3.01008C12.6708 1.89008 11.3708 1.33008 9.87078 1.33008C8.37078 1.33008 7.10078 1.86008 6.04078 2.92008C5.00078 3.96008 4.48078 5.21008 4.46078 6.67008L5.55078 6.67008C5.57078 5.51008 5.99078 4.52008 6.81078 3.69008C7.65078 2.84008 8.67078 2.42008 9.87078 2.42008Z" fill="#8D8D8D"/>
<path d="M9.89094 17.5799C8.69094 17.5799 7.65094 17.1299 6.76094 16.2199L8.29094 14.6899L4.46094 14.6899L4.46094 18.5299L5.99094 16.9899C7.09094 18.1099 8.39094 18.6699 9.89094 18.6699C11.3909 18.6699 12.6609 18.1399 13.7209 17.0799C14.7609 16.0399 15.2809 14.7899 15.3009 13.3299L14.2109 13.3299C14.1909 14.4899 13.7709 15.4799 12.9509 16.3099C12.1109 17.1599 11.0909 17.5799 9.89094 17.5799Z" fill="#8D8D8D"/>
</svg>
