<svg width="21" height="20" viewBox="0 0 21 20" fill="none" xmlns="http://www.w3.org/2000/svg">
<path d="M10.4609 6.84131C5.96094 6.84131 2.96094 11.3413 2.96094 11.3413C2.96094 11.3413 5.96094 15.8413 10.4609 15.8413C14.9609 15.8413 17.9609 11.3413 17.9609 11.3413C17.9609 11.3413 14.9609 6.84131 10.4609 6.84131Z" stroke="white" stroke-width="0.9706" stroke-miterlimit="10"/>
<path d="M10.481 13.8413C9.10096 13.8413 7.98096 12.7213 7.98096 11.3413C7.98096 9.96131 9.10096 8.84131 10.481 8.84131C11.861 8.84131 12.981 9.96131 12.981 11.3413C12.981 12.7213 11.861 13.8413 10.481 13.8413Z" fill="white"/>
<line x1="3.34717" y1="3.01694" x2="5.48458" y2="5.61677" stroke="white"/>
<line x1="10.6221" y1="1.15869" x2="10.6221" y2="4.52435" stroke="white"/>
<line x1="18.0645" y1="3.68803" x2="15.6846" y2="6.06791" stroke="white"/>
</svg>
