<?xml version="1.0" encoding="utf-8"?>
<!-- Generator: Adobe Illustrator 28.1.0, SVG Export Plug-In . SVG Version: 6.00 Build 0)  -->
<svg version="1.1" id="Layer_1" xmlns="http://www.w3.org/2000/svg" xmlns:xlink="http://www.w3.org/1999/xlink" x="0px" y="0px"
	 viewBox="0 0 21 20" style="enable-background:new 0 0 21 20;" xml:space="preserve">
<style type="text/css">
	.st0{clip-path:url(#SVGID_00000001629055485545430150000004791578850651585214_);}
	.st1{fill-rule:evenodd;clip-rule:evenodd;fill:#FFFFFF;}
	.st2{fill-rule:evenodd;clip-rule:evenodd;fill:#FFFFFF;filter:url(#Adobe_OpacityMaskFilter);}
	.st3{mask:url(#path-2-inside-1_2130_852_00000000204352320035834910000003473694002493898416_);fill:#FFFFFF;}
</style>
<g>
	<defs>
		<rect id="SVGID_1_" x="2.5" y="2" width="16" height="16"/>
	</defs>
	<clipPath id="SVGID_00000129167537374256355250000005014774635282459520_">
		<use xlink:href="#SVGID_1_"  style="overflow:visible;"/>
	</clipPath>
	<g style="clip-path:url(#SVGID_00000129167537374256355250000005014774635282459520_);">
		<path class="st1" d="M7.6,5.1c-2.9,0.7-5.1,3.3-5.1,6.4c0,3.6,2.9,6.6,6.6,6.6c3.2,0,5.8-2.2,6.4-5.2c-0.4,0.1-0.7,0.2-1.1,0.2
			c-0.7,2.3-2.8,4-5.3,4c-3.1,0-5.6-2.5-5.6-5.6c0-2.5,1.6-4.6,3.9-5.3C7.4,5.8,7.5,5.4,7.6,5.1z"/>
		<path class="st1" d="M15.6,11.1c1.7-0.7,2.9-2.4,2.9-4.4c0-2.6-2.1-4.8-4.8-4.8c-2,0-3.7,1.2-4.4,3C12.7,5,15.4,7.7,15.6,11.1z
			 M14.1,11.5c0-2.8-2.3-5.1-5.1-5.1c0,0-0.1,0-0.1,0c0,0.1,0,0.2,0,0.3c0,2.6,2.1,4.8,4.8,4.8C13.9,11.5,14,11.5,14.1,11.5z"/>
		<defs>
			<filter id="Adobe_OpacityMaskFilter" filterUnits="userSpaceOnUse" x="7.9" y="1" width="11.6" height="11.6">
				<feColorMatrix  type="matrix" values="1 0 0 0 0  0 1 0 0 0  0 0 1 0 0  0 0 0 1 0"/>
			</filter>
		</defs>
		
			<mask maskUnits="userSpaceOnUse" x="7.9" y="1" width="11.6" height="11.6" id="path-2-inside-1_2130_852_00000000204352320035834910000003473694002493898416_">
			<path class="st2" d="M15.6,11.1c1.7-0.7,2.9-2.4,2.9-4.4c0-2.6-2.1-4.8-4.8-4.8c-2,0-3.7,1.2-4.4,3C12.7,5,15.4,7.7,15.6,11.1z
				 M14.1,11.5c0-2.8-2.3-5.1-5.1-5.1c0,0-0.1,0-0.1,0c0,0.1,0,0.2,0,0.3c0,2.6,2.1,4.8,4.8,4.8C13.9,11.5,14,11.5,14.1,11.5z"/>
		</mask>
		<path class="st3" d="M15.6,11.1l-1,0.1l0.1,1.4L16,12L15.6,11.1z M9.3,4.9L8.4,4.5L7.9,5.8l1.4,0.1L9.3,4.9z M14.1,11.5l0.1,1
			l0.9-0.1l0-0.9L14.1,11.5z M9,6.4l0-1l-0.9,0L8,6.3L9,6.4z M17.5,6.7c0,1.5-0.9,2.9-2.3,3.4L16,12c2-0.9,3.5-2.9,3.5-5.3H17.5z
			 M13.7,3c2.1,0,3.8,1.7,3.8,3.8h2c0-3.2-2.6-5.8-5.8-5.8V3z M10.3,5.3C10.8,3.9,12.2,3,13.7,3V1c-2.4,0-4.5,1.5-5.3,3.6L10.3,5.3z
			 M16.6,11c-0.2-3.9-3.4-7-7.3-7.1l-0.1,2c2.9,0.1,5.2,2.4,5.3,5.2L16.6,11z M15.1,11.4c0-3.3-2.7-6-6.1-6v2c2.2,0,4.1,1.8,4.1,4.1
			L15.1,11.4z M9.1,5.4C9,5.4,9,5.4,9.1,5.4L9,7.4c0,0,0,0,0.1,0V5.4z M10,6.7c0-0.1,0-0.2,0-0.2L8,6.3c0,0.1,0,0.3,0,0.4H10z
			 M13.7,10.5c-2.1,0-3.8-1.7-3.8-3.8H8c0,3.2,2.6,5.8,5.8,5.8V10.5z M14.1,10.5c-0.1,0-0.2,0-0.3,0v2c0.2,0,0.3,0,0.5,0L14.1,10.5z
			"/>
	</g>
</g>
</svg>
