<?xml version="1.0" encoding="utf-8"?>
<!-- Generator: Adobe Illustrator 28.1.0, SVG Export Plug-In . SVG Version: 6.00 Build 0)  -->
<svg version="1.1" id="Layer_1" xmlns="http://www.w3.org/2000/svg" xmlns:xlink="http://www.w3.org/1999/xlink" x="0px" y="0px"
	 viewBox="0 0 21 20" style="enable-background:new 0 0 21 20;" xml:space="preserve">
<style type="text/css">
	.st0{clip-path:url(#SVGID_00000161616754428874059840000012768443900729025926_);}
	.st1{fill-rule:evenodd;clip-rule:evenodd;fill:#FFFFFF;}
	.st2{fill:none;stroke:#FFFFFF;}
</style>
<g>
	<defs>
		<rect id="SVGID_1_" x="2.5" y="2" width="16" height="16"/>
	</defs>
	<clipPath id="SVGID_00000151501770979016721500000010741657519108064935_">
		<use xlink:href="#SVGID_1_"  style="overflow:visible;"/>
	</clipPath>
	<g style="clip-path:url(#SVGID_00000151501770979016721500000010741657519108064935_);">
		<path class="st1" d="M15.5,13.1c-0.5,0.1-1.1,0.2-1.7,0.2c-3.6,0-6.6-2.9-6.6-6.6c0-0.5,0.1-1.1,0.2-1.6c-2.8,0.8-4.9,3.3-4.9,6.3
			c0,3.6,2.9,6.6,6.6,6.6C12.2,18,14.7,15.9,15.5,13.1z"/>
		<path class="st1" d="M13.7,10.5c0.2,0,0.5,0,0.7-0.1c-0.3-2.3-2.1-4-4.4-4.3C10,6.3,10,6.5,10,6.7C10,8.8,11.7,10.5,13.7,10.5z"/>
		<circle class="st2" cx="13.7" cy="6.7" r="4.3"/>
	</g>
</g>
</svg>
