<?xml version="1.0" encoding="UTF-8"?>
<!DOCTYPE svg PUBLIC "-//W3C//DTD SVG 1.1//EN" "http://www.w3.org/Graphics/SVG/1.1/DTD/svg11.dtd">
<svg xmlns="http://www.w3.org/2000/svg" version="1.1" width="40px" height="40px" style="shape-rendering:geometricPrecision; text-rendering:geometricPrecision; image-rendering:optimizeQuality; fill-rule:evenodd; clip-rule:evenodd" xmlns:xlink="http://www.w3.org/1999/xlink">
<g><path style="opacity:0.382" fill="#fefffe" d="M 39.5,7.5 C 39.5,10.1667 39.5,12.8333 39.5,15.5C 37.9826,15.4894 36.8159,14.8228 36,13.5C 34.108,15.0542 32.608,16.8876 31.5,19C 34.1609,23.4805 35.4942,28.3138 35.5,33.5C 27.5,33.5 19.5,33.5 11.5,33.5C 11.5,30.1667 11.5,26.8333 11.5,23.5C 9.5,23.5 7.5,23.5 5.5,23.5C 5.33003,24.8221 5.66337,25.9887 6.5,27C 6,27.1667 5.5,27.3333 5,27.5C 3.01904,26.3498 1.18571,25.0165 -0.5,23.5C -0.5,22.8333 -0.5,22.1667 -0.5,21.5C 1.14772,20.1902 2.81439,18.8569 4.5,17.5C 5.42869,18.6888 5.76202,20.0222 5.5,21.5C 7.5,21.5 9.5,21.5 11.5,21.5C 11.5,17.5 11.5,13.5 11.5,9.5C 18.0655,8.94926 23.7322,10.9493 28.5,15.5C 30.3159,14.1851 31.9825,12.6851 33.5,11C 32.6433,10.3109 31.9767,9.47758 31.5,8.5C 34.0865,7.51998 36.7531,7.18665 39.5,7.5 Z"/></g>
</svg>
