<svg width="21" height="20" viewBox="0 0 21 20" fill="none" xmlns="http://www.w3.org/2000/svg">
<path d="M9.77317 1.60938H2.07031V3.26H9.77317V1.60938Z" fill="white"/>
<path d="M9.77317 4.63574H2.07031V6.28634H9.77317V4.63574Z" fill="white"/>
<path d="M2.07031 7.66162V9.31221H4.40867H7.43481H9.77317V7.66162H2.07031Z" fill="white"/>
<path d="M18.852 1.60938H17.2014V9.31223H18.852V1.60938Z" fill="white"/>
<path d="M15.8244 1.60938H14.1738V9.31223H15.8244V1.60938Z" fill="white"/>
<path d="M11.1484 1.60938V3.94774V6.97383V9.3122H12.799V1.60938H11.1484Z" fill="white"/>
<path d="M18.8513 16.7397H11.1484V18.3904H18.8513V16.7397Z" fill="white"/>
<path d="M18.8513 13.7139H11.1484V15.3645H18.8513V13.7139Z" fill="white"/>
<path d="M16.513 10.688H13.4868H11.1484V12.3386H18.8513V10.688H16.513Z" fill="white"/>
<path d="M3.72094 10.688H2.07031V18.3908H3.72094V10.688Z" fill="white"/>
<path d="M6.7463 10.688H5.0957V18.3908H6.7463V10.688Z" fill="white"/>
<path d="M8.12305 10.688V18.3908H9.77367V16.0524V13.0264V10.688H8.12305Z" fill="white"/>
</svg>
