<svg width="21" height="20" viewBox="0 0 21 20" fill="none" xmlns="http://www.w3.org/2000/svg">
<g clip-path="url(#clip0_172_17812)">
<path fill-rule="evenodd" clip-rule="evenodd" d="M10.5391 17.5C8.54994 17.5 6.64224 16.7098 5.23572 15.3033C3.82919 13.8968 3.03906 11.9891 3.03906 10C3.03906 8.01088 3.82919 6.10322 5.23572 4.6967C6.64224 3.29018 8.54994 2.5 10.5391 2.5C12.5282 2.5 14.4359 3.29018 15.8424 4.6967C17.249 6.10322 18.0391 8.01088 18.0391 10C18.0391 11.9891 17.249 13.8968 15.8424 15.3033C14.4359 16.7098 12.5282 17.5 10.5391 17.5ZM10.5391 3.62C8.84698 3.62 7.22419 4.29218 6.02771 5.48866C4.83123 6.68514 4.15906 8.30792 4.15906 10C4.15906 11.6921 4.83123 13.3149 6.02771 14.5113C7.22419 15.7078 8.84698 16.38 10.5391 16.38C12.2294 16.3773 13.8497 15.704 15.044 14.5078C16.2383 13.3116 16.9091 11.6904 16.9091 10C16.9091 8.30965 16.2383 6.68838 15.044 5.49219C13.8497 4.29599 12.2294 3.62264 10.5391 3.62Z" fill="white"/>
<path opacity="0.5" d="M10.539 13.77C12.6212 13.77 14.3091 12.0821 14.3091 9.99998C14.3091 7.91787 12.6212 6.22998 10.539 6.22998C8.45693 6.22998 6.76904 7.91787 6.76904 9.99998C6.76904 12.0821 8.45693 13.77 10.539 13.77Z" fill="white"/>
<path fill-rule="evenodd" clip-rule="evenodd" d="M20.5391 11H11.5391V20H9.53906V11H0.539062V9H9.53906V0H11.5391V9H20.5391V11Z" fill="white"/>
</g>
<defs>
<clipPath id="clip0_172_17812">
<rect width="20" height="20" fill="white" transform="translate(0.539062)"/>
</clipPath>
</defs>
</svg>
