<svg width="21" height="20" viewBox="0 0 21 20" fill="none" xmlns="http://www.w3.org/2000/svg">
<path d="M10.4609 12C11.5655 12 12.4609 11.1046 12.4609 10C12.4609 8.89543 11.5655 8 10.4609 8C9.35637 8 8.46094 8.89543 8.46094 10C8.46094 11.1046 9.35637 12 10.4609 12Z" fill="white"/>
<path d="M4.76104 15.7C5.56104 16.5 6.56104 17.1 7.66104 17.5L8.06104 16.6C7.16104 16.3 6.26104 15.7 5.56104 15C4.86104 14.3 4.26104 13.4 3.96104 12.5L3.06104 12.9C3.36104 13.8 3.96104 14.8 4.76104 15.7Z" fill="white"/>
<path d="M16.1608 4.3C15.3608 3.5 14.3608 2.9 13.2608 2.5L12.8608 3.4C13.7608 3.7 14.6608 4.3 15.3608 5C16.0608 5.7 16.6608 6.6 16.9608 7.5L17.8608 7.1C17.5608 6.2 16.9608 5.2 16.1608 4.3Z" fill="white"/>
<path opacity="0.5" d="M5.76074 8.30078L6.66074 8.70078C6.86074 8.20078 7.16074 7.70078 7.56074 7.20078C7.96074 6.70078 8.46074 6.50078 9.06074 6.30078L8.76074 5.30078C8.06074 5.60078 7.46074 5.90078 6.96074 6.50078C6.46074 7.10078 6.06074 7.60078 5.76074 8.30078Z" fill="white"/>
<path opacity="0.5" d="M15.1608 11.7008L14.2608 11.3008C14.0608 11.8008 13.7608 12.3008 13.3608 12.8008C12.9608 13.3008 12.4608 13.5008 11.8608 13.7008L12.2608 14.6008C12.9608 14.4008 13.5608 14.0008 14.0608 13.5008C14.5608 13.0008 14.8608 12.4008 15.1608 11.7008Z" fill="white"/>
<path opacity="0.5" d="M6.96074 13.5004C7.46074 14.0004 8.06074 14.4004 8.76074 14.6004L9.16074 13.7004C8.66074 13.5004 8.16074 13.2004 7.66074 12.8004C7.16074 12.4004 6.96074 11.9004 6.76074 11.4004L5.76074 11.7004C6.06074 12.4004 6.36074 13.0004 6.96074 13.5004Z" fill="white"/>
<path opacity="0.5" d="M13.9608 6.50078C13.4608 5.90078 12.8608 5.60078 12.1608 5.30078L11.8608 6.30078C12.3608 6.50078 12.8608 6.80078 13.3608 7.20078C13.8608 7.60078 14.0608 8.10078 14.2608 8.70078L15.1608 8.30078C14.8608 7.60078 14.5608 7.00078 13.9608 6.50078Z" fill="white"/>
<path d="M2.96094 7.2L3.86094 7.6C4.16094 6.7 4.76094 5.8 5.46094 5.1C6.16094 4.4 7.06094 3.8 7.96094 3.5L7.66094 2.5C6.66094 2.9 5.66094 3.5 4.76094 4.3C3.86094 5.1 3.36094 6.2 2.96094 7.2Z" fill="white"/>
<path d="M17.9609 12.8004L17.0609 12.4004C16.7609 13.3004 16.1609 14.2004 15.4609 14.9004C14.7609 15.6004 13.8609 16.2004 12.9609 16.5004L13.3609 17.4004C14.3609 17.0004 15.3609 16.4004 16.2609 15.6004C17.1609 14.8004 17.5609 13.8004 17.9609 12.8004Z" fill="white"/>
</svg>
