<svg width="20" height="21" viewBox="0 0 20 21" fill="none" xmlns="http://www.w3.org/2000/svg">
<line opacity="0.5" x1="11.636" y1="9.79644" x2="18.8063" y2="5.17246" stroke="white" stroke-miterlimit="10" stroke-dasharray="1 1"/>
<path d="M14.3491 7.17994C11.83 3.33345 7.28287 2.06362 5.99225 2.94863L1.32026 6.38854C0.836274 6.72042 0.598896 7.23898 0.472144 7.91886C0.573546 7.37495 0.946901 6.88175 1.29491 6.52452C2.90818 5.41825 6.97137 7.01996 9.37981 10.7051C11.9242 14.4156 11.9796 18.6471 10.3663 19.7533C10.0436 19.9746 9.44903 20.1451 8.76915 20.0184C9.44903 20.1451 10.0183 20.1106 10.5023 19.7787L15.2849 16.5001C16.5755 15.6151 17.0295 10.9158 14.3491 7.17994Z" fill="white"/>
<path opacity="0.5" d="M1.43021 6.55004C3.04348 5.44378 7.10666 7.04549 9.5151 10.7307C11.9235 14.4158 12.1149 18.6726 10.5016 19.7789C8.88832 20.8851 4.98647 19.1728 2.44206 15.4623C-0.102351 11.7517 -0.319032 7.63096 1.43021 6.55004Z" fill="white"/>
<path d="M16.677 6.71622L19.4255 7.21768L19.927 4.46911L17.1784 3.96765L16.677 6.71622Z" fill="white"/>
</svg>
