<svg width="21" height="20" viewBox="0 0 21 20" fill="none" xmlns="http://www.w3.org/2000/svg">
<g clip-path="url(#clip0_172_17802)">
<path opacity="0.5" d="M12.5391 20L20.5391 16V4L12.5391 0V1.5L19.5391 4.58V15.42L12.5391 18.5V20Z" fill="white"/>
<path opacity="0.5" d="M10.5391 3.5C8.88287 3.57021 7.32185 4.29346 6.19746 5.51156C5.07306 6.72965 4.4768 8.34346 4.5391 10C4.4768 11.6565 5.07306 13.2703 6.19746 14.4884C7.32185 15.7065 8.88287 16.4298 10.5391 16.5C12.1953 16.4298 13.7564 15.7065 14.8807 14.4884C16.0051 13.2703 16.6014 11.6565 16.5391 10C16.6014 8.34346 16.0051 6.72965 14.8807 5.51156C13.7564 4.29346 12.1953 3.57021 10.5391 3.5Z" fill="white"/>
<path d="M0.539062 3V17L12.5391 20V0L0.539062 3ZM1.53906 8L11.5391 7.15V12.9L1.53906 12V8ZM11.5391 1.49V6L1.53906 7V3.78L11.5391 1.49ZM1.53906 16.22V13.05L11.5391 14V18.6L1.53906 16.22Z" fill="white"/>
<path d="M19.539 7.63018L12.469 5.93018L12.439 6.99018L19.539 7.93018V7.63018Z" fill="white"/>
<path d="M19.539 12.0698L12.439 13.0098L12.489 14.0998L19.539 12.4098V12.0698Z" fill="white"/>
</g>
<defs>
<clipPath id="clip0_172_17802">
<rect width="20" height="20" fill="white" transform="translate(0.539062)"/>
</clipPath>
</defs>
</svg>
