<svg width="22" height="21" viewBox="0 0 22 21" fill="none" xmlns="http://www.w3.org/2000/svg">
<g clip-path="url(#clip0_172_17818)">
<path d="M12.6761 7.61431C12.7765 9.38141 12.8768 11.1353 12.9872 12.8892C13.9102 12.8892 14.8333 12.8892 15.7664 12.8892C15.5256 11.1353 15.2948 9.38141 15.0741 7.61431C14.2714 7.61431 13.4688 7.61431 12.6761 7.61431Z" fill="white"/>
<path d="M9.68622 7.61431C9.62602 9.38141 9.57585 11.1353 9.51565 12.8892C10.4387 12.8892 11.3618 12.8892 12.2949 12.8892C12.2247 11.1353 12.1444 9.38141 12.0742 7.61431C11.2815 7.61431 10.4889 7.61431 9.68622 7.61431Z" fill="white"/>
<path d="M7.40865 1.02064C7.21802 2.78775 7.01735 4.54166 6.81669 6.29558C7.59929 6.29558 8.37185 6.29558 9.14442 6.29558C9.23472 4.54166 9.32502 2.78775 9.41532 1.02064C8.74309 1.02064 8.08089 1.02064 7.40865 1.02064Z" fill="white"/>
<path d="M6.66619 7.61431C6.45549 9.38141 6.23475 11.1353 6.03409 12.8892C6.95715 12.8892 7.89025 12.8892 8.82335 12.8892C8.90362 11.1353 8.99392 9.38141 9.08422 7.61431C8.28155 7.61431 7.47889 7.61431 6.66619 7.61431Z" fill="white"/>
<path d="M9.46549 14.208C9.41532 15.9751 9.36515 17.729 9.31499 19.4829C10.4086 19.4829 11.4922 19.4829 12.5758 19.4829C12.5056 17.729 12.4153 15.9751 12.3551 14.208C11.3919 14.208 10.4287 14.208 9.46549 14.208Z" fill="white"/>
<path d="M12.345 1.02064C12.4253 2.78775 12.5156 4.54166 12.5959 6.29558C13.3584 6.29558 14.131 6.29558 14.9136 6.29558C14.6928 4.54166 14.4922 2.78775 14.3015 1.02064C13.6494 1.02064 12.9972 1.02064 12.345 1.02064Z" fill="white"/>
<path d="M13.0675 14.208C13.1778 15.9751 13.2882 17.729 13.3986 19.4829C14.4922 19.4829 15.5758 19.4829 16.6493 19.4829C16.4085 17.729 16.1778 15.9751 15.937 14.208C14.9738 14.208 14.0206 14.208 13.0675 14.208Z" fill="white"/>
<path d="M5.86352 14.208C5.65282 15.9751 5.44212 17.729 5.24146 19.4829C6.32505 19.4829 7.40865 19.4829 8.49225 19.4829C8.58255 17.729 8.66282 15.9751 8.75312 14.208C7.78992 14.208 6.82672 14.208 5.86352 14.208Z" fill="white"/>
<path d="M9.90695 1.02064C9.84675 2.78775 9.78655 4.54166 9.73639 6.29558C10.4989 6.29558 11.2615 6.29558 12.034 6.29558C11.9738 4.54166 11.9136 2.78775 11.8635 1.02064C11.2113 1.02064 10.5591 1.02064 9.90695 1.02064Z" fill="white"/>
<path opacity="0.5" d="M1.07694 10.6294L1.96394 10.9471L3.23483 7.3991L5.00882 8.03455L4.06222 3.69225L0.573838 6.44594L2.34783 7.08138L1.07694 10.6294Z" fill="white"/>
<path opacity="0.5" d="M19.027 11.1513L19.9441 10.9356L19.0816 7.26691L20.916 6.83564L17.7605 3.70603L16.3301 7.91382L18.1644 7.48255L19.027 11.1513Z" fill="white"/>
</g>
<defs>
<clipPath id="clip0_172_17818">
<rect width="20.5039" height="20.5039" fill="white" transform="translate(0.539062 20.5039) rotate(-90)"/>
</clipPath>
</defs>
</svg>
