<?xml version="1.0" encoding="UTF-8"?>
<!DOCTYPE svg PUBLIC "-//W3C//DTD SVG 1.1//EN" "http://www.w3.org/Graphics/SVG/1.1/DTD/svg11.dtd">
<svg xmlns="http://www.w3.org/2000/svg" version="1.1" width="40px" height="40px" style="shape-rendering:geometricPrecision; text-rendering:geometricPrecision; image-rendering:optimizeQuality; fill-rule:evenodd; clip-rule:evenodd" xmlns:xlink="http://www.w3.org/1999/xlink">
<g><path style="opacity:1" fill="#414141" d="M -0.5,-0.5 C 12.8333,-0.5 26.1667,-0.5 39.5,-0.5C 39.5,10.5 39.5,21.5 39.5,32.5C 38.8333,32.1667 38.1667,31.8333 37.5,31.5C 38.6089,24.9569 35.9423,21.2903 29.5,20.5C 29.5,19.5 29.5,18.5 29.5,17.5C 31.4147,17.7845 33.0813,17.4511 34.5,16.5C 33.7659,15.2921 33.4326,13.9587 33.5,12.5C 33.5,12.1667 33.5,11.8333 33.5,11.5C 33.7678,9.90097 33.4345,8.56764 32.5,7.5C 32.5,5.83333 32.5,4.16667 32.5,2.5C 31.1667,2.5 29.8333,2.5 28.5,2.5C 28.5,3.5 28.5,4.5 28.5,5.5C 27.596,4.79105 27.2627,3.79105 27.5,2.5C 26.1667,2.5 24.8333,2.5 23.5,2.5C 21.8333,2.5 20.1667,2.5 18.5,2.5C 18.5,3.83333 18.5,5.16667 18.5,6.5C 18.1667,6.5 17.8333,6.5 17.5,6.5C 17.5,4.83333 17.5,3.16667 17.5,1.5C 16.1667,1.5 14.8333,1.5 13.5,1.5C 13.5,3.16667 13.5,4.83333 13.5,6.5C 13.1667,6.5 12.8333,6.5 12.5,6.5C 12.5,4.83333 12.5,3.16667 12.5,1.5C 10.8333,1.5 9.16667,1.5 7.5,1.5C 7.16667,1.5 6.83333,1.5 6.5,1.5C 4.73535,0.538616 2.73535,0.205283 0.5,0.5C 0.5,2.16667 0.5,3.83333 0.5,5.5C 0.5,5.83333 0.5,6.16667 0.5,6.5C 0.5,8.16667 0.5,9.83333 0.5,11.5C 0.5,13.1667 0.5,14.8333 0.5,16.5C 0.5,16.8333 0.5,17.1667 0.5,17.5C 0.5,19.1667 0.5,20.8333 0.5,22.5C 0.5,22.8333 0.5,23.1667 0.5,23.5C 0.215521,25.4147 0.548855,27.0813 1.5,28.5C 1.5,28.8333 1.5,29.1667 1.5,29.5C 0.852871,30.2739 0.519537,31.2739 0.5,32.5C 0.639851,34.0296 1.30652,35.0296 2.5,35.5C 1.14976,36.6499 1.31643,37.3166 3,37.5C 9.66884,36.5735 16.3355,35.5735 23,34.5C 28.0974,37.6286 33.5974,38.2952 39.5,36.5C 39.5,37.5 39.5,38.5 39.5,39.5C 26.1667,39.5 12.8333,39.5 -0.5,39.5C -0.5,26.1667 -0.5,12.8333 -0.5,-0.5 Z"/></g>
<g><path style="opacity:1" fill="#1c1c1c" d="M 6.5,1.5 C 6.5,2.83333 6.5,4.16667 6.5,5.5C 4.5,5.5 2.5,5.5 0.5,5.5C 0.5,3.83333 0.5,2.16667 0.5,0.5C 2.73535,0.205283 4.73535,0.538616 6.5,1.5 Z"/></g>
<g><path style="opacity:1" fill="#fbfbfb" d="M 7.5,1.5 C 9.16667,1.5 10.8333,1.5 12.5,1.5C 12.5,3.16667 12.5,4.83333 12.5,6.5C 11.1667,6.5 9.83333,6.5 8.5,6.5C 7.69929,4.95819 7.36596,3.29152 7.5,1.5 Z"/></g>
<g><path style="opacity:1" fill="#f8f8f8" d="M 23.5,2.5 C 23.5,3.83333 23.5,5.16667 23.5,6.5C 21.8333,6.5 20.1667,6.5 18.5,6.5C 18.5,5.16667 18.5,3.83333 18.5,2.5C 20.1667,2.5 21.8333,2.5 23.5,2.5 Z"/></g>
<g><path style="opacity:1" fill="#272727" d="M 23.5,2.5 C 24.8333,2.5 26.1667,2.5 27.5,2.5C 27.2627,3.79105 27.596,4.79105 28.5,5.5C 28.5,6.16667 28.5,6.83333 28.5,7.5C 26.8333,7.5 25.1667,7.5 23.5,7.5C 21.8333,7.5 20.1667,7.5 18.5,7.5C 18.5,7.16667 18.5,6.83333 18.5,6.5C 20.1667,6.5 21.8333,6.5 23.5,6.5C 23.5,5.16667 23.5,3.83333 23.5,2.5 Z"/></g>
<g><path style="opacity:1" fill="#efefef" d="M 32.5,7.5 C 31.1667,7.5 29.8333,7.5 28.5,7.5C 28.5,6.83333 28.5,6.16667 28.5,5.5C 28.5,4.5 28.5,3.5 28.5,2.5C 29.8333,2.5 31.1667,2.5 32.5,2.5C 32.5,4.16667 32.5,5.83333 32.5,7.5 Z"/></g>
<g><path style="opacity:1" fill="#101010" d="M 17.5,6.5 C 16.1667,6.5 14.8333,6.5 13.5,6.5C 13.5,4.83333 13.5,3.16667 13.5,1.5C 14.8333,1.5 16.1667,1.5 17.5,1.5C 17.5,3.16667 17.5,4.83333 17.5,6.5 Z"/></g>
<g><path style="opacity:1" fill="#f7f7f7" d="M 0.5,6.5 C 2.5,6.5 4.5,6.5 6.5,6.5C 6.5,8.16667 6.5,9.83333 6.5,11.5C 4.5,11.5 2.5,11.5 0.5,11.5C 0.5,9.83333 0.5,8.16667 0.5,6.5 Z"/></g>
<g><path style="opacity:1" fill="#fafafa" d="M 13.5,6.5 C 14.8333,6.5 16.1667,6.5 17.5,6.5C 17.8333,6.5 18.1667,6.5 18.5,6.5C 18.5,6.83333 18.5,7.16667 18.5,7.5C 18.5,8.83333 18.5,10.1667 18.5,11.5C 16.8333,11.5 15.1667,11.5 13.5,11.5C 13.5,9.83333 13.5,8.16667 13.5,6.5 Z"/></g>
<g><path style="opacity:1" fill="#080808" d="M 18.5,7.5 C 20.1667,7.5 21.8333,7.5 23.5,7.5C 23.5,8.83333 23.5,10.1667 23.5,11.5C 21.8333,11.5 20.1667,11.5 18.5,11.5C 18.5,10.1667 18.5,8.83333 18.5,7.5 Z"/></g>
<g><path style="opacity:1" fill="#f5f5f5" d="M 23.5,7.5 C 25.1667,7.5 26.8333,7.5 28.5,7.5C 28.5,7.83333 28.5,8.16667 28.5,8.5C 28.5,9.5 28.5,10.5 28.5,11.5C 26.8333,11.5 25.1667,11.5 23.5,11.5C 23.5,10.1667 23.5,8.83333 23.5,7.5 Z"/></g>
<g><path style="opacity:1" fill="#0d0d0d" d="M 28.5,8.5 C 28.5,8.16667 28.5,7.83333 28.5,7.5C 29.8333,7.5 31.1667,7.5 32.5,7.5C 33.4345,8.56764 33.7678,9.90097 33.5,11.5C 32.1667,11.5 30.8333,11.5 29.5,11.5C 29.7373,10.209 29.404,9.20895 28.5,8.5 Z"/></g>
<g><path style="opacity:1" fill="#161616" d="M 0.5,11.5 C 2.5,11.5 4.5,11.5 6.5,11.5C 6.5,13.1667 6.5,14.8333 6.5,16.5C 4.5,16.5 2.5,16.5 0.5,16.5C 0.5,14.8333 0.5,13.1667 0.5,11.5 Z"/></g>
<g><path style="opacity:1" fill="#151515" d="M 29.5,15.5 C 29.5,15.8333 29.5,16.1667 29.5,16.5C 27.8333,16.5 26.1667,16.5 24.5,16.5C 24.5,15.1667 24.5,13.8333 24.5,12.5C 25.8333,12.5 27.1667,12.5 28.5,12.5C 28.2627,13.791 28.596,14.791 29.5,15.5 Z"/></g>
<g><path style="opacity:1" fill="#d0d0d0" d="M 33.5,12.5 C 33.4326,13.9587 33.7659,15.2921 34.5,16.5C 32.8333,16.5 31.1667,16.5 29.5,16.5C 29.5,16.1667 29.5,15.8333 29.5,15.5C 29.5,14.5 29.5,13.5 29.5,12.5C 30.8333,12.5 32.1667,12.5 33.5,12.5 Z"/></g>
<g><path style="opacity:1" fill="#848585" d="M 6.5,1.5 C 6.83333,1.5 7.16667,1.5 7.5,1.5C 7.36596,3.29152 7.69929,4.95819 8.5,6.5C 7.54885,7.91866 7.21552,9.58533 7.5,11.5C 7.5,13.1667 7.5,14.8333 7.5,16.5C 9.16667,16.5 10.8333,16.5 12.5,16.5C 12.5,14.8333 12.5,13.1667 12.5,11.5C 12.5,9.83333 12.5,8.16667 12.5,6.5C 12.8333,6.5 13.1667,6.5 13.5,6.5C 13.5,8.16667 13.5,9.83333 13.5,11.5C 13.5,13.1667 13.5,14.8333 13.5,16.5C 15.1667,16.5 16.8333,16.5 18.5,16.5C 20.1667,16.5 21.8333,16.5 23.5,16.5C 23.5,15.1667 23.5,13.8333 23.5,12.5C 21.8333,12.5 20.1667,12.5 18.5,12.5C 18.5,12.1667 18.5,11.8333 18.5,11.5C 20.1667,11.5 21.8333,11.5 23.5,11.5C 25.1667,11.5 26.8333,11.5 28.5,11.5C 28.5,10.5 28.5,9.5 28.5,8.5C 29.404,9.20895 29.7373,10.209 29.5,11.5C 30.8333,11.5 32.1667,11.5 33.5,11.5C 33.5,11.8333 33.5,12.1667 33.5,12.5C 32.1667,12.5 30.8333,12.5 29.5,12.5C 29.5,13.5 29.5,14.5 29.5,15.5C 28.596,14.791 28.2627,13.791 28.5,12.5C 27.1667,12.5 25.8333,12.5 24.5,12.5C 24.5,13.8333 24.5,15.1667 24.5,16.5C 26.1667,16.5 27.8333,16.5 29.5,16.5C 31.1667,16.5 32.8333,16.5 34.5,16.5C 33.0813,17.4511 31.4147,17.7845 29.5,17.5C 29.5,18.5 29.5,19.5 29.5,20.5C 27.4862,20.3915 25.8195,21.0582 24.5,22.5C 24.5,20.8333 24.5,19.1667 24.5,17.5C 22.8333,17.5 21.1667,17.5 19.5,17.5C 19.5,19.1667 19.5,20.8333 19.5,22.5C 19.1667,22.5 18.8333,22.5 18.5,22.5C 18.5,20.8333 18.5,19.1667 18.5,17.5C 16.8333,17.5 15.1667,17.5 13.5,17.5C 11.5,17.5 9.5,17.5 7.5,17.5C 7.5,19.1667 7.5,20.8333 7.5,22.5C 7.5,24.5 7.5,26.5 7.5,28.5C 7.5,28.8333 7.5,29.1667 7.5,29.5C 5.5,29.5 3.5,29.5 1.5,29.5C 1.5,29.1667 1.5,28.8333 1.5,28.5C 3.16667,28.5 4.83333,28.5 6.5,28.5C 6.5,26.8333 6.5,25.1667 6.5,23.5C 4.5,23.5 2.5,23.5 0.5,23.5C 0.5,23.1667 0.5,22.8333 0.5,22.5C 2.5,22.5 4.5,22.5 6.5,22.5C 6.5,20.8333 6.5,19.1667 6.5,17.5C 4.5,17.5 2.5,17.5 0.5,17.5C 0.5,17.1667 0.5,16.8333 0.5,16.5C 2.5,16.5 4.5,16.5 6.5,16.5C 6.5,14.8333 6.5,13.1667 6.5,11.5C 6.5,9.83333 6.5,8.16667 6.5,6.5C 4.5,6.5 2.5,6.5 0.5,6.5C 0.5,6.16667 0.5,5.83333 0.5,5.5C 2.5,5.5 4.5,5.5 6.5,5.5C 6.5,4.16667 6.5,2.83333 6.5,1.5 Z"/></g>
<g><path style="opacity:1" fill="#ececec" d="M 18.5,12.5 C 20.1667,12.5 21.8333,12.5 23.5,12.5C 23.5,13.8333 23.5,15.1667 23.5,16.5C 21.8333,16.5 20.1667,16.5 18.5,16.5C 18.5,15.1667 18.5,13.8333 18.5,12.5 Z"/></g>
<g><path style="opacity:1" fill="#141414" d="M 13.5,11.5 C 15.1667,11.5 16.8333,11.5 18.5,11.5C 18.5,11.8333 18.5,12.1667 18.5,12.5C 18.5,13.8333 18.5,15.1667 18.5,16.5C 16.8333,16.5 15.1667,16.5 13.5,16.5C 13.5,14.8333 13.5,13.1667 13.5,11.5 Z"/></g>
<g><path style="opacity:1" fill="#fefefe" d="M 7.5,11.5 C 9.16667,11.5 10.8333,11.5 12.5,11.5C 12.5,13.1667 12.5,14.8333 12.5,16.5C 10.8333,16.5 9.16667,16.5 7.5,16.5C 7.5,14.8333 7.5,13.1667 7.5,11.5 Z"/></g>
<g><path style="opacity:1" fill="#0f0f0f" d="M 8.5,6.5 C 9.83333,6.5 11.1667,6.5 12.5,6.5C 12.5,8.16667 12.5,9.83333 12.5,11.5C 10.8333,11.5 9.16667,11.5 7.5,11.5C 7.21552,9.58533 7.54885,7.91866 8.5,6.5 Z"/></g>
<g><path style="opacity:1" fill="#fdfdfd" d="M 0.5,17.5 C 2.5,17.5 4.5,17.5 6.5,17.5C 6.5,19.1667 6.5,20.8333 6.5,22.5C 4.5,22.5 2.5,22.5 0.5,22.5C 0.5,20.8333 0.5,19.1667 0.5,17.5 Z"/></g>
<g><path style="opacity:1" fill="#151515" d="M 13.5,17.5 C 13.5,19.1667 13.5,20.8333 13.5,22.5C 11.5,22.5 9.5,22.5 7.5,22.5C 7.5,20.8333 7.5,19.1667 7.5,17.5C 9.5,17.5 11.5,17.5 13.5,17.5 Z"/></g>
<g><path style="opacity:1" fill="#f3f3f3" d="M 13.5,17.5 C 15.1667,17.5 16.8333,17.5 18.5,17.5C 18.5,19.1667 18.5,20.8333 18.5,22.5C 16.8333,22.5 15.1667,22.5 13.5,22.5C 13.5,20.8333 13.5,19.1667 13.5,17.5 Z"/></g>
<g><path style="opacity:1" fill="#242424" d="M 24.5,22.5 C 22.8333,22.5 21.1667,22.5 19.5,22.5C 19.5,20.8333 19.5,19.1667 19.5,17.5C 21.1667,17.5 22.8333,17.5 24.5,17.5C 24.5,19.1667 24.5,20.8333 24.5,22.5 Z"/></g>
<g><path style="opacity:1" fill="#f8f8f8" d="M 7.5,22.5 C 9.5,22.5 11.5,22.5 13.5,22.5C 13.5,24.5 13.5,26.5 13.5,28.5C 11.5,28.5 9.5,28.5 7.5,28.5C 7.5,26.5 7.5,24.5 7.5,22.5 Z"/></g>
<g><path style="opacity:1" fill="#7b7b7d" d="M 19.5,22.5 C 21.1667,22.5 22.8333,22.5 24.5,22.5C 23.8333,23.5 23.1667,24.5 22.5,25.5C 21.8999,26.9002 20.8999,27.9002 19.5,28.5C 19.5,26.5 19.5,24.5 19.5,22.5 Z"/></g>
<g><path style="opacity:1" fill="#181818" d="M 0.5,23.5 C 2.5,23.5 4.5,23.5 6.5,23.5C 6.5,25.1667 6.5,26.8333 6.5,28.5C 4.83333,28.5 3.16667,28.5 1.5,28.5C 0.548855,27.0813 0.215521,25.4147 0.5,23.5 Z"/></g>
<g><path style="opacity:1" fill="#1f1f1f" d="M 13.5,22.5 C 15.1667,22.5 16.8333,22.5 18.5,22.5C 18.8333,22.5 19.1667,22.5 19.5,22.5C 19.5,24.5 19.5,26.5 19.5,28.5C 17.5,28.5 15.5,28.5 13.5,28.5C 13.5,26.5 13.5,24.5 13.5,22.5 Z"/></g>
<g><path style="opacity:1" fill="#f7f7f7" d="M 1.5,29.5 C 3.5,29.5 5.5,29.5 7.5,29.5C 7.5,31.5 7.5,33.5 7.5,35.5C 5.83333,35.5 4.16667,35.5 2.5,35.5C 1.30652,35.0296 0.639851,34.0296 0.5,32.5C 0.519537,31.2739 0.852871,30.2739 1.5,29.5 Z"/></g>
<g><path style="opacity:1" fill="#7791c8" d="M 29.5,20.5 C 35.9423,21.2903 38.6089,24.9569 37.5,31.5C 34.4081,34.3549 30.7414,35.1882 26.5,34C 23.6792,31.8587 22.3459,29.0254 22.5,25.5C 23.1667,24.5 23.8333,23.5 24.5,22.5C 25.8195,21.0582 27.4862,20.3915 29.5,20.5 Z"/></g>
<g><path style="opacity:1" fill="#dceef2" d="M 26.5,22.5 C 30.3491,22.0193 32.3491,23.686 32.5,27.5C 28.4399,28.1518 26.4399,26.4851 26.5,22.5 Z"/></g>
<g><path style="opacity:1" fill="#1b1b1d" d="M 22.5,25.5 C 22.3459,29.0254 23.6792,31.8587 26.5,34C 30.7414,35.1882 34.4081,34.3549 37.5,31.5C 38.1667,31.8333 38.8333,32.1667 39.5,32.5C 39.5,33.8333 39.5,35.1667 39.5,36.5C 33.5974,38.2952 28.0974,37.6286 23,34.5C 16.3355,35.5735 9.66884,36.5735 3,37.5C 1.31643,37.3166 1.14976,36.6499 2.5,35.5C 4.16667,35.5 5.83333,35.5 7.5,35.5C 7.5,33.5 7.5,31.5 7.5,29.5C 7.5,29.1667 7.5,28.8333 7.5,28.5C 9.5,28.5 11.5,28.5 13.5,28.5C 13.5,30.5 13.5,32.5 13.5,34.5C 15.5,34.5 17.5,34.5 19.5,34.5C 19.5,32.5 19.5,30.5 19.5,28.5C 20.8999,27.9002 21.8999,26.9002 22.5,25.5 Z"/></g>
<g><path style="opacity:1" fill="#dfe0e0" d="M 13.5,28.5 C 15.5,28.5 17.5,28.5 19.5,28.5C 19.5,30.5 19.5,32.5 19.5,34.5C 17.5,34.5 15.5,34.5 13.5,34.5C 13.5,32.5 13.5,30.5 13.5,28.5 Z"/></g>
</svg>
