<svg width="21" height="20" viewBox="0 0 21 20" fill="none" xmlns="http://www.w3.org/2000/svg">
<path fill-rule="evenodd" clip-rule="evenodd" d="M10.4609 5C4.46094 5 0.710938 10.5 0.710938 10.5C0.710938 10.5 4.46094 16 10.4609 16C16.4609 16 20.2109 10.5 20.2109 10.5C20.2109 10.5 16.4609 5 10.4609 5ZM10.4609 15.25C9.20116 15.25 7.99297 14.7496 7.10217 13.8588C6.21138 12.968 5.71094 11.7598 5.71094 10.5C5.71094 9.24022 6.21138 8.03203 7.10217 7.14124C7.99297 6.25044 9.20116 5.75 10.4609 5.75C11.7207 5.75 12.9289 6.25044 13.8197 7.14124C14.7105 8.03203 15.2109 9.24022 15.2109 10.5C15.2109 11.7598 14.7105 12.968 13.8197 13.8588C12.9289 14.7496 11.7207 15.25 10.4609 15.25Z" fill="white"/>
<path fill-rule="evenodd" clip-rule="evenodd" d="M7.93091 7.19995C8.29425 7.19995 8.64273 7.34439 8.89966 7.60132C9.15658 7.85824 9.3009 8.2066 9.3009 8.56995C9.3009 8.93329 9.15658 9.28177 8.89966 9.5387C8.64273 9.79562 8.29425 9.93994 7.93091 9.93994C7.56756 9.93994 7.21908 9.79562 6.96216 9.5387C6.70523 9.28177 6.56091 8.93329 6.56091 8.56995C6.56091 8.2066 6.70523 7.85824 6.96216 7.60132C7.21908 7.34439 7.56756 7.19995 7.93091 7.19995Z" fill="white"/>
</svg>
