<svg width="16" height="16" viewBox="0 0 16 16" fill="none" xmlns="http://www.w3.org/2000/svg">
<rect x="10.5469" y="3.59033" width="2.64221" height="9.82779" rx="1.3211" transform="rotate(45 10.5469 3.59033)" fill="white"/>
<rect x="11.1641" y="-0.624587" width="7.71816" height="16.6757" rx="3.85908" transform="rotate(45 11.1641 -0.624587)" stroke="white" stroke-dasharray="1.5 1.5"/>
<path d="M2.79326 2.83267C1.16135 4.46459 0.495914 6.52653 0.367188 7.35352C0.367188 7.35352 2.22542 4.94423 3.59263 3.57701C4.95985 2.20979 7.36914 0.351562 7.36914 0.351562C6.52381 0.498634 4.42518 1.20076 2.79326 2.83267Z" fill="white"/>
<path d="M13.1755 13.1712C14.8074 11.5393 15.4728 9.47737 15.6016 8.65039C15.6016 8.65039 13.7433 11.0597 12.3761 12.4269C11.0089 13.7941 8.59961 15.6523 8.59961 15.6523C9.44494 15.5053 11.5436 14.8031 13.1755 13.1712Z" fill="white"/>
</svg>
