<svg width="20" height="20" viewBox="0 0 20 20" fill="none" xmlns="http://www.w3.org/2000/svg">
<g clip-path="url(#clip0_16319_18081)">
<path opacity="0.5" d="M15.78 10.06L17.18 8.48999L9.54999 0.48999L0 2.76999V14.21L9.54999 17.07L10.96 15.49V14L9.78998 15.32L8.40997 9.12H15.3L14.96 9.5L15.78 10.06ZM6.57001 8.5L1 12.68V4.32001L6.57001 8.5ZM1.79999 3.35999L8.67999 1.69L7.22998 7.44L1.79999 3.35999ZM7.21002 9.57999L8.58002 15.74L1.73999 13.68L7.21002 9.57999ZM8.40997 7.88L9.84003 2.20001L15.22 7.88H8.40997Z" fill="white"/>
<path d="M19.32 15.26L12 9L12.09 18.63L14.23 15.69L16.3 20L17.84 19.26L15.78 14.98L19.32 15.26Z" fill="white"/>
<path d="M1.80078 3.35994L8.68078 1.68994L7.24078 7.43994L1.80078 3.35994Z" fill="white"/>
<path d="M8.41016 7.87995L9.84016 2.19995L15.2202 7.87995H8.41016Z" fill="white"/>
</g>
<defs>
<clipPath id="clip0_16319_18081">
<rect width="20" height="20" fill="white"/>
</clipPath>
</defs>
</svg>
