<svg width="20" height="20" viewBox="0 0 20 20" fill="none" xmlns="http://www.w3.org/2000/svg">
<path opacity="0.5" d="M12.5 19.5C16.366 19.5 19.5 16.366 19.5 12.5C19.5 8.63401 16.366 5.5 12.5 5.5C8.63401 5.5 5.5 8.63401 5.5 12.5C5.5 16.366 8.63401 19.5 12.5 19.5Z" fill="white"/>
<path d="M13.3996 16.3999C13.8996 16.0999 14.2996 15.5999 14.4996 15.1999C14.6996 14.6999 14.7996 14.1999 14.7996 13.6999C14.7996 13.3999 14.7996 13.0999 14.6996 12.8999V12.6999C14.6996 12.5999 14.6996 12.5999 14.6996 12.5999C14.6996 12.4999 14.5996 12.4999 14.5996 12.3999C14.3996 12.0999 13.8996 11.6999 13.4996 11.4999C13.3996 11.3999 13.2996 11.3999 13.1996 11.2999C13.0996 11.2999 12.9996 11.1999 12.9996 11.2999C13.0996 11.2999 12.9996 11.2999 12.8996 11.2999H12.6996H12.2996C11.6996 11.2999 11.0996 11.2999 10.4996 11.0999C10.1996 10.9999 9.79965 10.8999 9.59965 10.7999C9.29965 10.6999 8.99965 10.5999 8.69965 10.3999C8.39965 10.1999 7.99965 9.9999 7.69965 9.6999C7.49965 9.3999 7.29965 8.8999 7.39965 8.4999C7.39965 8.3999 7.49965 8.3999 7.59965 8.3999C7.59965 8.3999 7.59965 8.3999 7.69965 8.3999C8.19965 8.7999 8.59965 8.6999 9.19965 8.6999C9.69965 8.5999 10.3996 8.5999 10.8996 8.5999C11.4996 8.5999 11.9996 8.5999 12.6996 8.7999L13.7996 9.0999C14.0996 9.1999 14.2996 9.2999 14.4996 9.4999C14.6996 9.5999 14.7996 9.6999 14.8996 9.8999C15.3996 10.3999 15.8996 10.8999 16.1996 11.6999C16.2996 11.8999 16.2996 12.0999 16.3996 12.3999C16.3996 12.4999 16.3996 12.6999 16.3996 12.7999V12.9999C16.3996 13.2999 16.2996 13.5999 16.2996 13.9999C16.1996 14.6999 15.8996 15.2999 15.3996 15.7999C14.8996 16.2999 14.3996 16.5999 13.7996 16.7999C13.6996 16.7999 13.6996 16.7999 13.5996 16.6999C13.3996 16.4999 13.3996 16.3999 13.3996 16.3999Z" fill="white"/>
<path opacity="0.5" d="M5.70078 7.3999L4.80078 6.4999C4.80078 6.4999 6.30078 4.6999 7.10078 3.7999C7.90078 2.8999 11.7008 0.0999023 11.7008 0.0999023C11.8008 -9.76548e-05 12.0008 -9.76548e-05 12.1008 0.0999023C12.2008 0.199902 12.2008 0.399902 12.1008 0.499902C12.1008 0.499902 9.20078 4.1999 8.30078 5.0999C7.40078 5.9999 5.70078 7.3999 5.70078 7.3999Z" fill="white"/>
<path d="M4.9 7.70017L4.3 7.00017C4.3 7.00017 2.8 6.70017 2.2 8.80017C1.8 10.1002 0 11.0002 0 11.0002C0 11.0002 1.6 11.0002 2.3 11.0002C3 11.0002 4.1 10.7002 4.7 9.50017C5.2 8.40017 4.9 7.70017 4.9 7.70017Z" fill="white"/>
</svg>
