<svg width="20" height="20" viewBox="0 0 20 20" fill="none" xmlns="http://www.w3.org/2000/svg">
<g clip-path="url(#clip0_16320_18120)">
<path opacity="0.5" d="M9.71953 0C9.02953 0 8.34953 0.26 7.81953 0.79L1.76953 6.84C0.0195312 8.59 0.0195312 11.41 1.76953 13.16L7.82953 19.22C8.16953 19.56 8.22953 19.6818 9.02953 19.9C9.82953 20.1182 11.5 19 11.5 19H10.5C10.5 19 9.63953 19.04 9.33953 18.97C9.03953 18.9 8.75953 18.75 8.52953 18.53L2.46953 12.47C1.11953 11.12 1.11953 8.92 2.46953 7.57L8.52953 1.49C8.84953 1.17 9.26953 1 9.71953 1C10.1695 1 10.5895 1.17 10.9095 1.49L12.8095 3.39C13.4695 4.05 13.4695 5.11 12.8095 5.77L9.27953 9.3L8.56953 10.01L9.27953 10.72L12.56 14.0005H14L9.99953 10L13.5295 6.47C14.5795 5.42 14.5795 3.73 13.5295 2.68L11.6295 0.78C11.1395 0.29 10.4895 0.02 9.82953 0L9.71953 0Z" fill="white"/>
<path d="M10.38 3.90991C10.05 3.57991 10.75 2.15991 9.29 2.08991C8.46 2.04991 8.52 3.52991 8.77 4.24991L4.25 8.76991C4.25 8.76991 2.75 8.71991 2.75 9.97991C2.75 11.2399 4.24 11.1899 4.24 11.1899L8 15V14H9.57807L5.56 9.99991L10.05 5.50991C10.77 5.73991 12.24 5.80991 12.2 4.99991C12.13 3.53991 10.72 4.23991 10.38 3.90991Z" fill="white"/>
<path d="M10 17V15L15 15.0001V12L20 16.0001L15 20V17H10Z" fill="white"/>
</g>
<defs>
<clipPath id="clip0_16320_18120">
<rect width="20" height="20" fill="white"/>
</clipPath>
</defs>
</svg>
