<?xml version="1.0" encoding="utf-8"?>
<!-- Generator: Adobe Illustrator 28.1.0, SVG Export Plug-In . SVG Version: 6.00 Build 0)  -->
<svg version="1.1" id="Layer_1" xmlns="http://www.w3.org/2000/svg" xmlns:xlink="http://www.w3.org/1999/xlink" x="0px" y="0px"
	 viewBox="0 0 16 16" style="enable-background:new 0 0 16 16;" xml:space="preserve">
<style type="text/css">
	.st0{fill:#FFFFFF;}
	.st1{opacity:0.5;fill:#FFFFFF;enable-background:new    ;}
</style>
<path class="st0" d="M16,1H5v3h11V1z"/>
<path class="st0" d="M3,1H0v13h3V1z"/>
<rect x="13" y="6" class="st0" width="3" height="2"/>
<path class="st0" d="M11.3,15l4.5-2.7c0.2-0.1,0.2-0.4,0-0.5L11.3,9c-0.2-0.1-0.3,0-0.3,0.2v5.5C11,14.9,11.2,15.1,11.3,15z"/>
<path class="st1" d="M10,8.1C9.5,8.2,9,8.5,8.5,9.2C7.2,7.3,5.3,7.9,5.3,9.5c0,1.6,1.9,1.8,3.2,3.5c0.5-0.6,1-1.1,1.5-1.4V8.1z"/>
</svg>
