<svg width="21" height="21" viewBox="0 0 21 21" fill="none" xmlns="http://www.w3.org/2000/svg">
<path fill-rule="evenodd" clip-rule="evenodd" d="M18.0721 10.1526C17.4721 8.35256 16.1721 5.35254 14.8721 5.35254C12.9721 5.35254 12.9721 7.15256 12.1721 7.15256C11.7721 7.15256 10.2721 7.15256 9.77205 7.15256C8.97205 7.15256 9.07205 5.35254 7.07205 5.35254C5.77205 5.35254 4.47205 8.45256 3.87205 10.1526C2.77205 13.4526 2.67205 15.0526 4.97205 15.0526C7.67205 15.0526 7.57205 12.0526 10.9721 12.0526C14.2721 12.0526 14.3721 15.0526 16.8721 15.0526C19.2721 15.0526 19.2721 13.4526 18.0721 10.1526ZM9.97205 10.0526H7.97205V12.0526H6.97205V10.0526H4.97205V9.05255H6.97205V7.05255H7.97205V9.05255H9.97205V10.0526ZM14.4721 11.6526C13.3721 11.6526 12.3721 10.7526 12.3721 9.55255C12.3721 8.45255 13.2721 7.45255 14.4721 7.45255C15.6721 7.45255 16.5721 8.35255 16.5721 9.55255C16.5721 10.6526 15.5721 11.6526 14.4721 11.6526Z" fill="white"/>
<path fill-rule="evenodd" clip-rule="evenodd" d="M14.4722 8.55273C13.8722 8.55273 13.4722 8.95273 13.4722 9.55273C13.4722 10.1527 13.8722 10.5527 14.4722 10.5527C15.0722 10.5527 15.4722 10.1527 15.4722 9.55273C15.4722 8.95273 15.0722 8.55273 14.4722 8.55273Z" fill="white"/>
</svg>
