<?xml version="1.0" encoding="utf-8"?>
<!-- Generator: Adobe Illustrator 28.2.0, SVG Export Plug-In . SVG Version: 6.00 Build 0)  -->
<svg version="1.1" xmlns="http://www.w3.org/2000/svg" xmlns:xlink="http://www.w3.org/1999/xlink" x="0px" y="0px"
	 viewBox="0 0 40 40" style="enable-background:new 0 0 40 40;" xml:space="preserve">
<style type="text/css">
	.st0{display:none;}
	.st1{display:inline;fill:#212121;}
	.st2{clip-path:url(#SVGID_00000065788828456620164250000009269081874887748488_);}
	.st3{fill:#FFFFFF;fill-opacity:0.5;}
	.st4{fill:#FFFFFF;}
	.st5{opacity:0.5;fill:#FFFFFF;enable-background:new    ;}
	.st6{opacity:0.5;fill-rule:evenodd;clip-rule:evenodd;fill:#FFFFFF;enable-background:new    ;}
	.st7{display:inline;fill:#FFFFFF;}
	.st8{fill-rule:evenodd;clip-rule:evenodd;fill:#FFFFFF;}
	.st9{display:inline;fill:none;stroke:#FFFFFF;stroke-width:2.5;stroke-linecap:round;stroke-miterlimit:10;}
</style>
<g id="Layer_2" class="st0">
	<rect x="-2" y="-2" class="st1" width="45" height="45"/>
</g>
<g id="EditorMode">
	<g>
		<defs>
			<rect id="SVGID_1_" x="0.2" y="0.7" width="18.8" height="18.8"/>
		</defs>
		<clipPath id="SVGID_00000104691583292472609880000016362224150920775089_">
			<use xlink:href="#SVGID_1_"  style="overflow:visible;"/>
		</clipPath>
		<g style="clip-path:url(#SVGID_00000104691583292472609880000016362224150920775089_);">
			<path class="st3" d="M9.2,5.7l9.5,9.2c0.1,0.2,0.2,0.4,0.2,0.6s-0.1,0.4-0.2,0.6l-0.9,0.9c-0.2,0.2-0.4,0.2-0.6,0.2
				c-0.2,0-0.4-0.1-0.6-0.2L7.8,7.1L9.2,5.7z"/>
			<path class="st4" d="M0.6,7c0.2-0.3,1-0.7,1.3-0.4C2.4,6.4,3,6.1,3.4,5.8c0.4-0.4,0-1.8,0.4-2.2l1.5-1.5C6,1.4,8.7-0.1,13.8,1.2
				l-0.1,0.6c0,0-3.4-0.8-5.2,1c0,0-0.4,1.6-0.1,2l0.2,0.2L7.2,6.5c-1-0.1-2,0-3,0.4C3.9,7.2,3.5,8.3,3.8,8.5c0.3,0.2-0.3,1-0.6,1.2
				L2.8,10L0.4,7.6L0.6,7z"/>
			<path class="st5" d="M8.5,11.4C7.7,12.2,7.1,13,7.1,13l1.3,1.3l1.7-1.4L8.5,11.4z"/>
			<path class="st5" d="M17.1,3.7c0,0-2.5,1.9-4.5,3.5l1.5,1.5c1.6-2,3.5-4.5,3.5-4.5c0.1-0.1,0.1-0.2,0.1-0.3c0-0.1,0-0.2-0.1-0.3
				c-0.1-0.1-0.2-0.1-0.3-0.1C17.3,3.6,17.2,3.6,17.1,3.7L17.1,3.7z"/>
			<path class="st4" d="M7.2,14.7l-0.8-0.9c0,0-2.2-0.4-3,2.6c-0.5,1.9-3.2,3.2-3.2,3.2h3.3c0.7,0,1.5-0.2,2.1-0.6
				c0.6-0.4,1.1-1,1.5-1.6c0.2-0.4,0.4-0.8,0.4-1.3C7.4,15.6,7.4,15.1,7.2,14.7z"/>
		</g>
	</g>
</g>
<g id="Level">
	<path class="st6" d="M37.5,37.8l-5-8.9l7.5,8.9V40H0v-2.2l7.5-8.9l-5,8.9H37.5z"/>
	<path class="st4" d="M26.2,24.4l-3.8,8.9L16.2,20L7.5,35.6h25L26.2,24.4z"/>
</g>
<g id="Play" class="st0">
	<path class="st7" d="M23.3,21.4l16.2-9.2c0.1-0.1,0.3-0.2,0.4-0.3c0.1-0.1,0.1-0.3,0.1-0.5c0-0.2,0-0.3-0.1-0.5
		c-0.1-0.1-0.2-0.3-0.4-0.3L23.3,1.4c-0.1-0.1-0.3-0.1-0.4-0.1c-0.2,0-0.3,0-0.4,0.1c-0.1,0.1-0.2,0.2-0.3,0.3C22,1.9,22,2,22,2.2
		v18.4c0,0.2,0,0.3,0.1,0.5c0.1,0.1,0.2,0.3,0.3,0.4c0.1,0.1,0.3,0.1,0.4,0.1C23,21.5,23.2,21.4,23.3,21.4L23.3,21.4z"/>
</g>
<g id="Pause">
	<path class="st8" d="M28.2,21.1h-4.8V2h4.8V21.1z M37.8,2H33v19.1h4.8V2z"/>
</g>
<g id="Plus" class="st0">
	<path class="st9" d="M30.2,3.1v16.1"/>
	<path class="st9" d="M22.1,11.2h16.1"/>
</g>
</svg>
