<?xml version="1.0" encoding="utf-8"?>
<!-- Generator: Adobe Illustrator 26.2.1, SVG Export Plug-In . SVG Version: 6.00 Build 0)  -->
<svg version="1.1" id="Layer_1" xmlns="http://www.w3.org/2000/svg" xmlns:xlink="http://www.w3.org/1999/xlink" x="0px" y="0px"
	 viewBox="0 0 25 25" style="enable-background:new 0 0 25 25;" xml:space="preserve">
<style type="text/css">
	.st0{opacity:0.5;fill:#FFFFFF;enable-background:new    ;}
	.st1{opacity:0.5;fill:none;stroke:#FFFFFF;stroke-miterlimit:10;enable-background:new    ;}
	.st2{opacity:0.5;fill-rule:evenodd;clip-rule:evenodd;fill:#FFFFFF;enable-background:new    ;}
	.st3{fill-rule:evenodd;clip-rule:evenodd;fill:#FFFFFF;}
</style>
<path class="st0" d="M1.5,1.67H6V0H0v5h1.5V1.67z"/>
<path class="st0" d="M23.5,1.67V5H25V0h-6v1.67H23.5z"/>
<path class="st0" d="M23.5,23.33H19V25h6v-5h-1.5V23.33z"/>
<path class="st0" d="M1.5,23.33V20H0v5h6v-1.67H1.5z"/>
<path class="st1" d="M13.32,16c1.66,0,3-1.34,3-3s-1.34-3-3-3s-3,1.34-3,3S11.67,16,13.32,16z"/>
<path class="st2" d="M17,6H8l1.5-3h6L17,6z"/>
<path class="st3" d="M21.02,6H4.11C2.91,6,2,6.93,2,8.18v9.49C2,19.07,2.91,20,4.11,20h16.76c1.21,0,2.11-0.93,2.11-2.18V8.18
	C23.13,6.93,22.23,6,21.02,6z M5.02,11.44c-1.21,0-2.26-1.09-2.26-2.33c0-1.24,1.06-2.33,2.26-2.33c1.21,0,2.26,1.09,2.26,2.33
	C7.28,10.36,6.23,11.44,5.02,11.44z M13.32,18.44c-2.87,0-5.28-2.49-5.28-5.44s2.42-5.44,5.28-5.44c2.87,0,5.28,2.49,5.28,5.44
	S16.19,18.44,13.32,18.44z"/>
</svg>
