<svg width="24" height="21" viewBox="0 0 24 21" fill="none" xmlns="http://www.w3.org/2000/svg">
<path opacity="0.5" d="M15.0671 9.07863C15.92 9.07863 16.6113 8.38727 16.6113 7.53443C16.6113 6.6816 15.92 5.99023 15.0671 5.99023C14.2143 5.99023 13.5229 6.6816 13.5229 7.53443C13.5229 8.38727 14.2143 9.07863 15.0671 9.07863Z" fill="white"/>
<path opacity="0.5" d="M7.51709 7.70605H8.37498V8.56394L7.51709 8.99289V7.70605Z" fill="white"/>
<path opacity="0.5" fill-rule="evenodd" clip-rule="evenodd" d="M13.5228 10.2797L10.0912 7.70605L6.65967 10.2797H13.5228ZM7.51709 10.2798H12.6644V14.5692H7.51709V10.2798ZM9.23193 12.4243H10.9477V14.569H9.23193V12.4243Z" fill="white"/>
<path fill-rule="evenodd" clip-rule="evenodd" d="M3.83545 14.1152H4.83545V5.99023H3.83545V14.1152ZM6.82422 16.2798V17.2798H17.4937V16.2798H6.82422ZM19.8354 5.99023V14.1152H18.8354V5.99023H19.8354ZM6.82422 4.27979H17.0562V3.27979H6.82422V4.27979Z" fill="white"/>
<rect x="17.5562" y="2.32568" width="3.16455" height="3.16455" stroke="white"/>
<rect x="3.15967" y="2.32568" width="3.16455" height="3.16455" stroke="white"/>
<rect x="17.9937" y="14.6152" width="3.16455" height="3.16455" stroke="white"/>
<rect x="3.15967" y="14.6152" width="3.16455" height="3.16455" stroke="white"/>
</svg>
