<?xml version="1.0" encoding="utf-8"?>
<!-- Generator: Adobe Illustrator 26.2.1, SVG Export Plug-In . SVG Version: 6.00 Build 0)  -->
<svg version="1.1" id="Layer_1" xmlns="http://www.w3.org/2000/svg" xmlns:xlink="http://www.w3.org/1999/xlink" x="0px" y="0px"
	 viewBox="0 0 25 25" style="enable-background:new 0 0 25 25;" xml:space="preserve">
<style type="text/css">
	.st0{fill:#FFFFFF;}
</style>
<path class="st0" d="M1.79,0H0v19.64h1.79V0z"/>
<path class="st0" d="M25,25v-1.79H5.36V25H25z"/>
<path class="st0" d="M10.71,14.29H5.36v5.36h5.36V14.29z"/>
<path class="st0" d="M17.86,7.14H12.5v5.36h5.36V7.14z"/>
<path class="st0" d="M25,0h-5.36v5.36H25V0z"/>
<path class="st0" d="M17.86,0H12.5v5.36h5.36V0z"/>
<path class="st0" d="M10.71,0H5.36v5.36h5.36V0z"/>
<path class="st0" d="M10.71,7.14H5.36v5.36h5.36V7.14z"/>
<path class="st0" d="M25,7.14h-5.36v5.36H25V7.14z"/>
<path class="st0" d="M25,14.29h-5.36v5.36H25V14.29z"/>
<path class="st0" d="M17.86,14.29H12.5v5.36h5.36V14.29z"/>
</svg>
