<?xml version="1.0" encoding="utf-8"?>
<!-- Generator: Adobe Illustrator 26.2.1, SVG Export Plug-In . SVG Version: 6.00 Build 0)  -->
<svg version="1.1" id="Layer_1" xmlns="http://www.w3.org/2000/svg" xmlns:xlink="http://www.w3.org/1999/xlink" x="0px" y="0px"
	 viewBox="0 0 35 35" style="enable-background:new 0 0 35 35;" xml:space="preserve">
<style type="text/css">
	.st0{fill:#FFFFFF;}
	.st1{fill:#898989;}
</style>
<path class="st0" d="M20.96,6.62h-3.92h-1.31h-3.92H10.5H6.57H5.27v17h1.31h3.92h1.31h3.92h1.31h3.92h1.31v-17H20.96z M15.73,7.93
	v3.92h-3.92V7.93H15.73z M15.73,13.16v3.92h-3.92v-3.92H15.73z M6.57,7.93h3.92v3.92H6.57V7.93z M6.57,13.16h3.92v3.92H6.57V13.16z
	 M6.57,22.31v-3.92h3.92v3.92H6.57z M11.81,22.31v-3.92h3.92v3.92H11.81z M20.96,22.31h-3.92v-3.92h3.92V22.31z M20.96,17.08h-3.92
	v-3.92h3.92V17.08z M20.96,11.85h-3.92V7.93h3.92V11.85z"/>
<path class="st1" d="M28.93,21.62l0,7.5h-8.66L28.93,21.62z"/>
</svg>
