<?xml version="1.0" encoding="utf-8"?>
<!-- Generator: Adobe Illustrator 26.2.1, SVG Export Plug-In . SVG Version: 6.00 Build 0)  -->
<svg version="1.1" id="Layer_1" xmlns="http://www.w3.org/2000/svg" xmlns:xlink="http://www.w3.org/1999/xlink" x="0px" y="0px"
	 viewBox="0 0 35 35" style="enable-background:new 0 0 35 35;" xml:space="preserve">
<style type="text/css">
	.st0{fill:#FFFFFF;}
	.st1{opacity:0.5;fill:#FFFFFF;enable-background:new    ;}
	.st2{fill:#898989;}
</style>
<path class="st0" d="M10.52,20.17c0,0-0.4-4.6-0.4-5.6c0-3.1,1.2-4.6,3.4-4.6c2.3,0,3.4,1.4,3.4,4.5c0,0.9-0.4,5.6-0.4,5.6h4
	c0,0,0.5-5.9,0.5-7c0-3.3-1.9-7-7.5-7c-5.6,0.1-7.5,3.8-7.5,7.1c0,1.1,0.5,7,0.5,7H10.52z"/>
<path class="st1" d="M10.52,21.17h-4v3h4V21.17z"/>
<path class="st1" d="M20.52,21.17h-4v3h4V21.17z"/>
<path class="st2" d="M28.18,22.17l0,7.5h-8.66L28.18,22.17z"/>
</svg>
