<svg width="21" height="21" viewBox="0 0 21 21" fill="none" xmlns="http://www.w3.org/2000/svg">
<path opacity="0.5" d="M6.98975 11.0527H9.98975V6.05273H6.98975V11.0527Z" fill="white"/>
<path d="M10.9897 11.0527H13.9897L13.9897 2.05273H10.9897V11.0527Z" fill="white"/>
<path d="M14.9897 11.0527H17.9897V4.05273H14.9897V11.0527Z" fill="white"/>
<path opacity="0.5" d="M2.98975 11.0527H5.98975V8.05273H2.98975L2.98975 11.0527Z" fill="white"/>
<path d="M10.9898 12.5527C8.48982 12.5527 6.81982 15.0527 6.81982 15.0527C6.81982 15.0527 8.48982 17.5527 10.9898 17.5527C13.4898 17.5527 15.1598 15.0527 15.1598 15.0527C15.1598 15.0527 13.4898 12.5527 10.9898 12.5527Z" stroke="white" stroke-width="0.97" stroke-miterlimit="10"/>
<path d="M10.9899 16.4431C10.7154 16.4411 10.4476 16.3579 10.2204 16.2039C9.9931 16.05 9.8165 15.8322 9.71282 15.5781C9.60915 15.3239 9.58305 15.0448 9.6378 14.7758C9.69256 14.5068 9.82573 14.2601 10.0205 14.0667C10.2153 13.8733 10.463 13.7419 10.7323 13.6891C11.0017 13.6362 11.2807 13.6643 11.5341 13.7698C11.7875 13.8753 12.004 14.0535 12.1563 14.2819C12.3086 14.5102 12.3899 14.7786 12.3899 15.0531C12.3899 15.2364 12.3536 15.418 12.2831 15.5873C12.2126 15.7566 12.1093 15.9103 11.9792 16.0395C11.8491 16.1687 11.6947 16.2709 11.5249 16.3401C11.3551 16.4094 11.1732 16.4444 10.9899 16.4431Z" fill="white"/>
</svg>
