<svg width="32" height="32" viewBox="0 0 32 32" fill="none" xmlns="http://www.w3.org/2000/svg">
<path d="M32 16C32 24.8366 24.8366 32 16 32C7.16344 32 0 24.8366 0 16C0 7.16344 7.16344 0 16 0C24.8366 0 32 7.16344 32 16Z" fill="black"/>
<path fill-rule="evenodd" clip-rule="evenodd" d="M16 31C24.2843 31 31 24.2843 31 16C31 7.71573 24.2843 1 16 1C7.71573 1 1 7.71573 1 16C1 24.2843 7.71573 31 16 31ZM16 32C24.8366 32 32 24.8366 32 16C32 7.16344 24.8366 0 16 0C7.16344 0 0 7.16344 0 16C0 24.8366 7.16344 32 16 32Z" fill="white"/>
<path d="M23 24C23.8284 24 24.5 23.3284 24.5 22.5C24.5 21.6716 23.8284 21 23 21C22.1716 21 21.5 21.6716 21.5 22.5C21.5 23.3284 22.1716 24 23 24Z" fill="white"/>
<path d="M23.5 24.5H22.5V27.5H23.5V24.5Z" fill="white"/>
<mask id="mask0_631_3854" style="mask-type:alpha" maskUnits="userSpaceOnUse" x="14" y="14" width="17" height="17">
<path fill-rule="evenodd" clip-rule="evenodd" d="M27.9049 27.4049C30.7167 24.5931 30.7167 20.0343 27.9049 17.2225C25.0931 14.4108 20.5343 14.4108 17.7225 17.2225C14.9108 20.0343 14.9108 24.5931 17.7225 27.4049C20.5343 30.2167 25.0931 30.2167 27.9049 27.4049ZM28.4706 27.9706C31.5948 24.8464 31.5948 19.781 28.4706 16.6569C25.3464 13.5327 20.281 13.5327 17.1569 16.6569C14.0327 19.781 14.0327 24.8464 17.1569 27.9706C20.281 31.0948 25.3464 31.0948 28.4706 27.9706Z" fill="white" fill-opacity="0.75"/>
<path fill-rule="evenodd" clip-rule="evenodd" d="M26.4907 25.9907C28.5214 23.9599 28.5214 20.6675 26.4907 18.6368C24.4599 16.606 21.1675 16.606 19.1368 18.6368C17.106 20.6675 17.106 23.9599 19.1368 25.9907C21.1675 28.0214 24.4599 28.0214 26.4907 25.9907ZM27.0563 26.5563C29.3995 24.2132 29.3995 20.4142 27.0563 18.0711C24.7132 15.7279 20.9142 15.7279 18.5711 18.0711C16.2279 20.4142 16.2279 24.2132 18.5711 26.5563C20.9142 28.8995 24.7132 28.8995 27.0563 26.5563Z" fill="white" fill-opacity="0.75"/>
<path fill-rule="evenodd" clip-rule="evenodd" d="M25.0764 24.5765C26.3261 23.3268 26.3261 21.3006 25.0764 20.051C23.8268 18.8013 21.8006 18.8013 20.551 20.051C19.3013 21.3006 19.3013 23.3268 20.551 24.5765C21.8006 25.8261 23.8268 25.8261 25.0764 24.5765ZM25.6421 25.1421C27.2042 23.58 27.2042 21.0474 25.6421 19.4853C24.08 17.9232 21.5474 17.9232 19.9853 19.4853C18.4232 21.0474 18.4232 23.58 19.9853 25.1421C21.5474 26.7042 24.08 26.7042 25.6421 25.1421Z" fill="white" fill-opacity="0.75"/>
</mask>
<g mask="url(#mask0_631_3854)">
<path d="M6.96799 -11.0552L22.968 -11.0552L22.968 22.3072L6.96799 22.3072L6.96799 -11.0552Z" fill="#D9D9D9"/>
<path d="M-10.4813 22.3941L-10.4813 6.39411L22.8811 6.39412L22.8811 22.3941L-10.4813 22.3941Z" fill="#D9D9D9"/>
</g>
<path fill-rule="evenodd" clip-rule="evenodd" d="M17 12.8491C16.8269 13.6332 16.0889 15.7815 13.6698 16.9306L12.6497 15.8058L10.9366 17.5C9.94538 17.5048 7.72218 17.1252 6.16489 15.0211C6.16489 15.0211 6.49014 15.1018 6.72053 15.106C6.99035 15.1109 7.28357 15.0133 7.28357 14.5664V10.1581C7.31253 9.79185 6.95462 9.29705 6.35585 9.43167C5.59138 9.60388 5 11.4812 5 11.4812C5.00246 9.21944 6.19261 7.67503 7.09877 6.90737C8.23039 5.9481 9.33183 5.63097 10.1764 5.5C9.3423 5.96811 8.8729 6.73213 8.8729 7.37185C8.8729 8.40024 9.5037 8.27836 9.69035 8.12677V14.0758C9.69035 14.0758 9.72731 14.1716 9.81479 14.2856C9.94045 14.4499 10.1708 14.6506 10.5441 14.6506C11.1762 14.6506 11.9955 13.9412 11.9955 13.9412V9.12424C11.9955 8.6343 11.6197 8.04249 11.2446 7.83935C11.2446 7.83935 11.94 7.71626 12.4778 8.12253C12.5943 7.98367 12.7033 7.86725 12.7988 7.77447C14.0493 6.56478 15.229 6.22218 16.2115 6.04815H16.2127C16.2127 6.04815 14.4244 7.43006 14.4244 9.28372C14.4244 10.6626 14.4608 14.0255 14.4608 14.0255C15.1236 14.6567 16.1092 13.7466 17 12.8491Z" fill="white"/>
</svg>
