<svg width="64" height="64" viewBox="0 0 64 64" fill="none" xmlns="http://www.w3.org/2000/svg">
<path d="M64 32C64 49.6731 49.6731 64 32 64C14.3269 64 0 49.6731 0 32C0 14.3269 14.3269 0 32 0C49.6731 0 64 14.3269 64 32Z" fill="black"/>
<path fill-rule="evenodd" clip-rule="evenodd" d="M32 62C48.5685 62 62 48.5685 62 32C62 15.4315 48.5685 2 32 2C15.4315 2 2 15.4315 2 32C2 48.5685 15.4315 62 32 62ZM32 64C49.6731 64 64 49.6731 64 32C64 14.3269 49.6731 0 32 0C14.3269 0 0 14.3269 0 32C0 49.6731 14.3269 64 32 64Z" fill="white"/>
<path d="M46 48C47.6569 48 49 46.6569 49 45C49 43.3431 47.6569 42 46 42C44.3431 42 43 43.3431 43 45C43 46.6569 44.3431 48 46 48Z" fill="white"/>
<path d="M47 49H45V55H47V49Z" fill="white"/>
<mask id="mask0_631_3788" style="mask-type:alpha" maskUnits="userSpaceOnUse" x="29" y="28" width="33" height="33">
<path fill-rule="evenodd" clip-rule="evenodd" d="M55.8098 54.8098C61.4333 49.1862 61.4333 40.0686 55.8098 34.4451C50.1862 28.8215 41.0686 28.8215 35.4451 34.4451C29.8215 40.0686 29.8215 49.1862 35.4451 54.8098C41.0686 60.4333 50.1862 60.4333 55.8098 54.8098ZM56.9411 55.9411C63.1895 49.6927 63.1895 39.5621 56.9411 33.3137C50.6927 27.0653 40.5621 27.0653 34.3137 33.3137C28.0653 39.5621 28.0653 49.6927 34.3137 55.9411C40.5621 62.1895 50.6927 62.1895 56.9411 55.9411Z" fill="white" fill-opacity="0.75"/>
<path fill-rule="evenodd" clip-rule="evenodd" d="M52.9813 51.9813C57.0428 47.9199 57.0428 41.335 52.9813 37.2735C48.9199 33.2121 42.335 33.2121 38.2735 37.2735C34.2121 41.335 34.2121 47.9199 38.2735 51.9813C42.335 56.0428 48.9199 56.0428 52.9813 51.9813ZM54.1127 53.1127C58.799 48.4264 58.799 40.8284 54.1127 36.1421C49.4264 31.4558 41.8284 31.4558 37.1421 36.1421C32.4558 40.8284 32.4558 48.4264 37.1421 53.1127C41.8284 57.799 49.4264 57.799 54.1127 53.1127Z" fill="white" fill-opacity="0.75"/>
<path fill-rule="evenodd" clip-rule="evenodd" d="M50.1529 49.1529C52.6523 46.6535 52.6523 42.6013 50.1529 40.1019C47.6535 37.6026 43.6013 37.6026 41.1019 40.1019C38.6026 42.6013 38.6026 46.6535 41.1019 49.1529C43.6013 51.6523 47.6535 51.6523 50.1529 49.1529ZM51.2843 50.2843C54.4085 47.1601 54.4085 42.0948 51.2843 38.9706C48.1601 35.8464 43.0948 35.8464 39.9706 38.9706C36.8464 42.0948 36.8464 47.1601 39.9706 50.2843C43.0948 53.4085 48.1601 53.4085 51.2843 50.2843Z" fill="white" fill-opacity="0.75"/>
</mask>
<g mask="url(#mask0_631_3788)">
<path d="M13.936 -22.1104L45.936 -22.1104L45.936 44.6144L13.936 44.6144L13.936 -22.1104Z" fill="#D9D9D9"/>
<path d="M-20.9626 44.7882L-20.9626 12.7882L45.7621 12.7882L45.7621 44.7882L-20.9626 44.7882Z" fill="#D9D9D9"/>
</g>
<path fill-rule="evenodd" clip-rule="evenodd" d="M34 25.6983C33.6538 27.2663 32.1778 31.563 27.3396 33.8612L25.2994 31.6115L21.8731 34.9999C19.8908 35.0096 15.4444 34.2504 12.3298 30.0423C12.3298 30.0423 12.9803 30.2036 13.4411 30.2121C13.9807 30.2218 14.5671 30.0265 14.5671 29.1327V20.3162C14.6251 19.5837 13.9092 18.5941 12.7117 18.8633C11.1828 19.2078 10 22.9624 10 22.9624C10.0049 18.4389 12.3852 15.3501 14.1975 13.8147C16.4608 11.8962 18.6637 11.2619 20.3528 11C18.6846 11.9362 17.7458 13.4643 17.7458 14.7437C17.7458 16.8005 19.0074 16.5567 19.3807 16.2535V28.1516C19.3807 28.1516 19.4546 28.3432 19.6296 28.5712C19.8809 28.8999 20.3417 29.3013 21.0883 29.3013C22.3524 29.3013 23.991 27.8824 23.991 27.8824V18.2485C23.991 17.2686 23.2394 16.085 22.4891 15.6787C22.4891 15.6787 23.8801 15.4325 24.9556 16.2451C25.1885 15.9673 25.4066 15.7345 25.5975 15.5489C28.0986 13.1296 30.4579 12.4444 32.423 12.0963H32.4255C32.4255 12.0963 28.8489 14.8601 28.8489 18.5674C28.8489 21.3252 28.9216 28.051 28.9216 28.051C30.2472 29.3134 32.2185 27.4931 34 25.6983Z" fill="white"/>
<g opacity="0.5">
<path d="M46.0007 20.5098C47.326 20.5098 48.4004 19.4564 48.4004 18.1569C48.4004 16.8574 47.326 15.8039 46.0007 15.8039C44.6754 15.8039 43.601 16.8574 43.601 18.1569C43.601 19.4564 44.6754 20.5098 46.0007 20.5098Z" fill="white"/>
<path d="M52 18.1569C52.0006 18.9293 51.8455 19.6942 51.5434 20.4076C51.2414 21.121 50.7985 21.7688 50.2402 22.3137L49.0323 21.1294C49.8364 20.341 50.288 19.2718 50.288 18.1569C50.288 17.0419 49.8364 15.9727 49.0323 15.1843L50.2402 14C50.7985 14.5449 51.2414 15.1927 51.5434 15.9061C51.8455 16.6195 52.0006 17.3844 52 18.1569ZM41.7132 18.1569C41.7123 17.6047 41.8228 17.0578 42.0384 16.5476C42.2539 16.0375 42.5702 15.5742 42.969 15.1843L41.7612 14C41.203 14.5451 40.76 15.1929 40.4578 15.9062C40.1556 16.6196 40 17.3844 40 18.1569C40 18.9293 40.1556 19.6942 40.4578 20.4075C40.76 21.1208 41.203 21.7686 41.7612 22.3137L42.969 21.1294C42.5702 20.7396 42.2539 20.2762 42.0384 19.7661C41.8228 19.256 41.7123 18.709 41.7132 18.1569Z" fill="#808080"/>
<path d="M46.8006 21.2941H45.2008V26H46.8006V21.2941Z" fill="white"/>
</g>
</svg>
