<svg width="16" height="16" viewBox="0 0 16 16" fill="none" xmlns="http://www.w3.org/2000/svg">
<path opacity="0.5" d="M3.00133 15.9996C3.30133 15.1996 3.50133 14.8996 3.00133 13.9996C2.60133 13.1996 1.60126 12.6996 0.701262 11.4996C-0.398738 9.99958 -0.0988497 8.33636 0.70115 7.43636C1.20115 6.83636 2.31473 6.33691 3.00133 6.33691C3.00133 6.33691 3.50133 6.43692 3.50133 6.93692C3.50133 7.43692 3.1014 7.63696 3.1014 7.63696C3.1014 7.63696 1.90126 7.79958 1.50126 8.49958C1.10126 9.19958 1.00126 10.1996 1.80126 11.2996C2.60126 12.3996 3.10133 12.4996 3.50133 13.4996C4.00133 14.7996 3.00133 15.9996 3.00133 15.9996Z" fill="#C0C0C0"/>
<path opacity="0.5" d="M8.07042 7C8.07042 8.5 7.1831 9.73 6 9.93L5.5 10C5.5 10 9.74648 10 10.4366 10C11.8169 10 13 8.7 13 7C13 5.3 11.8169 4 10.4366 4C9.84507 4 5.5 4 5.5 4L6 4.08C7.1831 4.28 8.07042 5.5 8.07042 7Z" fill="#C0C0C0"/>
<path d="M5.49922 4.09961C4.49922 4.09961 3.59922 4.79961 3.19922 5.79961C3.49922 5.39961 3.89922 5.1996 4.29922 5.1996C5.09922 5.1996 5.79922 5.9996 5.79922 6.9996C5.79922 7.9996 5.09922 8.79961 4.29922 8.79961C3.89922 8.79961 3.49922 8.5996 3.19922 8.1996C3.59922 9.1996 4.49922 9.8996 5.49922 9.8996C6.89922 9.8996 7.99922 8.5996 7.99922 6.9996C7.99922 5.3996 6.89922 4.09961 5.49922 4.09961Z" fill="#C0C0C0"/>
<path d="M11.5 1C10.4 1 9.3 1.6 8.5 2.5H9.2C9.7 2.1 10.4 1.89999 11 1.89999C13.1 1.89999 14.9 4.2 14.9 7C14.9 9.8 13.2 12.1 11 12.1C10.3 12.1 9.7 11.9 9.2 11.5H8.5C9.3 12.4 10.3 13 11.5 13C14 13 16 10.3 16 7C16 3.7 14 1 11.5 1Z" fill="#C0C0C0"/>
</svg>
