<?xml version="1.0" encoding="UTF-8" standalone="no"?>
<!-- Created with Inkscape (http://www.inkscape.org/) -->

<svg
   width="48"
   height="48"
   viewBox="0 0 12.7 12.7"
   version="1.1"
   id="svg1"
   inkscape:version="1.3.2 (091e20e, 2023-11-25, custom)"
   sodipodi:docname="ContentBrowser-CameraRigProxy.svg"
   xmlns:inkscape="http://www.inkscape.org/namespaces/inkscape"
   xmlns:sodipodi="http://sodipodi.sourceforge.net/DTD/sodipodi-0.dtd"
   xmlns="http://www.w3.org/2000/svg"
   xmlns:svg="http://www.w3.org/2000/svg">
  <sodipodi:namedview
     id="namedview1"
     pagecolor="#a4a4a4"
     bordercolor="#000000"
     borderopacity="0.25"
     inkscape:showpageshadow="2"
     inkscape:pageopacity="0.0"
     inkscape:pagecheckerboard="0"
     inkscape:deskcolor="#d1d1d1"
     inkscape:document-units="mm"
     inkscape:zoom="16.833558"
     inkscape:cx="17.257196"
     inkscape:cy="25.573916"
     inkscape:window-width="2560"
     inkscape:window-height="1377"
     inkscape:window-x="2552"
     inkscape:window-y="-8"
     inkscape:window-maximized="1"
     inkscape:current-layer="svg1" />
  <defs
     id="defs1" />
  <g
     inkscape:label="Layer 1"
     inkscape:groupmode="layer"
     id="layer1"
     style="display:inline"
     transform="matrix(0.68652126,0,0,0.68652126,4.2170922,5.9708565)">
    <path
       d="M 8.5901615,5.9059468 12.142587,3.2416282 V 9.4583718 L 8.5901615,6.7940532 Z"
       fill="#ffffff"
       id="path3"
       style="stroke-width:0.888105" />
    <path
       d="M 7.7020551,3.2416282 H 1.4853118 c -0.2355442,0 -0.4613622,0.093526 -0.62791742,0.2600811 C 0.69083871,3.6682582 0.59720581,3.894191 0.59720581,4.1297346 v 4.4405308 c 0,0.2355274 0.0936335,0.46146 0.26018857,0.6280689 C 1.02395,9.3648529 1.2497684,9.4583718 1.4853118,9.4583718 h 6.2167433 c 0.2355239,0 0.4613715,-0.093518 0.6278903,-0.2600375 C 8.4965549,9.0317249 8.5901615,8.8057911 8.5901615,8.5702654 V 4.1297346 c 0,-0.2355442 -0.093603,-0.4614778 -0.2602161,-0.6280243 C 8.1634279,3.3351548 7.9375808,3.2416292 7.7020551,3.2416282 Z M 3.2615244,9.0143185 V 3.6856814 L 7.524434,6.35 Z"
       fill="#ffffff"
       id="path4"
       style="stroke-width:0.888105" />
  </g>
  <g
     opacity="0.5"
     id="g2"
     transform="matrix(0.49436408,0,0,0.49436408,0.60289876,3.8352965)"
     style="display:inline">
    <path
       d="M 9,3 13,0 V 7 L 9,4 Z"
       fill="#ffffff"
       id="path1-2" />
    <path
       d="M 8,0 H 1 C 0.734784,0 0.480505,0.10531 0.292969,0.292847 0.105432,0.480383 0,0.734784 0,1 V 6 C 0,6.26522 0.105432,6.51962 0.292969,6.70715 0.480505,6.89469 0.734784,7 1,7 H 8 C 8.26522,7 8.51949,6.89469 8.70703,6.70715 8.89457,6.51962 9,6.26522 9,6 V 1 C 9,0.734784 8.89457,0.480383 8.70703,0.292847 8.51949,0.10531 8.26522,0 8,0 Z M 3,6.5 v -6 l 4.80005,3 z"
       fill="#ffffff"
       id="path2-8" />
  </g>
  <g
     inkscape:groupmode="layer"
     id="layer2"
     inkscape:label="Layer 2"
     transform="matrix(1.7206526,0,0,1.7206526,-7.5441601,-0.54992882)">
    <path
       fill-rule="evenodd"
       clip-rule="evenodd"
       d="m 10.971412,2.7925239 -0.926042,1.11125 -0.9525002,-1.11125 h 0.635 c 0,-1.0318749 0.026458,-1.85208324 -1.1377083,-2.11666657 1.5081255,0 1.7462505,1.03187497 1.7462505,2.11666657 z"
       fill="#ffffff"
       id="path1"
       style="stroke-width:0.264583" />
    <path
       opacity="0.5"
       fill-rule="evenodd"
       clip-rule="evenodd"
       d="m 8.6695762,0.67585733 c 0.052917,0 0.4497917,0.15877593 0.5820833,0.29106812 -0.3439583,-0.0793755 -0.873125,-0.18522182 -1.1641666,0.0529034 -0.2910417,0.238125 -0.4497917,0.52918 -0.47625,1.0054302 0,0 -0.079375,-0.6879432 0.3439583,-1.08481823 0.15875,-0.15874996 0.4233333,-0.26458329 0.714375,-0.26458344 z"
       fill="#ffffff"
       id="path2"
       style="stroke-width:0.264583" />
  </g>
</svg>
