<?xml version="1.0" encoding="UTF-8" standalone="no"?>
<svg
   width="48"
   height="48"
   viewBox="0 0 48 48"
   fill="none"
   version="1.1"
   id="svg2"
   sodipodi:docname="ContentBrowser-CameraVariableCollection.svg"
   inkscape:version="1.3.2 (091e20e, 2023-11-25, custom)"
   xmlns:inkscape="http://www.inkscape.org/namespaces/inkscape"
   xmlns:sodipodi="http://sodipodi.sourceforge.net/DTD/sodipodi-0.dtd"
   xmlns="http://www.w3.org/2000/svg"
   xmlns:svg="http://www.w3.org/2000/svg">
  <defs
     id="defs2" />
  <sodipodi:namedview
     id="namedview2"
     pagecolor="#868686"
     bordercolor="#000000"
     borderopacity="0.25"
     inkscape:showpageshadow="2"
     inkscape:pageopacity="0.0"
     inkscape:pagecheckerboard="0"
     inkscape:deskcolor="#d1d1d1"
     inkscape:zoom="14.7625"
     inkscape:cx="29.026249"
     inkscape:cy="24.826418"
     inkscape:window-width="2560"
     inkscape:window-height="1377"
     inkscape:window-x="2552"
     inkscape:window-y="-8"
     inkscape:window-maximized="1"
     inkscape:current-layer="g6" />
  <g
     inkscape:groupmode="layer"
     id="layer4"
     inkscape:label="Layer 1"
     transform="translate(14.000538,-0.74513117)">
    <path
       d="m 7.6096728,2.965964 -6.599996,6.6 6.599996,6.6 1.75,-1.75 -4.85,-4.85 4.85,-4.85 z"
       fill="#ffffff"
       id="path1" />
    <path
       d="m 7.0139328,9.571564 6.5973202,6.5973 6.5973,-6.5973 -6.5973,-6.59733 z"
       fill="#ffffff"
       id="path2" />
  </g>
  <g
     inkscape:groupmode="layer"
     id="g4"
     inkscape:label="Layer 1 copy"
     transform="translate(14.000538,14.428451)"
     style="display:inline;opacity:0.5">
    <path
       d="m 7.6096728,2.965964 -6.599996,6.6 6.599996,6.6 1.75,-1.75 -4.85,-4.85 4.85,-4.85 z"
       fill="#ffffff"
       id="path3" />
    <path
       d="m 7.0139328,9.571564 6.5973202,6.5973 6.5973,-6.5973 -6.5973,-6.59733 z"
       fill="#ffffff"
       id="path4" />
  </g>
  <g
     inkscape:groupmode="layer"
     id="g6"
     inkscape:label="Layer 1 copy"
     transform="translate(14.000538,29.602033)"
     style="display:inline;opacity:0.5">
    <path
       d="m 7.6096728,2.965964 -6.599996,6.6 6.599996,6.6 1.75,-1.75 -4.85,-4.85 4.85,-4.85 z"
       fill="#ffffff"
       id="path5" />
    <path
       d="m 7.0139328,9.571564 6.5973202,6.5973 6.5973,-6.5973 -6.5973,-6.59733 z"
       fill="#ffffff"
       id="path6" />
  </g>
</svg>
