<?xml version="1.0" encoding="UTF-8" standalone="no"?>
<!-- Created with Inkscape (http://www.inkscape.org/) -->

<svg
   width="48"
   height="48"
   viewBox="0 0 12.7 12.7"
   version="1.1"
   id="svg1"
   inkscape:version="1.3.2 (091e20e, 2023-11-25, custom)"
   sodipodi:docname="ContentBrowser-CameraRig.svg"
   xmlns:inkscape="http://www.inkscape.org/namespaces/inkscape"
   xmlns:sodipodi="http://sodipodi.sourceforge.net/DTD/sodipodi-0.dtd"
   xmlns="http://www.w3.org/2000/svg"
   xmlns:svg="http://www.w3.org/2000/svg">
  <sodipodi:namedview
     id="namedview1"
     pagecolor="#a4a4a4"
     bordercolor="#000000"
     borderopacity="0.25"
     inkscape:showpageshadow="2"
     inkscape:pageopacity="0.0"
     inkscape:pagecheckerboard="0"
     inkscape:deskcolor="#d1d1d1"
     inkscape:document-units="mm"
     inkscape:zoom="16.833558"
     inkscape:cx="17.257196"
     inkscape:cy="25.573916"
     inkscape:window-width="2560"
     inkscape:window-height="1377"
     inkscape:window-x="2552"
     inkscape:window-y="-8"
     inkscape:window-maximized="1"
     inkscape:current-layer="layer1" />
  <defs
     id="defs1" />
  <g
     inkscape:label="Layer 1"
     inkscape:groupmode="layer"
     id="layer1">
    <path
       d="M 8.5901615,5.9059468 12.142587,3.2416282 V 9.4583718 L 8.5901615,6.7940532 Z"
       fill="#ffffff"
       id="path3"
       style="stroke-width:0.888105" />
    <path
       d="M 7.7020551,3.2416282 H 1.4853118 c -0.2355442,0 -0.4613622,0.093526 -0.62791742,0.2600811 C 0.69083871,3.6682582 0.59720581,3.894191 0.59720581,4.1297346 v 4.4405308 c 0,0.2355274 0.0936335,0.46146 0.26018857,0.6280689 C 1.02395,9.3648529 1.2497684,9.4583718 1.4853118,9.4583718 h 6.2167433 c 0.2355239,0 0.4613715,-0.093518 0.6278903,-0.2600375 C 8.4965549,9.0317249 8.5901615,8.8057911 8.5901615,8.5702654 V 4.1297346 c 0,-0.2355442 -0.093603,-0.4614778 -0.2602161,-0.6280243 C 8.1634279,3.3351548 7.9375808,3.2416292 7.7020551,3.2416282 Z M 3.2615244,9.0143185 V 3.6856814 L 7.524434,6.35 Z"
       fill="#ffffff"
       id="path4"
       style="stroke-width:0.888105" />
  </g>
</svg>
