<svg width="20" height="21" viewBox="0 0 20 21" fill="none" xmlns="http://www.w3.org/2000/svg">
<path d="M10.0004 12.0155C11.1031 12.0155 11.997 11.1216 11.997 10.019C11.997 8.91634 11.1031 8.02246 10.0004 8.02246C8.89778 8.02246 8.00391 8.91634 8.00391 10.019C8.00391 11.1216 8.89778 12.0155 10.0004 12.0155Z" fill="white"/>
<path opacity="0.5" d="M15.2352 6.23496C16.0144 6.23496 16.6461 5.60326 16.6461 4.82402C16.6461 4.04478 16.0144 3.41309 15.2352 3.41309C14.4559 3.41309 13.8242 4.04478 13.8242 4.82402C13.8242 5.60326 14.4559 6.23496 15.2352 6.23496Z" fill="white"/>
<path opacity="0.5" d="M15.2352 16.6246C16.0144 16.6246 16.6461 15.9929 16.6461 15.2137C16.6461 14.4344 16.0144 13.8027 15.2352 13.8027C14.4559 13.8027 13.8242 14.4344 13.8242 15.2137C13.8242 15.9929 14.4559 16.6246 15.2352 16.6246Z" fill="white"/>
<path opacity="0.5" d="M15.2352 11.4303C16.0144 11.4303 16.6461 10.7986 16.6461 10.0193C16.6461 9.2401 16.0144 8.6084 15.2352 8.6084C14.4559 8.6084 13.8242 9.2401 13.8242 10.0193C13.8242 10.7986 14.4559 11.4303 15.2352 11.4303Z" fill="white"/>
<path opacity="0.5" d="M4.76641 11.4303C5.54565 11.4303 6.17734 10.7986 6.17734 10.0193C6.17734 9.2401 5.54565 8.6084 4.76641 8.6084C3.98717 8.6084 3.35547 9.2401 3.35547 10.0193C3.35547 10.7986 3.98717 11.4303 4.76641 11.4303Z" fill="white"/>
<path opacity="0.5" d="M4.76641 6.23496C5.54565 6.23496 6.17734 5.60326 6.17734 4.82402C6.17734 4.04478 5.54565 3.41309 4.76641 3.41309C3.98717 3.41309 3.35547 4.04478 3.35547 4.82402C3.35547 5.60326 3.98717 6.23496 4.76641 6.23496Z" fill="white"/>
<path opacity="0.5" d="M4.76641 16.6246C5.54565 16.6246 6.17734 15.9929 6.17734 15.2137C6.17734 14.4344 5.54565 13.8027 4.76641 13.8027C3.98717 13.8027 3.35547 14.4344 3.35547 15.2137C3.35547 15.9929 3.98717 16.6246 4.76641 16.6246Z" fill="white"/>
<path opacity="0.5" d="M10.0008 6.23496C10.78 6.23496 11.4117 5.60326 11.4117 4.82402C11.4117 4.04478 10.78 3.41309 10.0008 3.41309C9.22154 3.41309 8.58984 4.04478 8.58984 4.82402C8.58984 5.60326 9.22154 6.23496 10.0008 6.23496Z" fill="white"/>
<path opacity="0.5" d="M10.0008 16.6246C10.78 16.6246 11.4117 15.9929 11.4117 15.2137C11.4117 14.4344 10.78 13.8027 10.0008 13.8027C9.22154 13.8027 8.58984 14.4344 8.58984 15.2137C8.58984 15.9929 9.22154 16.6246 10.0008 16.6246Z" fill="white"/>
</svg>
