<svg width="20" height="21" viewBox="0 0 20 21" fill="none" xmlns="http://www.w3.org/2000/svg">
<path opacity="0.5" d="M15.729 7.7037L16.2781 8.28778C16.5701 8.77435 16.7147 9.26093 16.7147 9.84481C16.7147 12.1804 13.6979 14.1266 10 14.1266C6.30205 14.1266 3.2853 12.1804 3.2853 9.84481C3.2853 9.26093 3.47993 8.77435 3.77188 8.28778L4.38552 7.5918C3.2853 8.28778 2.21484 9.26093 2.21484 10.3314C2.21484 13.0562 5.71816 15.2944 10 15.2944C14.2818 15.2944 17.7852 13.0562 17.7852 10.3314C17.7852 9.26093 16.7676 8.32359 15.729 7.7037Z" fill="white"/>
<path d="M13.9021 7.41127V7.80516C14.0952 8.12708 14.4411 8.63459 14.4411 9.0209C14.4411 10.5661 12.4451 11.8539 9.99848 11.8539C7.55184 11.8539 5.55589 10.5661 5.55589 9.0209C5.55589 8.63459 5.905 8.12708 6.09816 7.80516V7.41113C5.51869 7.9906 4.84766 8.58923 4.84766 9.34283C4.84766 11.1456 7.16553 12.6265 9.99848 12.6265C12.8314 12.6265 15.1493 11.1456 15.1493 9.34283C15.1493 8.63459 14.4815 7.99074 13.9021 7.41127Z" fill="white"/>
<path opacity="0.5" d="M10.0006 4.74414C8.54501 4.74414 7.33203 5.95712 7.33203 7.41269C7.33203 8.86826 8.54501 10.0812 10.0006 10.0812C11.4561 10.0812 12.6691 8.86826 12.6691 7.41269C12.6691 5.95712 11.4561 4.74414 10.0006 4.74414Z" fill="white"/>
<path d="M10.7796 7.50938C11.2619 7.50938 11.6529 7.11837 11.6529 6.63604C11.6529 6.1537 11.2619 5.7627 10.7796 5.7627C10.2973 5.7627 9.90625 6.1537 9.90625 6.63604C9.90625 7.11837 10.2973 7.50938 10.7796 7.50938Z" fill="white"/>
</svg>
