<svg width="16" height="16" viewBox="0 0 16 16" fill="none" xmlns="http://www.w3.org/2000/svg">
<path d="M5.16516 10.0699V8.05594L-4.76837e-06 8.05594V10.0699H5.16516Z" fill="white" fill-opacity="0.5"/>
<path d="M11.3633 2.01399V0L-2.09808e-05 0V2.01399L11.3633 2.01399Z" fill="white"/>
<path d="M7.2312 6.04197V4.02798L-3.00407e-05 4.02798V6.04197L7.2312 6.04197Z" fill="white" fill-opacity="0.5"/>
<path d="M6.19818 9.73426H8.1201L11.003 7.04895V16L8.1201 13.3147H6.19818V9.73426Z" fill="white"/>
<path opacity="0.5" d="M11.964 7.04895C14.6547 8.12308 16 9.82378 16 11.5245C16 13.2252 14.6547 14.9259 11.964 16C13.6937 14.5678 14.4625 13.0462 14.4625 11.5245C14.4625 10.0028 13.6937 8.48112 11.964 7.04895Z" fill="white"/>
<path opacity="0.5" d="M11.964 9.64468C12.8289 10.0922 13.3093 10.8083 13.3093 11.5244C13.3093 12.2405 12.8289 12.9566 11.964 13.4041C12.5406 12.7776 12.5406 10.2713 11.964 9.64468Z" fill="white"/>
</svg>
