<svg width="128" height="128" viewBox="0 0 128 128" fill="none" xmlns="http://www.w3.org/2000/svg">
<g clip-path="url(#clip0_277_29)">
<path opacity="0.2" d="M60.5 108C84.5243 108 104 89.1959 104 66C104 42.8041 84.5243 24 60.5 24C36.4757 24 17 42.8041 17 66C17 89.1959 36.4757 108 60.5 108Z" fill="url(#paint0_linear_277_29)"/>
<path d="M-1 59.9725L30.0827 58.5421H30.437L34.6598 60.6651L33.597 61.0114L37.1396 53.0462L38.2024 50.2757L38.9109 53.0462L43.5162 74.1713L40.3279 74.5177C41.3907 67.5914 42.4535 60.3188 43.8705 53.3925L47.7673 36.8074L49.8929 27.5L51.3099 37.1537L59.1036 89.4091H55.5611L63.3548 24.9948L65.1261 0L66.8974 24.9948L74.6911 94.2575H71.1485L78.9422 35.0379L80.3592 15L82.4848 35.0379L89.9242 79.7124H86.3816L94.1753 39.8863L96.5 25.6874L97.7179 39.8863C99.135 45.7736 100.198 51.3146 101.261 57.202L104.803 74.5177H103.032L107.283 54.7778L107.637 53.7388L108.346 54.4315L112.342 59.9725H114.992L128 61.0114L111.739 61.7944L107.637 55.4704L108.346 55.1241L105.157 74.864L104.449 79.3661L103.386 74.864L99.135 57.5483C97.7179 51.661 96.3009 46.1199 94.8839 40.2326H98.4264L89.9242 80.0587L88.1529 89.4091L86.3816 80.0587L78.5879 35.7305H82.1305L74.3368 94.9502L73 119.925L70.7942 94.9502L63.0005 25.6874H66.5431L58.7494 90.1018L56.9781 103.954L55.2068 90.1018L47.7673 37.5H51.3099L47.4131 54.0852C46.3503 61.0114 44.9333 67.9377 43.162 75.2103L41.3907 83.1755L40.3279 75.2103L37.1396 53.7388L38.9109 54.0852L34.6598 62.0504L34.3055 62.743L33.597 62.3967L30.0827 60.6651H18.5126L-1 59.9725Z" fill="white"/>
<path fill-rule="evenodd" clip-rule="evenodd" d="M37.125 99.0687L9.45 127C9.45 127 6.75 127 3.375 123.594C0 120.188 0 117.463 0 117.463L27.675 89.5312L37.125 99.0687Z" fill="url(#paint1_linear_277_29)"/>
<path d="M13.5 65.6875C13.5 39.1187 34.425 18 60.75 18C87.075 18 108 39.1187 108 65.6875C108 92.2562 87.075 113.375 60.75 113.375C34.425 113.375 13.5 92.2562 13.5 65.6875ZM20.25 65.6875C20.25 88.1687 38.475 106.562 60.75 106.562C83.025 106.562 101.25 88.1687 101.25 65.6875C101.25 43.2063 83.025 24.8125 60.75 24.8125C38.475 24.8125 20.25 43.2063 20.25 65.6875Z" fill="url(#paint2_linear_277_29)"/>
</g>
<defs>
<linearGradient id="paint0_linear_277_29" x1="60.5" y1="108" x2="60.5" y2="24" gradientUnits="userSpaceOnUse">
<stop offset="0.12" stop-color="#C4C4C4"/>
<stop offset="0.2" stop-color="#B3B3B3"/>
<stop offset="0.36" stop-color="#979797"/>
<stop offset="0.45" stop-color="#8C8C8C"/>
<stop offset="0.84" stop-color="#4A4A4A"/>
</linearGradient>
<linearGradient id="paint1_linear_277_29" x1="54" y1="127" x2="54" y2="18" gradientUnits="userSpaceOnUse">
<stop stop-color="#F2F2F2"/>
<stop offset="1" stop-color="#4F4F4F"/>
</linearGradient>
<linearGradient id="paint2_linear_277_29" x1="54" y1="127" x2="54" y2="18" gradientUnits="userSpaceOnUse">
<stop stop-color="#F2F2F2"/>
<stop offset="1" stop-color="#4F4F4F"/>
</linearGradient>
<clipPath id="clip0_277_29">
<rect width="128" height="128" fill="white"/>
</clipPath>
</defs>
</svg>
