<?xml version="1.0" encoding="UTF-8" standalone="no"?>
<svg
   width="32"
   height="32"
   version="1.1"
   viewBox="0 0 32 32"
   id="svg1"
   sodipodi:docname="InBounce.svg"
   inkscape:version="1.3.2 (091e20e, 2023-11-25, custom)"
   xmlns:inkscape="http://www.inkscape.org/namespaces/inkscape"
   xmlns:sodipodi="http://sodipodi.sourceforge.net/DTD/sodipodi-0.dtd"
   xmlns="http://www.w3.org/2000/svg"
   xmlns:svg="http://www.w3.org/2000/svg">
  <defs
     id="defs1" />
  <sodipodi:namedview
     id="namedview1"
     pagecolor="#ffffff"
     bordercolor="#000000"
     borderopacity="0.25"
     inkscape:showpageshadow="2"
     inkscape:pageopacity="0.0"
     inkscape:pagecheckerboard="0"
     inkscape:deskcolor="#d1d1d1"
     inkscape:zoom="35.53125"
     inkscape:cx="15.985928"
     inkscape:cy="16"
     inkscape:window-width="5120"
     inkscape:window-height="1351"
     inkscape:window-x="-9"
     inkscape:window-y="-9"
     inkscape:window-maximized="1"
     inkscape:current-layer="svg1" />
  <path
     d="m0.46661 31.274 0.061948-0.1871 0.32006-0.14308 0.32006-0.09539 0.32006-0.04769 0.32006-0.0036 0.32006 0.04402 0.32006 0.09171 0.32006 0.13941 0.32006 0.18343 0.32006-0.34852 0.32006-0.35586 0.32006-0.31183 0.32006-0.26414 0.32006-0.22012 0.32006-0.17242 0.32006-0.12474 0.32006-0.07704 0.32006-0.03302 0.32006 0.01468 0.32006 0.06237 0.32006 0.10639 0.32006 0.15775 0.32006 0.19811 0.32006 0.24947 0.32006 0.29349 0.32006 0.34118 0.32006 0.38888 0.32006-0.4916 0.32006-0.78876 0.32006-0.74473 0.32006-0.69704 0.32006-0.64935 0.32006-0.60532 0.32006-0.55763 0.32006-0.50994 0.32006-0.46225 0.32006-0.41822 0.32006-0.37053 0.32006-0.32284 0.32006-0.27882 0.32006-0.23112 0.32006-0.18343 0.32006-0.13941 0.32006-0.09172 0.32006-0.04402 0.32006 0.0036 0.32006 0.04769 0.32006 0.09539 0.32006 0.14308 0.32006 0.1871 0.32006 0.23479 0.32006 0.28248 0.32006 0.33018 0.32006 0.3742 0.32006 0.42189 0.32006 0.46592 0.32006 0.51728 0.32006 0.5613 0.32006 0.60899 0.32006 0.65302 0.32006 0.70071 0.32006 0.7484 0.32006 0.79609 0.32006-0.08438 0.32006-1.6546 0.32006-1.6105 0.32006-1.5592 0.32006-1.5151 0.32006-1.4675 0.32006-1.4234 0.32006-1.3757 0.32006-1.328 0.32006-1.2803 0.32006-1.2363 0.32006-1.1886 0.32006-1.1409 0.32006-1.0969 0.32006-1.0456 0.32006-1.0052 0.32006-0.95384 0.32006-0.90982 0.32006-0.86213 0.32006-0.81444 0.32006-0.77041 0.32006-0.72272 0.32006-0.67503 0.32006-0.62734 0.32006-0.58331 0.32006-0.53562 0.32006-0.4916 0.32006-0.44024 0.32006-0.39621 0.32006-0.35219 0.32006-0.30083 0.32006-0.2568 0.32006-0.20911 0.32006-0.16509 0.32006-0.1174 0.32006-0.069704"
     fill="none"
     stroke="#f00"
     stroke-width=".98238"
     id="path1"
     style="stroke:#ffffff;stroke-opacity:1" />
</svg>
