<?xml version="1.0" encoding="UTF-8" standalone="no"?>
<svg
   width="32"
   height="32"
   version="1.1"
   viewBox="0 0 32 32"
   id="svg1"
   sodipodi:docname="InElastic.svg"
   inkscape:version="1.3.2 (091e20e, 2023-11-25, custom)"
   xmlns:inkscape="http://www.inkscape.org/namespaces/inkscape"
   xmlns:sodipodi="http://sodipodi.sourceforge.net/DTD/sodipodi-0.dtd"
   xmlns="http://www.w3.org/2000/svg"
   xmlns:svg="http://www.w3.org/2000/svg">
  <defs
     id="defs1" />
  <sodipodi:namedview
     id="namedview1"
     pagecolor="#ffffff"
     bordercolor="#000000"
     borderopacity="0.25"
     inkscape:showpageshadow="2"
     inkscape:pageopacity="0.0"
     inkscape:pagecheckerboard="0"
     inkscape:deskcolor="#d1d1d1"
     inkscape:zoom="35.53125"
     inkscape:cx="15.985928"
     inkscape:cy="16"
     inkscape:window-width="5120"
     inkscape:window-height="1351"
     inkscape:window-x="-9"
     inkscape:window-y="-9"
     inkscape:window-maximized="1"
     inkscape:current-layer="svg1" />
  <path
     d="m0.069183 22.409 0.061972 0.0088 0.96057-0.0174 0.32019-0.0088 0.32019-0.0058 0.32019-0.0088 0.64038-0.0116 0.64038-6e-3h0.32019l0.32019 3e-3 0.64038 0.0116 0.32019 0.01166 0.32019 0.01457 0.64038 0.035 0.32019 0.02041 0.32019 0.02332 0.32019 0.0175 0.32019 0.02041 0.32019 0.01458 0.32019 0.01166 0.32019 0.0088h0.32019l0.32019-0.0088 0.32019-0.01458 0.32019-0.02332 0.32019-0.03207 0.32019-0.04082 0.32019-0.04666 0.64038-0.11082 0.32019-0.06124 0.32019-0.05541 0.32019-0.05249 0.32019-0.04666 0.32019-0.03207 0.32019-0.02041h0.32019l0.32019 0.02041 0.32019 0.04375 0.32019 0.06707 0.32019 0.09331 0.32019 0.11372 0.32019 0.13414 0.32019 0.15163 0.32019 0.16038 0.32019 0.16621 0.32019 0.1633 0.32019 0.14871 0.32019 0.1283 0.32019 0.09331 0.32019 0.05249 0.32019 3e-3 0.32019-0.05832 0.32019-0.12247 0.32019-0.19246 0.32019-0.25661 0.32019-0.32367 0.32019-0.38199 0.32019-0.42573 0.32019-0.45781 0.32019-0.46947 0.32019-0.46072 0.32019-0.42282 0.32019-0.35866 0.32019-0.26827 0.32019-0.14871 0.32019-3e-3 0.32019 0.1633 0.32019 0.347 0.32019 0.53946 0.32019 0.729 0.32019 0.91562 0.32019 1.076 0.32019 1.2072 0.32019 1.2976 0.32019 1.3297 0.32019 1.3005 0.32019 1.1956 0.32019 1.0148 0.32019 0.75815 0.32019 0.41699 0.32019 0.01166 0.32019-0.46364 0.32019-0.97977 0.32019-1.5221 0.32019-2.0674 0.32019-2.5865 0.32019-3.0443 0.32019-3.4204 0.32019-3.6654 0.32019-3.7616 0.32019-3.6741 0.32019-3.3825 0.32019-2.8752"
     fill="none"
     stroke="#f00"
     stroke-width=".98682"
     id="path1"
     style="stroke:#ffffff;stroke-opacity:1" />
</svg>
