<?xml version="1.0" encoding="UTF-8" standalone="no"?>
<svg
   width="32"
   height="32"
   version="1.1"
   viewBox="0 0 32 32"
   id="svg1"
   sodipodi:docname="InOutElastic.svg"
   inkscape:version="1.3.2 (091e20e, 2023-11-25, custom)"
   xmlns:inkscape="http://www.inkscape.org/namespaces/inkscape"
   xmlns:sodipodi="http://sodipodi.sourceforge.net/DTD/sodipodi-0.dtd"
   xmlns="http://www.w3.org/2000/svg"
   xmlns:svg="http://www.w3.org/2000/svg">
  <defs
     id="defs1" />
  <sodipodi:namedview
     id="namedview1"
     pagecolor="#ffffff"
     bordercolor="#000000"
     borderopacity="0.25"
     inkscape:showpageshadow="2"
     inkscape:pageopacity="0.0"
     inkscape:pagecheckerboard="0"
     inkscape:deskcolor="#d1d1d1"
     inkscape:zoom="35.53125"
     inkscape:cx="15.985928"
     inkscape:cy="16"
     inkscape:window-width="5120"
     inkscape:window-height="1351"
     inkscape:window-x="-9"
     inkscape:window-y="-9"
     inkscape:window-maximized="1"
     inkscape:current-layer="svg1" />
  <path
     d="m0.047539 28.542 0.062963-6e-3 0.32531-6e-3 0.32531-3e-3 0.32531-6e-3 0.65062-6e-3h0.32531l0.32531 3e-3 0.32531 6e-3 0.32531 9e-3 0.32531 0.01493 0.32531 0.01791 0.32531 0.0209 0.65062 0.04777 0.32531 0.02091 0.32531 0.01194 0.32531 6e-3 0.32531-0.0089 0.32531-0.02389 0.32531-0.04479 0.32531-0.0627 0.32531-0.08361 0.32531-0.09854 0.65062-0.22098 0.32531-0.09854 0.32531-0.07764 0.32531-0.03584 0.32531 0.02388 0.32531 0.09555 0.32531 0.18515 0.32531 0.27772 0.32531 0.37328 0.32531 0.4539 0.32531 0.51064 0.32531 0.53155 0.32531 0.49571 0.32531 0.40015 0.32531 0.22396 0.32531-0.03285 0.32531-0.3673 0.32531-0.76746 0.32531-1.2094 0.32531-1.6603 0.32531-2.0665 0.32531-2.38 0.32531-2.5234 0.32531-2.4368 0.32531-2.0456 0.32531-2.0456 0.32531-2.4368 0.32531-2.5234 0.32531-2.38 0.32531-2.0665 0.32531-1.6603 0.32531-1.2094 0.32531-0.76746 0.32531-0.36731 0.32531-0.032848 0.32531 0.22397 0.32531 0.40015 0.32531 0.49571 0.32531 0.53155 0.32531 0.51363 0.32531 0.45092 0.32531 0.37328 0.32531 0.27772 0.32531 0.18515 0.32531 0.095559 0.32531 0.023888 0.32531-0.035834 0.32531-0.077642 0.32531-0.098545 0.65062-0.22098 0.32531-0.098545 0.32531-0.083614 0.32531-0.06271 0.32531-0.044793 0.32531-0.023889 0.32531-0.00896 0.32531 0.00597 0.32531 0.011944 0.32531 0.020904 0.65062 0.047778 0.32531 0.020905 0.32531 0.017918 0.32531 0.014931 0.32531 0.00896 0.32531 0.00597 0.32531 0.00299h0.32531l0.65062-0.00598 0.32531-0.00597 0.32531-0.00299 0.32531-0.00597"
     fill="none"
     stroke="#f00"
     stroke-width=".98824"
     id="path1"
     style="stroke:#ffffff;stroke-opacity:1" />
</svg>
