<?xml version="1.0" encoding="UTF-8" standalone="no"?>
<svg
   width="32"
   height="32"
   version="1.1"
   viewBox="0 0 32 32"
   id="svg1"
   sodipodi:docname="InOutBounce.svg"
   inkscape:version="1.3.2 (091e20e, 2023-11-25, custom)"
   xmlns:inkscape="http://www.inkscape.org/namespaces/inkscape"
   xmlns:sodipodi="http://sodipodi.sourceforge.net/DTD/sodipodi-0.dtd"
   xmlns="http://www.w3.org/2000/svg"
   xmlns:svg="http://www.w3.org/2000/svg">
  <defs
     id="defs1" />
  <sodipodi:namedview
     id="namedview1"
     pagecolor="#ffffff"
     bordercolor="#000000"
     borderopacity="0.25"
     inkscape:showpageshadow="2"
     inkscape:pageopacity="0.0"
     inkscape:pagecheckerboard="0"
     inkscape:deskcolor="#d1d1d1"
     inkscape:zoom="35.53125"
     inkscape:cx="15.985928"
     inkscape:cy="16"
     inkscape:window-width="5120"
     inkscape:window-height="1351"
     inkscape:window-x="-9"
     inkscape:window-y="-9"
     inkscape:window-maximized="1"
     inkscape:current-layer="svg1" />
  <path
     d="m0.45564 31.234 0.061959-0.16332 0.32012-0.07259 0.32012 0.02178 0.32012 0.11251 0.32012-0.07984 0.32012-0.33026 0.32012-0.23953 0.32012-0.14517 0.32012-0.05444 0.32012 0.03629 0.32012 0.13065 0.32012 0.22139 0.32012 0.31574 0.32012-0.05081 0.32012-0.75852 0.32012-0.66778 0.32012-0.57342 0.32012-0.48269 0.32012-0.38833 0.32012-0.30123 0.32012-0.20324 0.32012-0.11251 0.32012-0.02178 0.32012 0.07259 0.32012 0.16332 0.32012 0.25405 0.32012 0.34841 0.32012 0.43914 0.32012 0.5335 0.32012 0.62423 0.32012 0.71859 0.32012 0.34841 0.32012-1.6114 0.32012-1.5243 0.32012-1.4263 0.32012-1.3392 0.32012-1.2448 0.32012-1.1505 0.32012-1.0634 0.32012-0.96901 0.32012-0.87465 0.32012-0.78392 0.32012-0.68956 0.32012-0.60246 0.32012-0.50447 0.32012-0.41736 0.32012-0.323 0.32012-0.22864 0.32012-0.13791 0.64024-0.09436 0.32012-0.13791 0.32012-0.22864 0.32012-0.323 0.32012-0.41736 0.32012-0.50447 0.32012-0.60246 0.32012-0.68956 0.32012-0.78392 0.32012-0.87828 0.32012-0.96538 0.32012-1.0634 0.32012-1.1505 0.32012-1.2448 0.32012-1.3392 0.32012-1.4263 0.32012-1.5243 0.32012-1.6114 0.32012 0.34841 0.32012 0.71859 0.32012 0.62423 0.32012 0.5335 0.32012 0.43914 0.32012 0.34841 0.32012 0.25405 0.32012 0.16332 0.32012 0.072586 0.32012-0.021775 0.32012-0.11251 0.32012-0.20687 0.32012-0.2976 0.32012-0.38833 0.32012-0.48269 0.32012-0.57342 0.32012-0.66778 0.32012-0.75852 0.32012-0.050809 0.32012 0.31575 0.32012 0.22138 0.32012 0.13065 0.32012 0.036293 0.32012-0.054439 0.32012-0.14517 0.32012-0.23953 0.32012-0.33026 0.32012-0.079844 0.32012 0.11251 0.32012 0.021776 0.32012-0.072585"
     fill="none"
     stroke="#e80000"
     stroke-width=".97107"
     id="path1"
     style="stroke:#ffffff;stroke-opacity:1" />
</svg>
