<?xml version="1.0" encoding="UTF-8" standalone="no"?>
<svg
   width="32"
   height="32"
   version="1.1"
   viewBox="0 0 32 32"
   id="svg1"
   sodipodi:docname="OutBounce.svg"
   inkscape:version="1.3.2 (091e20e, 2023-11-25, custom)"
   xmlns:inkscape="http://www.inkscape.org/namespaces/inkscape"
   xmlns:sodipodi="http://sodipodi.sourceforge.net/DTD/sodipodi-0.dtd"
   xmlns="http://www.w3.org/2000/svg"
   xmlns:svg="http://www.w3.org/2000/svg">
  <defs
     id="defs1" />
  <sodipodi:namedview
     id="namedview1"
     pagecolor="#ffffff"
     bordercolor="#000000"
     borderopacity="0.25"
     inkscape:showpageshadow="2"
     inkscape:pageopacity="0.0"
     inkscape:pagecheckerboard="0"
     inkscape:deskcolor="#d1d1d1"
     inkscape:zoom="35.53125"
     inkscape:cx="15.985928"
     inkscape:cy="16"
     inkscape:window-width="5120"
     inkscape:window-height="1351"
     inkscape:window-x="-9"
     inkscape:window-y="-9"
     inkscape:window-maximized="1"
     inkscape:current-layer="svg1" />
  <path
     d="m0.16506 31.531 0.062353-0.02201 0.32216-0.0697 0.32216-0.11738 0.32216-0.16507 0.32216-0.20909 0.32216-0.25678 0.32216-0.3008 0.32216-0.35216 0.32216-0.39618 0.32216-0.4402 0.32216-0.49155 0.32216-0.53557 0.32216-0.58326 0.32216-0.62728 0.32216-0.67497 0.32216-0.72266 0.32216-0.77034 0.32216-0.81436 0.32216-0.86205 0.32216-0.90974 0.32216-0.95376 0.32216-1.0051 0.32216-1.0455 0.32216-1.0968 0.32216-1.1408 0.32216-1.1885 0.32216-1.2362 0.32216-1.2802 0.32216-1.3279 0.32216-1.3756 0.32216-1.4233 0.32216-1.4673 0.32216-1.515 0.32216-1.559 0.32216-1.6104 0.32216-1.6544 0.32216-0.084371 0.32216 0.79602 0.32216 0.74833 0.32216 0.70064 0.32216 0.65296 0.32216 0.60894 0.32216 0.56125 0.32216 0.51723 0.32216 0.46587 0.32216 0.42185 0.32216 0.37417 0.32216 0.33015 0.32216 0.28246 0.32216 0.23477 0.32216 0.18708 0.32216 0.14306 0.32216 0.095376 0.32216 0.047688 0.32216 0.00367 0.32216-0.044019 0.32216-0.091707 0.32216-0.1394 0.32216-0.18341 0.32216-0.2311 0.32216-0.27879 0.32216-0.32281 0.32216-0.3705 0.32216-0.41819 0.32216-0.46221 0.32216-0.50989 0.32216-0.55758 0.32216-0.60527 0.32216-0.64929 0.32216-0.69698 0.32216-0.74466 0.32216-0.78868 0.32216-0.49155 0.32216 0.38884 0.32216 0.34115 0.32216 0.29346 0.32216 0.24944 0.32216 0.19809 0.32216 0.15774 0.32216 0.10638 0.32216 0.062361 0.32216 0.014673 0.32216-0.033015 0.32216-0.077034 0.32216-0.12472 0.32216-0.17241 0.32216-0.2201 0.32216-0.26412 0.32216-0.3118 0.32216-0.35582 0.32216-0.34849 0.32216 0.18341 0.32216 0.1394 0.32216 0.091707 0.32216 0.04402 0.32216-0.00367 0.32216-0.047688 0.32216-0.095376 0.32216-0.14306"
     fill="none"
     stroke="#f00"
     stroke-width=".98376"
     id="path1"
     style="stroke:#ffffff;stroke-opacity:1" />
</svg>
