<?xml version="1.0" encoding="UTF-8" standalone="no"?>
<svg
   width="32"
   height="32"
   version="1.1"
   viewBox="0 0 32 32"
   id="svg1"
   sodipodi:docname="OutElastic.svg"
   inkscape:version="1.3.2 (091e20e, 2023-11-25, custom)"
   xmlns:inkscape="http://www.inkscape.org/namespaces/inkscape"
   xmlns:sodipodi="http://sodipodi.sourceforge.net/DTD/sodipodi-0.dtd"
   xmlns="http://www.w3.org/2000/svg"
   xmlns:svg="http://www.w3.org/2000/svg">
  <defs
     id="defs1" />
  <sodipodi:namedview
     id="namedview1"
     pagecolor="#ffffff"
     bordercolor="#000000"
     borderopacity="0.25"
     inkscape:showpageshadow="2"
     inkscape:pageopacity="0.0"
     inkscape:pagecheckerboard="0"
     inkscape:deskcolor="#d1d1d1"
     inkscape:zoom="35.53125"
     inkscape:cx="15.985928"
     inkscape:cy="16"
     inkscape:window-width="5120"
     inkscape:window-height="1351"
     inkscape:window-x="-9"
     inkscape:window-y="-9"
     inkscape:window-maximized="1"
     inkscape:current-layer="svg1" />
  <path
     d="m0.49396 31.985 0.062085-2.0064 0.32077-2.6953 0.32077-3.1709 0.32077-3.4442 0.32077-3.5262 0.32077-3.436 0.32077-3.2064 0.32077-2.8538 0.32077-2.4246 0.32077-1.9381 0.32077-1.4269 0.32077-0.91846 0.32077-0.43463 0.32077 0.010934 0.32077 0.39089 0.32077 0.71072 0.32077 0.95127 0.32077 1.1207 0.32077 1.2192 0.32077 1.2465 0.32077 1.2164 0.32077 1.1317 0.32077 1.0087 0.32077 0.85832 0.32077 0.68338 0.32077 0.5057 0.32077 0.32529 0.32077 0.15308 0.32077-0.0028 0.32077-0.13941 0.32077-0.25148 0.32077-0.33622 0.32077-0.39636 0.32077-0.4319 0.32077-0.4401 0.32077-0.42916 0.32077-0.39909 0.32077-0.35809 0.32077-0.30342 0.32077-0.24328 0.32077-0.17768 0.32077-0.11481 0.32077-0.05467 0.32077 0.00273 0.32077 0.049203 0.32077 0.087473 0.32077 0.12027 0.32077 0.13941 0.32077 0.15308 0.32077 0.15581 0.32077 0.15034 0.32077 0.14214 0.32077 0.12574 0.32077 0.10661 0.32077 0.087472 0.32077 0.062871 0.32077 0.041003 0.32077 0.019134h0.32077l0.32077-0.019134 0.32077-0.030069 0.32077-0.043736 0.32077-0.049204 0.32077-0.051937 0.32077-0.057404 0.64154-0.10387 0.32077-0.043736 0.32077-0.03827 0.32077-0.030069 0.32077-0.021868 0.32077-0.013667 0.32077-0.0082h0.32077l0.32077 0.0082 0.32077 0.010934 0.32077 0.013667 0.32077 0.019136 0.32077 0.016401 0.32077 0.021868 0.32077 0.019136 0.64154 0.032802 0.32077 0.013667 0.32077 0.010934 0.64154 0.01094 0.32077 0.00273h0.32077l0.64154-0.00546 0.64154-0.01094 0.32077-0.0082 0.32077-0.00547 0.32077-0.0082 0.96231-0.01641"
     fill="none"
     stroke="#f00"
     stroke-width=".9884"
     id="path1"
     style="stroke:#ffffff;stroke-opacity:1" />
</svg>
